<?xml version="1.0" encoding="UTF-8" standalone="no"?>
<!-- Created with Inkscape (http://www.inkscape.org/) -->

<svg
   xmlns:svg="http://www.w3.org/2000/svg"
   xmlns="http://www.w3.org/2000/svg"
   version="1.1"
   width="620"
   height="234.95"
   id="svg2">
  <defs
     id="defs4" />
  <g
     transform="translate(-52.457,-445.7)"
     id="layer1">
    <g
       transform="translate(9.9985,-9.9977)"
       id="g2920">
      <path
         d="m 449.2,679.73 0,-1 -1.9,0 -1.89,0 0,-0.8 c 0,-0.7 0.1,-0.9 2,-3.5 l 2.01,-2.8 0.76,0 0.75,0 0,2.8 0,2.7 0.56,0 0.55,0 0,0.8 0,0.8 -0.55,0 -0.56,0 0,1 0,0.9 -0.87,0 -0.86,0 0,-0.9 z m 0,-4.1 c 0,-0.8 -0.1,-1.5 -0.15,-1.4 -0.15,0.2 -1.81,2.5 -1.97,2.7 -0.1,0.2 0.16,0.2 0.99,0.2 l 1.13,0 0,-1.5 z m 140.28,4.7 c -0.37,-0.2 -0.81,-0.5 -0.97,-0.8 -0.28,-0.4 -0.72,-1.6 -0.61,-1.6 0,-0.1 0.37,-0.1 0.79,-0.2 0.71,-0.1 0.75,-0.1 0.85,0.3 0.1,0.2 0.28,0.5 0.49,0.7 0.6,0.5 1.25,0.4 1.81,-0.1 0.45,-0.5 0.48,-0.6 0.4,-1.3 -0.14,-1.2 -1.15,-1.6 -2.28,-0.9 -0.41,0.2 -0.67,0.2 -1.23,0.2 -0.39,-0.1 -0.71,-0.1 -0.71,-0.2 0,0 0.22,-1.1 0.48,-2.4 0.25,-1.4 0.47,-2.5 0.47,-2.5 0,0 1.03,0 2.29,0 l 2.29,0 0,0.8 0,0.9 -1.56,0 -1.57,0 -0.11,0.5 c -0.1,0.3 -0.14,0.6 -0.17,0.8 -0.1,0.2 0,0.2 0.54,0.1 1.72,-0.5 3.34,0.9 3.34,2.9 0,2.3 -2.44,3.8 -4.54,2.8 z m -126.39,-22.4 c 0,-0.4 0.46,-1 1.99,-2.5 1.43,-1.3 1.65,-1.6 1.65,-2.1 0,-1 -1.52,-1.5 -2.29,-0.7 -0.22,0.2 -0.4,0.5 -0.4,0.6 0,0.3 -0.27,0.3 -0.61,0.1 -0.26,-0.1 -0.11,-0.7 0.28,-1.2 1.33,-1.5 4.01,-0.5 3.76,1.4 -0.11,0.8 -0.63,1.5 -2.01,2.6 -0.61,0.5 -1.1,1 -1.1,1 0,0.1 0.71,0.1 1.58,0.1 1.58,0 1.58,0 1.58,0.4 l 0,0.4 -2.21,0 c -1.46,0 -2.22,0 -2.22,-0.1 z m 140.88,-0.2 c 0,-0.4 0.46,-0.9 1.99,-2.4 1.42,-1.4 1.65,-1.7 1.65,-2.1 0,-1.1 -1.52,-1.6 -2.29,-0.8 -0.23,0.2 -0.4,0.5 -0.4,0.7 0,0.2 -0.27,0.3 -0.61,0.1 -0.26,-0.2 -0.12,-0.8 0.28,-1.2 1.33,-1.5 4.01,-0.6 3.76,1.3 -0.11,0.8 -0.63,1.5 -2.01,2.6 -0.61,0.5 -1.1,1 -1.1,1.1 0,0 0.71,0.1 1.58,0.1 1.58,0 1.58,0 1.58,0.4 l 0,0.4 -2.22,0 c -1.45,0 -2.21,-0.1 -2.21,-0.2 z m 34.47,-0.1 c -0.29,-0.2 -0.64,-0.6 -0.78,-0.9 -0.24,-0.5 -0.24,-0.6 -0.1,-0.7 0.4,-0.3 0.59,-0.2 0.79,0.3 0.24,0.6 0.59,0.8 1.27,0.8 0.93,0 1.54,-1.1 1.1,-1.9 -0.19,-0.4 -1.1,-0.7 -1.48,-0.5 -0.22,0 -0.27,0 -0.22,-0.3 0,-0.2 0.23,-0.4 0.66,-0.6 0.93,-0.3 1.15,-0.9 0.57,-1.5 -0.59,-0.5 -1.8,-0.2 -2.07,0.7 -0.1,0.1 -0.19,0.1 -0.43,0.1 -0.45,-0.2 -0.34,-0.6 0.29,-1.3 0.63,-0.6 1.75,-0.7 2.51,-0.2 0.87,0.6 1.04,1.7 0.35,2.3 -0.3,0.2 -0.29,0.2 0.23,0.7 1.66,1.6 -0.74,4.2 -2.74,3 z m -190.71,-2.3 c -1,-0.4 -1.52,-0.9 -2.13,-2.2 -0.37,-0.7 -0.43,-1 -0.43,-2.3 0,-1.7 0.33,-2.7 1.15,-3.6 0.95,-1 2.7,-1.4 4.12,-1 0.82,0.2 1.82,1.1 2.15,1.9 l 0.24,0.6 -0.6,0.2 c -0.32,0.1 -0.6,0.1 -0.63,0 -0.16,-0.5 -0.75,-1.2 -1.17,-1.4 -1.16,-0.7 -2.91,-0.2 -3.6,1.1 -0.35,0.6 -0.4,0.9 -0.4,2.2 0,1.3 0,1.6 0.4,2.2 0.52,0.9 1.5,1.4 2.57,1.4 0.95,-0.1 1.5,-0.5 2.01,-1.5 0.38,-0.7 0.41,-0.7 0.94,-0.6 0.3,0 0.57,0.1 0.6,0.1 0.18,0.2 -0.74,1.8 -1.24,2.2 -1.01,0.9 -2.66,1.2 -3.98,0.7 z m 23.78,0 c -1.01,-0.3 -1.86,-1.1 -2.37,-2.1 -0.39,-0.8 -0.44,-1.1 -0.44,-2.4 0,-1.4 0,-1.6 0.44,-2.4 0.95,-2 2.93,-2.8 5.1,-2.2 1.68,0.6 2.71,2 2.86,4.1 0.22,2.9 -1.35,5 -3.93,5.1 -0.58,0.1 -1.26,0 -1.66,-0.1 z m 3.07,-1.5 c 0.77,-0.6 1.17,-1.4 1.26,-2.6 0.17,-1.7 -0.51,-3.2 -1.75,-3.8 -1.63,-0.7 -3.46,0.1 -3.97,1.9 -0.85,2.8 0.57,5.2 2.96,5.1 0.72,-0.1 1.04,-0.2 1.5,-0.6 z m -20.01,-3 0,-4.6 0.63,0 0.63,0 0,1.9 0,1.9 2.37,0 2.37,0 0,-1.9 0,-1.9 0.63,0 0.63,0 0,4.6 0,4.5 -0.63,0 -0.63,0 0,-2.1 0,-2.1 -2.37,0 -2.37,0 0,2.1 0,2.1 -0.63,0 -0.63,0 0,-4.5 z m 24.16,0 0,-4.6 0.63,0 0.63,0 0,1.9 0,1.9 2.37,0 2.37,0 0,-1.9 0,-1.9 0.63,0 0.64,0 0,4.6 0,4.5 -0.64,0 -0.63,0 0,-2.1 0,-2.1 -2.37,0 -2.37,0 0,2.1 0,2.1 -0.63,0 -0.63,0 0,-4.5 z m 110.03,4.3 c -0.99,-0.3 -1.51,-0.9 -2.13,-2.1 -0.36,-0.8 -0.42,-1.1 -0.42,-2.4 0,-1.6 0.33,-2.6 1.15,-3.5 0.95,-1 2.7,-1.5 4.12,-1.1 0.82,0.2 1.82,1.1 2.15,2 l 0.24,0.5 -0.6,0.2 c -0.32,0.1 -0.6,0.1 -0.64,0 -0.15,-0.4 -0.74,-1.1 -1.16,-1.4 -1.16,-0.7 -2.91,-0.2 -3.61,1.1 -0.34,0.6 -0.39,0.9 -0.39,2.2 0,1.3 0.1,1.6 0.39,2.2 0.53,1 1.5,1.5 2.58,1.4 0.95,-0.1 1.5,-0.5 2,-1.4 0.38,-0.8 0.41,-0.8 0.95,-0.7 0.3,0.1 0.57,0.1 0.6,0.2 0.18,0.1 -0.74,1.7 -1.25,2.2 -1.01,0.8 -2.65,1.1 -3.98,0.6 z m 23.79,0 c -1.01,-0.3 -1.86,-1.1 -2.37,-2.1 -0.39,-0.8 -0.44,-1.1 -0.44,-2.4 0,-1.3 0.1,-1.6 0.44,-2.4 0.95,-2 2.92,-2.8 5.1,-2.1 1.68,0.5 2.7,2 2.86,4.1 0.22,2.9 -1.36,4.9 -3.93,5.1 -0.59,0 -1.27,0 -1.66,-0.2 z m 3.06,-1.4 c 0.78,-0.6 1.17,-1.4 1.27,-2.6 0.17,-1.8 -0.51,-3.3 -1.76,-3.8 -1.62,-0.8 -3.45,0.1 -3.96,1.8 -0.85,2.8 0.57,5.3 2.95,5.1 0.73,0 1.05,-0.1 1.5,-0.5 z m 15.1,1.4 c -1.01,-0.3 -1.86,-1.1 -2.37,-2.1 -0.39,-0.8 -0.44,-1.1 -0.44,-2.4 0,-1.3 0,-1.6 0.44,-2.4 0.95,-2 2.92,-2.8 5.1,-2.1 1.68,0.5 2.71,2 2.86,4.1 0.22,2.9 -1.36,4.9 -3.93,5.1 -0.58,0 -1.26,0 -1.66,-0.2 z m 3.07,-1.4 c 0.77,-0.6 1.16,-1.4 1.26,-2.6 0.17,-1.8 -0.51,-3.3 -1.75,-3.8 -1.63,-0.8 -3.46,0.1 -3.97,1.8 -0.85,2.8 0.57,5.3 2.96,5.1 0.72,0 1.04,-0.1 1.5,-0.5 z m -38.18,-3.1 0,-4.6 0.63,0 0.64,0 0,1.9 0,1.9 2.37,0 2.36,0 0,-1.9 0,-1.9 0.64,0 0.63,0 0,4.6 0,4.6 -0.63,0 -0.64,0 0,-2.1 0,-2.2 -2.36,0 -2.37,0 0,2.2 0,2.1 -0.64,0 -0.63,0 0,-4.6 z m 24.17,0 0,-4.6 2.15,0 c 1.16,0 2.44,0.1 2.84,0.2 1.64,0.4 2.34,2.6 1.32,4.2 -0.5,0.8 -1.1,1.1 -3.19,1.1 l -1.86,0.1 0,1.8 0,1.8 -0.63,0 -0.63,0 0,-4.6 z m 4.64,-0.4 c 0.98,-0.4 1.19,-2 0.33,-2.7 -0.38,-0.3 -0.58,-0.4 -2.07,-0.4 l -1.64,0 0,1.7 0,1.7 1.42,0 c 0.85,0 1.64,-0.1 1.96,-0.3 z m 18.26,-0.1 c 0,-0.4 0.46,-0.9 1.99,-2.4 1.42,-1.4 1.64,-1.7 1.64,-2.1 0,-1.1 -1.52,-1.6 -2.29,-0.8 -0.22,0.2 -0.39,0.5 -0.39,0.7 0,0.2 -0.27,0.3 -0.62,0.1 -0.25,-0.2 -0.11,-0.8 0.28,-1.2 1.33,-1.5 4.02,-0.6 3.76,1.3 -0.11,0.8 -0.63,1.5 -2,2.7 -0.62,0.4 -1.11,0.9 -1.11,1 0,0 0.71,0.1 1.58,0.1 1.58,0 1.58,0 1.58,0.4 l 0,0.4 -2.21,0 c -1.45,0 -2.21,-0.1 -2.21,-0.2 z m -530.5,-4.4 0,-3.2 -0.43,0.4 c -0.47,0.4 -1.07,0.8 -1.5,0.9 -0.25,0.1 -0.28,0 -0.28,-0.7 0,-0.8 0,-0.9 0.6,-1.2 0.61,-0.3 1.92,-1.6 1.92,-1.9 0,-0.1 0.32,-0.1 0.71,-0.1 l 0.71,0 0,4.5 0,4.6 -0.87,0 -0.86,0 0,-3.3 z m 176.41,3.2 c 0,-0.1 0.13,-0.5 0.27,-0.9 0.2,-0.6 0.63,-1.2 1.94,-2.5 1.85,-1.9 2.06,-2.2 2.06,-2.9 0,-1.4 -1.99,-1.6 -2.29,-0.2 -0.12,0.5 -0.12,0.5 -0.92,0.4 -0.46,-0.1 -0.84,-0.2 -0.87,-0.2 -0.13,-0.1 0.32,-1.3 0.63,-1.7 0.79,-1 2.51,-1.3 3.76,-0.7 1.01,0.5 1.34,1.1 1.34,2.1 0,1.3 -0.36,1.9 -2.03,3.6 l -1.44,1.4 1.77,0 1.78,0 0,0.9 0,0.8 -3,0 c -1.66,0 -3,0 -3,-0.1 z m 359.14,-0.9 c 0,-0.2 0.37,-0.2 2.37,-0.2 2.01,0 2.37,0 2.37,0.2 0,0.2 -0.36,0.2 -2.37,0.2 -2,0 -2.37,0 -2.37,-0.2 z m -58.12,-7.5 0,-4.8 0.48,0 0.47,0 0,4.8 0,4.7 -0.47,0 -0.48,0 0,-4.7 z m -140.88,0 0,-4.6 0.4,0 0.39,0 0,4.6 0,4.6 -0.39,0 -0.4,0 0,-4.6 z m 58.01,4 c -0.38,-1 4.91,-7.1 8.17,-9.4 1.89,-1.4 4.72,-2.8 6.92,-3.6 l 1.69,-0.6 -12.28,0 -12.28,0 0,-0.5 0,-0.5 15.84,0 c 8.7,0 21.49,0 28.43,0 10.56,0 12.58,0 12.58,-0.2 0,-0.1 -0.22,-0.6 -0.49,-1 -0.25,-0.4 -0.45,-0.8 -0.42,-0.8 0,0 2.05,0.5 4.5,1.2 2.46,0.6 4.42,1.2 4.34,1.3 -0.11,0.1 -8.39,2.2 -8.69,2.2 -0.11,0 0,-0.3 0.29,-0.8 0.27,-0.4 0.47,-0.8 0.47,-0.8 0,-0.1 -3.71,-0.1 -8.24,-0.1 l -8.26,0 1.74,0.6 c 3.69,1.3 6.65,3.1 9.88,6 l 1.41,1.3 0.3,-0.7 c 0.27,-0.6 0.31,-0.6 0.46,-0.4 0.26,0.6 2.73,6.6 2.68,6.7 0,0 -1.34,-1.1 -2.94,-2.4 l -2.89,-2.4 0.6,0 c 0.34,-0.1 0.67,-0.1 0.73,-0.2 0.17,-0.2 -2.18,-2.3 -3.92,-3.6 -1.81,-1.3 -5.35,-3 -7.61,-3.7 -0.98,-0.3 -2.68,-0.8 -3.79,-0.9 -1.77,-0.3 -2.43,-0.4 -5.26,-0.3 -3.6,0.1 -5.1,0.3 -8.05,1.3 -6.02,2 -11.34,6.2 -14.61,11.6 -0.6,1 -1.09,1.2 -1.3,0.7 z m -59,-10.1 c -1,-0.3 -1.52,-0.9 -2.13,-2.1 -0.37,-0.8 -0.43,-1.1 -0.43,-2.4 0,-1.7 0.33,-2.6 1.15,-3.5 0.95,-1 2.7,-1.5 4.12,-1.1 0.82,0.2 1.82,1.1 2.15,2 l 0.24,0.5 -0.6,0.2 c -0.32,0.1 -0.6,0.1 -0.63,0 -0.16,-0.4 -0.75,-1.1 -1.17,-1.4 -1.16,-0.7 -2.91,-0.2 -3.6,1.1 -0.35,0.6 -0.4,0.9 -0.4,2.2 0,1.3 0,1.6 0.4,2.2 0.52,1 1.5,1.5 2.57,1.4 0.95,-0.1 1.5,-0.5 2.01,-1.4 0.38,-0.8 0.41,-0.8 0.94,-0.7 0.3,0.1 0.57,0.1 0.6,0.2 0.18,0.1 -0.74,1.7 -1.24,2.2 -1.01,0.8 -2.66,1.1 -3.98,0.6 z m 20.78,0 c -1.01,-0.3 -1.86,-1.1 -2.37,-2.1 -0.39,-0.8 -0.44,-1.1 -0.44,-2.4 0,-1.3 0,-1.6 0.44,-2.4 0.95,-1.9 2.92,-2.7 5.1,-2.1 1.68,0.5 2.7,2 2.86,4.1 0.22,2.9 -1.36,4.9 -3.93,5.1 -0.58,0 -1.26,-0.1 -1.66,-0.2 z m 3.07,-1.4 c 0.77,-0.6 1.16,-1.5 1.26,-2.6 0.17,-1.8 -0.51,-3.3 -1.75,-3.8 -1.63,-0.8 -3.46,0.1 -3.97,1.8 -0.85,2.8 0.57,5.2 2.96,5.1 0.72,0 1.04,-0.2 1.5,-0.5 z m -35.18,-3.1 0,-4.6 0.63,0 0.64,0 0,1.9 0,1.9 2.37,0 2.36,0 0,-1.9 0,-1.9 0.64,0 0.63,0 0,4.6 0,4.6 -0.63,0 -0.64,0 0,-2.1 0,-2.2 -2.36,0 -2.37,0 0,2.2 0,2.1 -0.64,0 -0.63,0 0,-4.6 z m 39.33,0 0,-4.6 0.63,0 0.63,0 0,1.9 0,1.9 2.37,0 2.37,0 0,-1.9 0,-1.9 0.63,0 0.63,0 0,4.6 0,4.6 -0.63,0 -0.63,0 0,-2.1 0,-2.2 -2.37,0 -2.37,0 0,2.2 0,2.1 -0.63,0 -0.63,0 0,-4.6 z m 113.03,4.4 c -0.99,-0.4 -1.51,-0.9 -2.13,-2.2 -0.36,-0.7 -0.42,-1.1 -0.42,-2.4 0,-1.6 0.33,-2.6 1.15,-3.5 0.95,-1 2.7,-1.4 4.12,-1 0.82,0.2 1.82,1.1 2.15,1.9 l 0.24,0.6 -0.6,0.1 c -0.32,0.1 -0.6,0.1 -0.64,0.1 -0.15,-0.5 -0.74,-1.2 -1.16,-1.5 -1.16,-0.7 -2.91,-0.1 -3.61,1.1 -0.34,0.7 -0.39,0.9 -0.39,2.2 0,1.4 0.1,1.6 0.39,2.3 0.53,0.9 1.5,1.4 2.58,1.3 0.95,0 1.5,-0.4 2,-1.4 0.38,-0.7 0.41,-0.7 0.95,-0.7 0.3,0.1 0.57,0.2 0.6,0.2 0.18,0.2 -0.74,1.8 -1.25,2.2 -1.01,0.9 -2.65,1.1 -3.98,0.7 z m 20.79,0 c -1.01,-0.4 -1.86,-1.1 -2.37,-2.2 -0.4,-0.7 -0.44,-1 -0.44,-2.4 0,-1.3 0,-1.6 0.44,-2.4 0.95,-1.9 2.92,-2.7 5.1,-2.1 1.68,0.5 2.7,2 2.86,4.1 0.22,2.9 -1.36,5 -3.93,5.1 -0.59,0.1 -1.27,0 -1.66,-0.1 z m 3.06,-1.5 c 0.78,-0.6 1.17,-1.4 1.27,-2.6 0.17,-1.8 -0.51,-3.2 -1.76,-3.8 -1.62,-0.7 -3.46,0.1 -3.96,1.8 -0.85,2.9 0.57,5.3 2.95,5.1 0.73,0 1.04,-0.1 1.5,-0.5 z m -35.33,-3.1 0,-4.5 0.63,0 0.64,0 0,1.9 0,1.9 2.36,0 2.37,0 0,-1.9 0,-1.9 0.64,0 0.63,0 0,4.5 0,4.6 -0.63,0 -0.64,0 0,-2.1 0,-2.1 -2.37,0 -2.36,0 0,2.1 0,2.1 -0.64,0 -0.63,0 0,-4.6 z m 39.49,0 0,-4.5 0.63,0 0.63,0 0,1.9 0,1.9 2.37,0 2.37,0 0,-1.9 0,-1.9 0.63,0 0.63,0 0,4.5 0,4.6 -0.63,0 -0.63,0 0,-2.1 0,-2.1 -2.37,0 -2.37,0 0,2.1 0,2.1 -0.63,0 -0.63,0 0,-4.6 z m -162.36,-0.1 0,-0.5 5.05,0 5.06,0 0,0.5 0,0.5 -5.06,0 -5.05,0 0,-0.5 z m 140.88,-0.2 0,-0.4 5.13,0 5.13,0 0,0.4 0,0.5 -5.13,0 -5.13,0 0,-0.5 z m -70.13,-7.6 0,-3.7 -1.34,0 -1.34,0 0,-0.8 0,-0.8 3.55,0 3.56,0 0,0.8 0,0.8 -1.35,0 -1.34,0 0,3.7 0,3.8 -0.87,0 -0.87,0 0,-3.8 z m 5.69,-0.7 0,-4.6 0.87,0 0.85,0 0,2.1 0,2 1.87,-2 1.9,-2.1 1.18,0 1.2,0 -1.72,1.7 c -1.54,1.5 -1.69,1.7 -1.53,2.1 0.11,0.1 0.9,1.4 1.75,2.7 0.87,1.4 1.58,2.5 1.58,2.6 0,0 -0.44,0 -0.98,0 l -0.99,0 -1.26,-2 c -0.7,-1.1 -1.31,-2 -1.38,-2.1 -0.1,-0.1 -0.42,0.1 -0.91,0.6 l -0.79,0.8 0,1.3 0,1.4 -0.87,0 -0.87,0 0,-4.5 z m -82.13,-1.6 0,-4.6 0.4,0 0.39,0 0,4.6 0,4.6 -0.39,0 -0.4,0 0,-4.6 z m 140.88,0 0,-4.6 0.48,0 0.47,0 0,4.6 0,4.6 -0.47,0 -0.48,0 0,-4.6 z m -141.87,-5.9 c -1,-0.4 -1.52,-0.9 -2.13,-2.2 -0.37,-0.7 -0.43,-1 -0.43,-2.3 0,-1.7 0.33,-2.7 1.15,-3.6 0.95,-1 2.7,-1.4 4.12,-1 0.82,0.2 1.82,1.1 2.15,1.9 l 0.24,0.6 -0.6,0.2 c -0.32,0.1 -0.6,0.1 -0.63,0 -0.16,-0.5 -0.75,-1.2 -1.17,-1.5 -1.16,-0.7 -2.91,-0.1 -3.6,1.1 -0.35,0.7 -0.4,1 -0.4,2.3 0,1.3 0,1.6 0.4,2.2 0.52,0.9 1.5,1.5 2.57,1.4 0.95,-0.1 1.5,-0.5 2.01,-1.5 0.38,-0.7 0.41,-0.7 0.94,-0.6 0.3,0 0.57,0.1 0.6,0.1 0.18,0.2 -0.74,1.8 -1.24,2.2 -1.01,0.9 -2.66,1.1 -3.98,0.7 z m 141.03,-0.2 c -0.99,-0.3 -1.51,-0.9 -2.13,-2.1 -0.36,-0.8 -0.42,-1.1 -0.42,-2.4 0,-1.7 0.33,-2.7 1.15,-3.5 0.95,-1 2.7,-1.5 4.12,-1.1 0.82,0.2 1.82,1.1 2.15,1.9 l 0.24,0.6 -0.6,0.2 c -0.32,0.1 -0.6,0.1 -0.64,0 -0.15,-0.4 -0.74,-1.2 -1.16,-1.4 -1.16,-0.7 -2.91,-0.2 -3.61,1.1 -0.34,0.6 -0.39,0.9 -0.39,2.2 0,1.3 0.1,1.6 0.39,2.2 0.53,1 1.5,1.5 2.58,1.4 0.95,-0.1 1.5,-0.5 2,-1.4 0.38,-0.8 0.41,-0.8 0.95,-0.7 0.3,0.1 0.57,0.1 0.6,0.2 0.18,0.1 -0.74,1.7 -1.25,2.2 -1.01,0.8 -2.65,1.1 -3.98,0.6 z m -149.32,-8 c -3.91,-2.3 -4.13,-2.4 -3.95,-2.7 0.1,-0.2 0.19,-0.4 0.22,-0.4 0,-0.1 7.78,4.4 8.07,4.6 0.14,0.1 0.14,0.3 0,0.5 -0.19,0.4 -0.27,0.4 -4.34,-2 z m 140.97,-0.1 c -2.24,-1.3 -4.06,-2.4 -4.06,-2.5 0,-0.1 0.1,-0.3 0.19,-0.4 0.19,-0.2 0.62,0 4.31,2.1 2.24,1.3 4.11,2.4 4.14,2.4 0,0 -0.1,0.2 -0.24,0.4 l -0.28,0.4 -4.06,-2.4 z m -485.253,1.3 c -1.01,-0.3 -1.87,-1.1 -2.37,-2.1 -0.4,-0.8 -0.44,-1.1 -0.44,-2.4 0,-1.3 0,-1.6 0.44,-2.4 0.95,-1.9 2.92,-2.7 5.1,-2.1 1.67,0.5 2.703,2 2.863,4.1 0.22,2.9 -1.363,4.9 -3.943,5.1 -0.58,0 -1.26,0 -1.65,-0.2 z m 3.06,-1.4 c 0.77,-0.6 1.17,-1.4 1.26,-2.6 0.18,-1.8 -0.5,-3.2 -1.75,-3.8 -1.63,-0.8 -3.46,0.1 -3.96,1.8 -0.86,2.8 0.57,5.2 2.95,5.1 0.73,0 1.03,-0.2 1.5,-0.5 z m 4.153,-3.1 0,-4.6 0.64,0 0.63,0 0,1.9 0,1.9 2.37,0 2.37,0 0,-1.9 0,-1.9 0.63,0 0.63,0 0,4.6 0,4.6 -0.63,0 -0.63,0 0,-2.1 0,-2.2 -2.37,0 -2.37,0 0,2.2 0,2.1 -0.63,0 -0.64,0 0,-4.6 z m 351.69,3.7 c -0.1,-0.2 -0.14,-0.4 -0.11,-0.4 0,-0.1 1.77,-1.1 3.85,-2.3 3.49,-2 3.79,-2.1 3.98,-1.8 0.11,0.1 0.19,0.3 0.16,0.4 0,0.1 -2.59,1.6 -6.85,4.1 l -0.84,0.4 -0.19,-0.4 z m 140.96,-0.1 c -0.16,-0.4 0,-0.5 3.63,-2.6 2.09,-1.2 3.85,-2.2 3.9,-2.2 0.1,0 0.19,0.1 0.29,0.3 0.17,0.4 0.12,0.5 -0.97,1.1 -3.39,2 -6.5,3.8 -6.6,3.8 -0.1,0 -0.17,-0.2 -0.25,-0.4 z m -319.18,-0.2 c -1.02,-0.3 -1.87,-1.1 -2.37,-2.1 -0.4,-0.8 -0.45,-1.1 -0.45,-2.4 0,-1.3 0.1,-1.6 0.45,-2.4 0.94,-1.9 2.92,-2.7 5.1,-2.1 1.67,0.5 2.7,2 2.86,4.1 0.22,2.9 -1.36,4.9 -3.94,5.1 -0.58,0 -1.26,0 -1.65,-0.2 z m 3.06,-1.4 c 0.77,-0.6 1.17,-1.4 1.26,-2.6 0.18,-1.8 -0.5,-3.2 -1.75,-3.8 -1.63,-0.8 -3.46,0.1 -3.96,1.8 -0.86,2.8 0.56,5.2 2.95,5.1 0.73,0 1.04,-0.2 1.5,-0.5 z m 4.15,-3.1 0,-4.6 0.64,0 0.63,0 0,1.9 0,1.9 2.37,0 2.36,0 0,-1.9 0,-1.9 0.64,0 0.63,0 0,4.6 0,4.6 -0.63,0 -0.64,0 0,-2.2 0,-2.1 -2.36,0 -2.37,0 0,2.1 0,2.2 -0.63,0 -0.64,0 0,-4.6 z m 157.82,1.6 c -2.19,-1.3 -3.99,-2.3 -3.99,-2.4 0,0 0.11,-0.2 0.23,-0.4 0.21,-0.2 0.45,-0.1 4.3,2.1 2.24,1.3 4.09,2.3 4.12,2.4 0.13,0 -0.31,0.6 -0.49,0.6 -0.11,0 -1.99,-1 -4.17,-2.3 z m 141.17,0 c -2.21,-1.3 -4.05,-2.4 -4.08,-2.5 0,-0.1 0,-0.3 0.14,-0.4 0.19,-0.2 0.59,-0.1 4.28,2.1 2.23,1.3 4.09,2.3 4.13,2.4 0,0 0,0.2 -0.19,0.4 l -0.27,0.3 -4.01,-2.3 z m -152.54,0.5 c -1.01,-0.3 -1.86,-1 -2.37,-2.1 -0.39,-0.8 -0.44,-1 -0.44,-2.4 0,-1.3 0,-1.6 0.44,-2.4 0.95,-1.9 2.92,-2.7 5.1,-2.1 1.68,0.5 2.7,2 2.86,4.1 0.22,2.9 -1.36,4.9 -3.93,5.1 -0.58,0 -1.26,0 -1.66,-0.2 z m 3.07,-1.4 c 0.77,-0.6 1.16,-1.4 1.26,-2.6 0.17,-1.8 -0.51,-3.2 -1.75,-3.8 -1.63,-0.7 -3.46,0.1 -3.97,1.8 -0.85,2.8 0.57,5.3 2.95,5.1 0.73,0 1.05,-0.1 1.51,-0.5 z m 31,-3.1 0,-4.5 0.63,0 0.63,0 0,1.9 0,1.8 2.37,0 2.37,0 0,-1.8 0,-1.9 0.63,0 0.63,0 0,4.5 0,4.6 -0.63,0 -0.63,0 0,-2.1 0,-2.2 -2.37,0 -2.37,0 0,2.2 0,2.1 -0.63,0 -0.63,0 0,-4.6 z m 106.97,4.4 c -1.01,-0.3 -1.87,-1.1 -2.37,-2.1 -0.4,-0.8 -0.44,-1.1 -0.44,-2.4 0,-1.3 0,-1.6 0.44,-2.4 0.95,-2 2.92,-2.8 5.1,-2.1 1.67,0.5 2.7,1.9 2.86,4 0.22,3 -1.36,5 -3.93,5.2 -0.59,0 -1.27,-0.1 -1.66,-0.2 z m 3.06,-1.5 c 0.78,-0.6 1.17,-1.4 1.27,-2.5 0.17,-1.8 -0.51,-3.3 -1.76,-3.8 -1.62,-0.8 -3.46,0 -3.96,1.8 -0.85,2.8 0.57,5.2 2.95,5.1 0.73,-0.1 1.04,-0.2 1.5,-0.6 z m 30.85,-3 0,-4.6 0.63,0 0.63,0 0,1.9 0,1.9 2.37,0 2.37,0 0,-1.9 0,-1.9 0.63,0 0.63,0 0,4.6 0,4.6 -0.63,0 -0.63,0 0,-2.2 0,-2.1 -2.37,0 -2.37,0 0,2.1 0,2.2 -0.63,0 -0.63,0 0,-4.6 z m -508.243,-7.9 0,-5.7 -6.47,-14.5 -6.48,-14.5 0,-10.5 0,-10.4 -6.4,-3.7 c -6.1,-3.5 -6.4,-3.7 -6.2,-4 0.2,-0.1 0.3,-0.3 0.5,-0.2 0.1,0 3,1.7 6.5,3.7 l 6.39,3.6 0,10.3 0,10.2 9.86,-4.7 c 5.41,-2.7 9.873,-4.8 9.883,-4.7 0,0 0.13,0.2 0.23,0.3 0.2,0.4 1.53,-0.2 -12.513,6.5 -3.98,1.9 -7.2,3.5 -7.19,3.6 0,0.1 3.13,5.5 6.9,11.9 l 6.86,11.7 12.063,0 12.05,0 0,-7.2 0,-7.1 0.4,0 0.39,0 0,5.4 0,5.5 5.89,-10 c 3.24,-5.5 5.93,-10 5.96,-10.1 0,-0.2 -3.41,-1.9 -10.09,-5 l -10.16,-4.8 0.16,-0.5 0.16,-0.4 1.43,0.7 c 0.79,0.4 5.31,2.5 10.05,4.8 l 8.61,4 0,-6.9 0,-6.9 0.48,0 0.47,0 0.1,17.6 0,17.7 6.18,3.5 c 3.4,2 6.33,3.7 6.51,3.8 0.32,0.3 0.32,0.3 0.1,0.6 -0.27,0.3 -0.29,0.3 -7.02,-3.5 l -6.74,-3.9 0,-9.4 0,-9.4 -5.44,12.1 -5.43,12.1 -13.65,0 -13.633,0 0,7 0,7.1 -0.39,0 -0.4,0 0,-5.7 z m 180.683,-1 0,-5.8 -6.47,-14.5 -6.48,-14.6 0,-10.3 0,-10.4 -6.31,-3.7 c -3.46,-2 -6.31,-3.7 -6.32,-3.8 0,-0.1 0.1,-0.3 0.19,-0.4 0.19,-0.2 0.9,0.2 6.68,3.5 l 6.47,3.7 0.1,10.3 c 0,5.6 0.1,10.2 0.16,10.2 0.1,0 4.53,-2.1 9.9,-4.7 8.64,-4.2 9.81,-4.7 9.98,-4.5 0.11,0.1 0.21,0.3 0.21,0.4 0,0.1 -4.46,2.3 -9.89,4.9 -5.43,2.6 -9.9,4.8 -9.95,4.9 0,0 3.05,5.4 6.84,11.8 l 6.9,11.8 12.05,0 12.05,0 0,-7.2 0,-7.1 0.48,0 0.47,0 0,5.4 0,5.4 5.91,-10 c 3.23,-5.5 5.82,-10.1 5.76,-10.2 -0.1,0 -4.66,-2.2 -10.17,-4.8 -5.51,-2.7 -10.04,-4.8 -10.08,-4.9 0,-0.1 0.1,-0.3 0.18,-0.4 0.19,-0.3 0.9,0 10.25,4.4 5.51,2.6 10.07,4.8 10.14,4.8 0,0 0.1,-3.1 0.1,-7 l 0,-6.9 0.4,0 0.39,0 0,17.6 0,17.7 6.56,3.8 c 3.6,2 6.55,3.8 6.55,3.8 0,0.1 -0.1,0.3 -0.22,0.4 -0.19,0.3 -0.63,0.1 -6.9,-3.5 l -6.7,-3.9 -0.1,-9.5 -0.1,-9.6 -5.46,12.2 -5.47,12.1 -13.69,0.1 -13.68,0 0,7.1 0,7.1 -0.39,0 -0.4,0 0,-5.7 z m 82.16,3.5 c -0.28,-0.2 -0.63,-0.6 -0.77,-0.9 -0.24,-0.5 -0.24,-0.5 0,-0.7 0.4,-0.2 0.59,-0.1 0.79,0.4 0.24,0.5 0.59,0.7 1.26,0.7 0.94,0 1.55,-1 1.11,-1.9 -0.19,-0.3 -1.11,-0.6 -1.48,-0.5 -0.23,0.1 -0.27,0 -0.23,-0.2 0,-0.3 0.24,-0.5 0.67,-0.6 0.93,-0.3 1.15,-0.9 0.57,-1.5 -0.59,-0.6 -1.8,-0.2 -2.07,0.6 0,0.2 -0.19,0.2 -0.43,0.1 -0.46,-0.1 -0.35,-0.6 0.28,-1.2 0.64,-0.7 1.76,-0.8 2.52,-0.3 0.86,0.6 1.04,1.7 0.34,2.3 -0.3,0.3 -0.28,0.3 0.24,0.8 1.66,1.6 -0.74,4.1 -2.75,2.9 z m -206.72,-1.3 c -1.01,-0.3 -1.87,-1.1 -2.37,-2.1 -0.39,-0.8 -0.44,-1.1 -0.44,-2.4 0,-1.4 0.1,-1.6 0.44,-2.4 0.95,-2 2.93,-2.8 5.1,-2.1 1.67,0.5 2.7,1.9 2.86,4 0.22,2.9 -1.35,5 -3.93,5.1 -0.59,0.1 -1.27,0 -1.66,-0.1 z m 3.07,-1.5 c 0.76,-0.6 1.16,-1.4 1.26,-2.6 0.16,-1.7 -0.5,-3.2 -1.75,-3.8 -1.64,-0.7 -3.46,0.1 -3.97,1.9 -0.85,2.8 0.56,5.2 2.96,5.1 0.72,-0.1 1.03,-0.2 1.5,-0.6 z m 4.15,-3 0,-4.6 0.63,0 0.63,0 0,1.9 0,1.9 2.37,0 2.37,0 0,-1.9 0,-1.9 0.63,0 0.63,0 0,4.6 0,4.5 -0.63,0 -0.63,0 0,-2.1 0,-2.1 -2.37,0 -2.37,0 0,2.1 0,2.1 -0.63,0 -0.63,0 0,-4.5 z m 256.5,1.5 -4.02,-2.4 0.78,-0.2 c 0.42,-0.1 0.88,-0.2 1.01,-0.3 0.14,0 -3.86,-4.1 -11.37,-11.7 l -11.61,-11.6 -27.43,0 -27.45,0 0,-0.4 0,-0.5 27.45,0 27.43,0 12.63,-12.6 c 6.94,-7 12.59,-12.7 12.56,-12.7 -0.17,-0.2 -1.19,-0.5 -1.52,-0.5 -0.2,0 -0.38,0 -0.38,-0.1 0,-0.1 7.76,-4.8 7.85,-4.7 0.1,0.1 -4.51,7.8 -4.69,7.8 -0.1,0 -0.16,-0.1 -0.17,-0.4 0,-0.2 -0.1,-0.7 -0.19,-0.9 l -0.19,-0.6 -12.56,12.6 -12.55,12.6 11.53,11.5 c 7.44,7.4 11.56,11.4 11.64,11.3 0.1,-0.1 0.16,-0.5 0.22,-0.8 0.1,-0.4 0.14,-0.7 0.2,-0.8 0.1,-0.2 0.98,1.2 2.47,3.7 2.65,4.4 2.48,4.1 2.41,4.1 0,0 -1.84,-1.1 -4.05,-2.4 z m -83.04,1.9 c -1.01,-0.3 -1.87,-1.1 -2.37,-2.1 -0.4,-0.8 -0.44,-1.1 -0.44,-2.4 0,-1.4 0,-1.6 0.44,-2.4 0.95,-2 2.92,-2.8 5.1,-2.1 1.67,0.5 2.7,1.9 2.86,4 0.22,2.9 -1.36,5 -3.93,5.1 -0.59,0.1 -1.27,0 -1.66,-0.1 z m 3.06,-1.5 c 0.78,-0.6 1.17,-1.4 1.27,-2.6 0.17,-1.8 -0.51,-3.2 -1.76,-3.8 -1.62,-0.7 -3.46,0.1 -3.96,1.8 -0.85,2.9 0.57,5.3 2.95,5.2 0.73,-0.1 1.04,-0.2 1.5,-0.6 z m 15.26,1.5 c -1.01,-0.3 -1.86,-1.1 -2.37,-2.1 -0.39,-0.8 -0.44,-1.1 -0.44,-2.4 0,-1.4 0.1,-1.6 0.44,-2.4 0.95,-2 2.92,-2.8 5.1,-2.1 1.68,0.5 2.7,1.9 2.86,4 0.22,2.9 -1.36,5 -3.93,5.1 -0.59,0.1 -1.27,0 -1.66,-0.1 z m 3.06,-1.5 c 0.78,-0.6 1.17,-1.4 1.27,-2.6 0.17,-1.8 -0.51,-3.2 -1.76,-3.8 -1.62,-0.7 -3.46,0.1 -3.96,1.8 -0.85,2.9 0.57,5.3 2.95,5.2 0.73,-0.1 1.05,-0.2 1.5,-0.6 z m -14.01,-3 0,-4.6 2.15,0 c 1.17,0 2.45,0.1 2.84,0.2 1.65,0.4 2.34,2.5 1.33,4.2 -0.5,0.8 -1.1,1 -3.2,1.1 l -1.85,0 0,1.8 0,1.8 -0.63,0 -0.64,0 0,-4.5 z m 4.65,-0.4 c 0.98,-0.4 1.18,-2 0.33,-2.8 -0.38,-0.3 -0.59,-0.3 -2.07,-0.3 l -1.64,0 0,1.6 0,1.7 1.42,0 c 0.85,0 1.64,-0.1 1.96,-0.2 z m 18.1,-0.1 c 0,-0.4 0.46,-1 1.99,-2.5 1.42,-1.3 1.64,-1.6 1.64,-2 0,-1.1 -1.52,-1.6 -2.29,-0.8 -0.22,0.2 -0.4,0.5 -0.4,0.6 0,0.3 -0.26,0.3 -0.61,0.1 -0.25,-0.1 -0.11,-0.7 0.28,-1.2 1.33,-1.5 4.01,-0.5 3.76,1.4 -0.11,0.8 -0.63,1.5 -2,2.6 -0.62,0.5 -1.11,1 -1.11,1 0,0.1 0.71,0.2 1.58,0.2 1.58,0 1.58,0 1.58,0.4 l 0,0.3 -2.21,0 c -1.45,0 -2.21,0 -2.21,-0.1 z m 5.21,-2.3 c 0,-0.2 0.36,-0.2 2.37,-0.2 2,0 2.37,0 2.37,0.2 0,0.2 -0.37,0.2 -2.37,0.2 -2.01,0 -2.37,0 -2.37,-0.2 z M 185,577.63 c -0.36,-0.5 1.85,-3.6 4.3,-6.1 3.24,-3.3 6.55,-5.5 10.84,-7 l 1.66,-0.6 -12.28,0 -12.28,0 0,-0.5 0,-0.5 15.75,0 c 8.66,0 21.46,0 28.42,0 6.98,0.1 12.68,0 12.68,0 0,-0.1 -0.22,-0.5 -0.49,-1 -0.27,-0.5 -0.45,-0.9 -0.42,-0.9 0,0 2.07,0.5 4.55,1.2 2.48,0.6 4.39,1.2 4.26,1.3 -0.35,0.1 -8.5,2.1 -8.69,2.1 -0.1,0 0.1,-0.4 0.34,-0.8 l 0.48,-0.9 -8.35,0 -8.34,0 1.42,0.5 c 2.02,0.6 5.59,2.5 7.33,3.7 0.81,0.6 2.13,1.7 2.94,2.5 l 1.47,1.3 0.28,-0.7 c 0.14,-0.4 0.32,-0.6 0.38,-0.6 0.19,0.3 2.73,6.6 2.65,6.6 0,0.1 -1.34,-0.9 -2.89,-2.2 l -2.82,-2.3 0.61,-0.1 c 0.35,0 0.7,-0.1 0.76,-0.2 0.21,-0.2 -2.72,-2.7 -4.58,-3.9 -2.95,-2 -6.17,-3.4 -9.84,-4.2 -1.48,-0.3 -2.07,-0.3 -5.53,-0.3 -3.36,0 -4.06,0 -5.38,0.3 -3.85,0.9 -7.62,2.5 -10.57,4.6 -2.57,1.8 -5.49,4.9 -7.47,8 -0.59,0.9 -0.87,1.1 -1.19,0.7 z m -63.78,-13.9 c -1.01,-0.4 -1.87,-1.1 -2.37,-2.1 -0.4,-0.8 -0.45,-1.1 -0.45,-2.4 0,-1.4 0.1,-1.7 0.45,-2.4 0.94,-2 2.92,-2.8 5.1,-2.2 1.67,0.5 2.7,2 2.86,4.1 0.22,2.9 -1.36,5 -3.94,5.1 -0.58,0.1 -1.26,0 -1.65,-0.1 z m 3.06,-1.5 c 0.77,-0.6 1.17,-1.4 1.26,-2.6 0.18,-1.8 -0.5,-3.2 -1.75,-3.8 -1.63,-0.7 -3.46,0.1 -3.96,1.8 -0.84,2.9 0.56,5.3 2.95,5.1 0.73,0 1.04,-0.1 1.5,-0.5 z m -14.64,-3 0,-4.6 0.63,0 0.63,0 0,1.9 0,1.9 2.37,0 2.37,0 0,-1.9 0,-1.9 0.63,0 0.63,0 0,4.6 0,4.5 -0.63,0 -0.63,0 0,-2.1 0,-2.1 -2.37,0 -2.37,0 0,2.1 0,2.1 -0.63,0 -0.63,0 0,-4.5 z m 192.26,3.5 c -1.02,-0.3 -1.87,-1.1 -2.37,-2.1 -0.4,-0.8 -0.45,-1.1 -0.45,-2.4 0,-1.3 0,-1.6 0.45,-2.4 0.94,-1.9 2.92,-2.7 5.1,-2.1 1.67,0.5 2.7,2 2.86,4.1 0.22,2.9 -1.36,4.9 -3.94,5.1 -0.58,0 -1.26,0 -1.65,-0.2 z m 3.06,-1.4 c 0.77,-0.6 1.17,-1.4 1.26,-2.6 0.18,-1.8 -0.5,-3.3 -1.75,-3.8 -1.63,-0.8 -3.46,0.1 -3.96,1.8 -0.86,2.8 0.56,5.3 2.95,5.1 0.73,0 1.04,-0.2 1.5,-0.5 z m -14.64,-3.1 0,-4.6 0.63,0 0.63,0 0,1.9 0,1.9 2.37,0 2.37,0 0,-1.9 0,-1.9 0.63,0 0.63,0 0,4.6 0,4.6 -0.63,0 -0.63,0 0,-2.1 0,-2.2 -2.37,0 -2.37,0 0,2.2 0,2.1 -0.63,0 -0.63,0 0,-4.6 z m -88.6,-4.1 0,-4.6 3.08,0 3.08,0 0,0.8 0,0.8 -2.21,0 -2.22,0 0,1 0,1.1 1.98,0 1.97,0 0,0.7 0,0.8 -1.97,0 -1.98,0 0,2 0,2 -0.86,0 -0.87,0 0,-4.6 z m 7.74,0 0,-4.6 0.86,0 0.86,0 0,2.1 0,2.1 1.88,-2.1 1.9,-2.1 1.18,0 1.2,0 -1.72,1.7 c -1.55,1.6 -1.69,1.8 -1.53,2.1 0.11,0.2 0.9,1.4 1.75,2.8 0.87,1.3 1.58,2.5 1.58,2.5 0,0.1 -0.44,0.1 -0.99,0.1 l -0.98,0 -1.27,-2 c -0.69,-1.1 -1.31,-2.1 -1.37,-2.2 -0.1,-0.1 -0.43,0.1 -0.92,0.6 l -0.79,0.8 0,1.4 0,1.4 -0.87,0 -0.86,0 0,-4.6 z m 136.22,1 c 0.22,-0.6 0.99,-2.6 1.72,-4.6 l 1.31,-3.4 0.91,0 0.9,0 1.41,3.7 c 0.77,2 1.55,4.1 1.72,4.5 l 0.32,0.9 -0.94,0 -0.93,0 -0.34,-1.1 -0.35,-1 -1.79,0 -1.78,0 -0.35,1 -0.35,1.1 -0.93,0 -0.93,0 0.4,-1.1 z m 5.13,-2.6 c 0,0 -0.27,-0.8 -0.6,-1.7 l -0.6,-1.6 -0.57,1.7 -0.59,1.6 1.17,0 c 0.65,0 1.19,0 1.19,0 z m 4.58,-0.9 0,-4.6 0.87,0 0.87,0 0,3.8 0,3.8 2.36,0 2.37,0 0,0.8 0,0.8 -3.23,0 -3.24,0 0,-4.6 z m 7.74,0 0,-4.6 2.56,0 c 2.4,0.1 2.62,0.1 3.25,0.5 2.23,1.2 2.64,5.7 0.69,7.7 -0.8,0.7 -1.65,1 -4.24,1 l -2.26,0 0,-4.6 z m 4.81,2.7 c 0.86,-0.3 1.11,-1 1.11,-2.8 0,-1.3 -0.1,-1.6 -0.33,-1.9 -0.52,-0.8 -1.25,-1 -2.64,-1 l -1.22,0 0,3 0,3 1.27,0 c 0.74,0 1.5,-0.1 1.81,-0.3 z m 8.45,-2.7 0,-4.6 2.57,0 c 2.91,0 3.51,0.1 4.2,0.8 0.84,0.9 0.81,2.3 -0.1,3.1 l -0.4,0.4 0.45,0.3 c 0.53,0.3 0.98,1.2 0.98,1.9 0,0.8 -0.62,1.9 -1.27,2.3 -0.49,0.2 -0.88,0.3 -3.5,0.3 l -2.97,0.1 0,-4.6 z m 5.27,2.8 c 0.51,-0.2 0.81,-0.8 0.67,-1.3 -0.16,-0.7 -0.92,-0.9 -2.7,-0.9 l -1.51,0 0,1.2 0,1.2 1.57,0 c 0.87,0 1.75,-0.1 1.97,-0.2 z m 0,-4.1 c 0.46,-0.4 0.52,-0.9 0.19,-1.3 -0.19,-0.3 -0.46,-0.4 -1.97,-0.4 l -1.76,-0.1 0,1.1 0,1 1.57,0 c 1.32,0 1.61,0 1.97,-0.3 z m -9.85,2.7 0,-0.8 1.73,0 1.74,0 0,0.8 0,0.8 -1.74,0 -1.73,0 0,-0.8 z m -263.86,-5 c -1.01,-0.3 -1.86,-1.1 -2.37,-2.1 -0.39,-0.8 -0.44,-1.1 -0.44,-2.4 0,-1.3 0.1,-1.6 0.44,-2.4 0.95,-1.9 2.92,-2.7 5.1,-2.1 1.68,0.5 2.7,2 2.86,4.1 0.22,2.9 -1.36,4.9 -3.93,5.1 -0.59,0 -1.27,0 -1.66,-0.2 z m 3.06,-1.4 c 0.78,-0.6 1.17,-1.4 1.27,-2.6 0.17,-1.8 -0.51,-3.2 -1.76,-3.8 -1.62,-0.8 -3.46,0.1 -3.96,1.8 -0.84,2.8 0.57,5.3 2.95,5.1 0.73,0 1.05,-0.1 1.5,-0.5 z m 177.78,0.3 c -1.01,-0.3 -1.87,-1.1 -2.37,-2.1 -0.4,-0.8 -0.44,-1.1 -0.44,-2.4 0,-1.3 0,-1.6 0.44,-2.4 0.94,-1.9 2.92,-2.7 5.1,-2.1 1.67,0.5 2.7,2 2.86,4.1 0.22,2.9 -1.36,4.9 -3.94,5.1 -0.58,0 -1.26,0 -1.65,-0.2 z m 3.06,-1.4 c 0.77,-0.6 1.17,-1.4 1.26,-2.6 0.18,-1.8 -0.5,-3.2 -1.75,-3.8 -1.63,-0.8 -3.46,0.1 -3.96,1.8 -0.86,2.8 0.57,5.3 2.95,5.1 0.73,0 1.04,-0.2 1.5,-0.5 z m 297.63,0.8 c -0.37,-0.1 -0.81,-0.5 -0.97,-0.7 -0.28,-0.4 -0.72,-1.6 -0.61,-1.7 0,0 0.37,-0.1 0.79,-0.1 0.71,-0.1 0.75,-0.1 0.85,0.3 0.1,0.2 0.28,0.5 0.49,0.7 0.6,0.4 1.25,0.4 1.81,-0.2 0.45,-0.4 0.48,-0.5 0.4,-1.2 -0.14,-1.2 -1.15,-1.7 -2.28,-1 -0.41,0.3 -0.67,0.3 -1.23,0.2 -0.39,0 -0.71,-0.1 -0.71,-0.1 0,0 0.22,-1.1 0.48,-2.5 0.25,-1.3 0.47,-2.4 0.47,-2.4 0,-0.1 1.03,-0.1 2.29,-0.1 l 2.29,0 0,0.9 0,0.9 -1.56,0 -1.57,0 -0.11,0.5 c -0.1,0.3 -0.14,0.6 -0.17,0.7 -0.1,0.3 0,0.3 0.54,0.1 1.72,-0.4 3.34,1 3.34,2.9 0,2.4 -2.44,3.9 -4.54,2.8 z m -141.83,-2.3 c -0.74,-0.4 -1.36,-1.2 -1.53,-2 -0.1,-0.5 -0.1,-0.5 0.28,-0.5 0.21,0 0.62,-0.1 0.88,-0.1 0.38,-0.1 0.49,-0.1 0.49,0.1 0,0.1 0.19,0.5 0.42,0.7 0.6,0.8 1.46,0.7 1.87,-0.1 0.59,-1.1 0,-2.3 -1.12,-2.2 -0.55,0.1 -0.57,0.1 -0.47,-0.4 0,-0.2 0.1,-0.5 0.1,-0.7 0,-0.1 0.15,-0.2 0.32,-0.2 0.79,0 1.25,-1.2 0.66,-1.8 -0.55,-0.5 -1.29,-0.2 -1.53,0.6 -0.1,0.2 -0.19,0.3 -0.84,0.2 -0.41,-0.1 -0.8,-0.2 -0.88,-0.3 -0.1,0 0,-0.4 0.24,-0.8 0.28,-0.6 0.55,-0.9 1.09,-1.2 2.46,-1.2 5.16,1.5 3.31,3.4 l -0.49,0.5 0.57,0.3 c 0.71,0.5 1.09,1.3 0.98,2.2 -0.22,2 -2.48,3.2 -4.34,2.3 z m -313.33,-4.5 c -1.01,-0.3 -1.86,-1.1 -2.36,-2.1 -0.4,-0.8 -0.45,-1.1 -0.45,-2.4 0,-1.3 0.1,-1.6 0.45,-2.4 0.94,-1.9 2.92,-2.8 5.1,-2.1 1.67,0.5 2.7,1.9 2.86,4 0.22,3 -1.36,5 -3.94,5.2 -0.58,0 -1.26,-0.1 -1.66,-0.2 z m 3.07,-1.4 c 0.77,-0.7 1.17,-1.5 1.26,-2.6 0.18,-1.8 -0.5,-3.3 -1.75,-3.8 -1.63,-0.8 -3.46,0.1 -3.97,1.8 -0.83,2.8 0.57,5.2 2.96,5.1 0.72,-0.1 1.04,-0.2 1.5,-0.5 z m 4.15,-3.1 0,-4.6 0.63,0 0.64,0 0,1.9 0,1.9 2.36,0 2.37,0 0,-1.9 0,-1.9 0.64,0 0.63,0 0,4.6 0,4.6 -0.63,0 -0.64,0 0,-2.2 0,-2.1 -2.37,0 -2.36,0 0,2.1 0,2.2 -0.64,0 -0.63,0 0,-4.6 z m 173.46,3.6 c -1.01,-0.4 -1.86,-1.1 -2.37,-2.2 -0.39,-0.7 -0.44,-1 -0.44,-2.4 0,-1.3 0,-1.6 0.44,-2.4 0.95,-1.9 2.93,-2.7 5.11,-2.1 1.67,0.5 2.7,2 2.85,4.1 0.23,2.9 -1.35,5 -3.93,5.1 -0.58,0.1 -1.26,0 -1.66,-0.1 z m 3.07,-1.5 c 0.77,-0.6 1.17,-1.4 1.26,-2.6 0.18,-1.8 -0.5,-3.2 -1.75,-3.8 -1.63,-0.7 -3.46,0.1 -3.97,1.8 -0.85,2.9 0.57,5.3 2.96,5.1 0.72,0 1.04,-0.1 1.5,-0.5 z m 4.15,-3.1 0,-4.5 0.63,0 0.64,0 0,1.9 0,1.9 2.36,0 2.37,0 0,-1.9 0,-1.9 0.63,0 0.64,0 0,4.5 0,4.6 -0.64,0 -0.63,0 0,-2.1 0,-2.1 -2.37,0 -2.36,0 0,2.1 0,2.1 -0.64,0 -0.63,0 0,-4.6 z m 248,-4.6 c -1.01,-0.3 -1.86,-1.1 -2.37,-2.1 -0.39,-0.8 -0.44,-1.1 -0.44,-2.4 0,-1.3 0.1,-1.6 0.44,-2.4 0.95,-2 2.93,-2.8 5.1,-2.1 1.68,0.5 2.71,1.9 2.86,4 0.22,3 -1.35,5 -3.93,5.2 -0.58,0 -1.26,-0.1 -1.66,-0.2 z m 3.07,-1.5 c 0.77,-0.6 1.17,-1.4 1.26,-2.5 0.17,-1.8 -0.51,-3.3 -1.75,-3.8 -1.63,-0.8 -3.46,0 -3.97,1.8 -0.85,2.8 0.57,5.2 2.96,5.1 0.72,-0.1 1.04,-0.2 1.5,-0.6 z m 30.84,-3 0,-4.6 0.63,0 0.63,0 0,1.9 0,1.9 2.37,0 2.37,0 0,-1.9 0,-1.9 0.63,0 0.64,0 0,4.6 0,4.6 -0.64,0 -0.63,0 0,-2.2 0,-2.1 -2.37,0 -2.37,0 0,2.1 0,2.2 -0.63,0 -0.63,0 0,-4.6 z m -540.073,4.2 c -1,-0.3 -1.9,-1.1 -2.4,-2.1 -0.4,-0.8 -0.4,-1.1 -0.4,-2.4 0,-1.4 0,-1.6 0.4,-2.4 1,-2 2.9,-2.8 5.1,-2.1 1.7,0.5 2.7,1.9 2.9,4 0.2,2.9 -1.4,5 -4,5.1 -0.5,0.1 -1.2,0 -1.6,-0.1 z m 3,-1.5 c 0.8,-0.6 1.2,-1.4 1.3,-2.6 0.2,-1.7 -0.5,-3.2 -1.7,-3.8 -1.7,-0.7 -3.5,0.1 -4,1.8 -0.9,2.9 0.6,5.3 2.9,5.2 0.8,-0.1 1.1,-0.2 1.5,-0.6 z m -14.6,-3 0,-4.6 0.6,0 0.7,0 0,1.9 0,1.9 2.3,0 2.4,0 0,-1.9 0,-1.9 0.6,0 0.7,0 0,4.6 0,4.5 -0.7,0 -0.6,0 0,-2.1 0,-2.1 -2.4,0 -2.3,0 0,2.1 0,2.1 -0.7,0 -0.6,0 0,-4.5 z m 192.423,3.5 c -1.01,-0.3 -1.86,-1.1 -2.37,-2.1 -0.39,-0.8 -0.44,-1.1 -0.44,-2.4 0,-1.3 0,-1.6 0.44,-2.4 0.95,-1.9 2.92,-2.7 5.1,-2.1 1.68,0.5 2.7,2 2.86,4.1 0.22,2.9 -1.36,4.9 -3.93,5.1 -0.59,0 -1.27,0 -1.66,-0.2 z m 3.06,-1.4 c 0.78,-0.6 1.17,-1.4 1.27,-2.6 0.17,-1.8 -0.51,-3.2 -1.76,-3.8 -1.62,-0.8 -3.45,0.1 -3.96,1.8 -0.85,2.8 0.57,5.3 2.95,5.1 0.73,0 1.05,-0.1 1.5,-0.5 z m -14.79,-3.1 0,-4.6 0.63,0 0.63,0 0,1.9 0,1.9 2.37,0 2.37,0 0,-1.9 0,-1.9 0.63,0 0.63,0 0,4.6 0,4.6 -0.63,0 -0.63,0 0,-2.1 0,-2.2 -2.37,0 -2.37,0 0,2.2 0,2.1 -0.63,0 -0.63,0 0,-4.6 z m 344.16,-0.5 c -0.12,-0.2 -0.15,-0.4 -0.1,-0.4 0.29,-0.3 7.92,-4.6 8.08,-4.6 0.26,0 0.41,0.6 0.17,0.8 -0.4,0.3 -7.87,4.6 -7.91,4.6 0,0 -0.15,-0.2 -0.26,-0.4 z m -114.37,-1.5 c 0,-0.4 0.45,-1 1.99,-2.5 1.42,-1.3 1.64,-1.6 1.64,-2.1 0,-1 -1.52,-1.5 -2.29,-0.7 -0.22,0.2 -0.4,0.5 -0.4,0.6 0,0.3 -0.26,0.3 -0.61,0.1 -0.25,-0.2 -0.11,-0.7 0.28,-1.2 1.33,-1.5 4.01,-0.5 3.76,1.4 -0.11,0.8 -0.63,1.4 -2,2.6 -0.62,0.5 -1.11,0.9 -1.11,1 0,0.1 0.71,0.1 1.58,0.1 1.58,0 1.58,0 1.58,0.4 l 0,0.4 -2.21,0 c -1.46,0 -2.21,0 -2.21,-0.1 z m 135.6,-1.9 c -1.91,-1.1 -3.49,-2.1 -3.52,-2.2 0,-0.1 0,-0.3 0.14,-0.4 0.19,-0.2 0.54,-0.1 3.73,1.8 1.92,1.1 3.55,2 3.6,2.1 0.11,0.1 -0.22,0.7 -0.38,0.7 -0.1,0 -1.67,-0.9 -3.57,-2 z m -22.81,0.7 c -0.17,-0.4 -0.11,-0.4 2.07,-1.7 1.24,-0.7 3.08,-1.8 4.09,-2.4 l 1.85,-1 0.24,0.3 c 0.14,0.3 0.19,0.5 0.13,0.5 -1.16,0.7 -8.12,4.7 -8.15,4.7 0,0 -0.13,-0.2 -0.23,-0.4 z m -128,-1.4 c -1,-0.4 -1.52,-0.9 -2.13,-2.2 -0.37,-0.7 -0.43,-1 -0.43,-2.3 0,-1.7 0.33,-2.7 1.15,-3.6 0.95,-1 2.7,-1.4 4.12,-1 0.82,0.2 1.82,1.1 2.15,1.9 l 0.24,0.6 -0.6,0.2 c -0.32,0 -0.6,0.1 -0.63,0 -0.16,-0.5 -0.75,-1.2 -1.17,-1.5 -1.16,-0.7 -2.91,-0.1 -3.6,1.1 -0.35,0.7 -0.4,1 -0.4,2.3 0,1.3 0,1.6 0.4,2.2 0.52,0.9 1.5,1.4 2.57,1.3 0.95,0 1.5,-0.4 2.01,-1.4 0.38,-0.7 0.41,-0.7 0.94,-0.6 0.3,0 0.57,0.1 0.6,0.1 0.18,0.2 -0.74,1.8 -1.24,2.2 -1.01,0.9 -2.66,1.1 -3.98,0.7 z m 23.62,0 c -1.01,-0.3 -1.86,-1.1 -2.36,-2.1 -0.4,-0.8 -0.45,-1.1 -0.45,-2.4 0,-1.4 0.1,-1.6 0.45,-2.4 0.94,-2 2.92,-2.8 5.1,-2.1 1.67,0.5 2.7,1.9 2.86,4 0.22,2.9 -1.36,5 -3.94,5.1 -0.58,0.1 -1.26,0 -1.66,-0.1 z m 3.07,-1.5 c 0.77,-0.6 1.17,-1.4 1.26,-2.6 0.18,-1.7 -0.5,-3.2 -1.75,-3.8 -1.63,-0.7 -3.46,0.1 -3.97,1.8 -0.85,2.9 0.57,5.3 2.96,5.2 0.72,-0.1 1.04,-0.2 1.5,-0.6 z m 114.03,1.5 c -1,-0.4 -1.52,-0.9 -2.13,-2.2 -0.37,-0.7 -0.43,-1 -0.43,-2.3 0,-1.7 0.33,-2.7 1.15,-3.6 0.95,-1 2.7,-1.4 4.12,-1 0.83,0.2 1.82,1.1 2.15,1.9 l 0.24,0.6 -0.6,0.2 c -0.32,0.1 -0.6,0.1 -0.63,0 -0.16,-0.5 -0.74,-1.2 -1.17,-1.5 -1.15,-0.6 -2.91,-0.1 -3.6,1.2 -0.35,0.6 -0.4,0.9 -0.4,2.2 0,1.3 0,1.6 0.4,2.2 0.52,0.9 1.5,1.4 2.57,1.4 0.95,-0.1 1.5,-0.5 2.01,-1.5 0.38,-0.7 0.41,-0.7 0.95,-0.6 0.3,0 0.56,0.1 0.6,0.1 0.17,0.2 -0.75,1.8 -1.25,2.2 -1.01,0.9 -2.65,1.2 -3.98,0.7 z m -134.04,-4.5 0,-4.6 0.63,0 0.63,0 0,1.9 0,1.9 2.37,0 2.37,0 0,-1.9 0,-1.9 0.63,0 0.63,0 0,4.6 0,4.5 -0.63,0 -0.63,0 0,-2.1 0,-2.1 -2.37,0 -2.37,0 0,2.1 0,2.1 -0.63,0 -0.63,0 0,-4.5 z m 24.16,0 0,-4.6 0.63,0 0.64,0 0,1.9 0,1.9 2.36,0 2.37,0 0,-1.9 0,-1.9 0.64,0 0.63,0 0,4.6 0,4.5 -0.63,0 -0.64,0 0,-2.1 0,-2.1 -2.37,0 -2.36,0 0,2.1 0,2.1 -0.64,0 -0.63,0 0,-4.5 z m -30.01,-10.5 0,-4.5 0.48,0 0.47,0 0,4.5 0,4.6 -0.47,0 -0.48,0 0,-4.6 z m 140.73,0 0,-4.5 0.47,0 0.47,0 0,4.5 0,4.6 -0.47,0 -0.47,0 0,-4.6 z m -141.56,-5.9 c -1,-0.3 -1.52,-0.9 -2.13,-2.1 -0.37,-0.8 -0.43,-1.1 -0.43,-2.4 0,-1.6 0.33,-2.6 1.15,-3.5 0.95,-1 2.7,-1.5 4.12,-1.1 0.82,0.2 1.82,1.1 2.15,2 l 0.24,0.5 -0.6,0.2 c -0.32,0.1 -0.6,0.1 -0.63,0.1 -0.16,-0.5 -0.75,-1.2 -1.17,-1.5 -1.16,-0.7 -2.91,-0.2 -3.6,1.1 -0.35,0.6 -0.4,0.9 -0.4,2.2 0,1.3 0,1.6 0.4,2.2 0.52,1 1.5,1.5 2.57,1.4 0.95,-0.1 1.5,-0.5 2.01,-1.4 0.38,-0.8 0.41,-0.8 0.94,-0.7 0.3,0.1 0.57,0.1 0.6,0.2 0.18,0.1 -0.74,1.7 -1.24,2.2 -1.01,0.8 -2.66,1.1 -3.98,0.6 z m 20.62,0 c -1.01,-0.3 -1.86,-1.1 -2.37,-2.1 -0.39,-0.8 -0.44,-1.1 -0.44,-2.4 0,-1.3 0.1,-1.6 0.44,-2.4 0.95,-1.9 2.93,-2.7 5.11,-2.1 1.67,0.5 2.7,2 2.85,4.1 0.23,2.9 -1.35,4.9 -3.93,5.1 -0.58,0 -1.26,0 -1.66,-0.2 z m 3.07,-1.4 c 0.77,-0.6 1.17,-1.4 1.26,-2.6 0.17,-1.8 -0.5,-3.2 -1.75,-3.8 -1.63,-0.8 -3.46,0.1 -3.97,1.8 -0.85,2.8 0.57,5.3 2.96,5.1 0.72,0 1.04,-0.1 1.5,-0.5 z m 117.03,1.4 c -1,-0.3 -1.52,-0.8 -2.13,-2.1 -0.37,-0.8 -0.43,-1.1 -0.43,-2.4 0,-1.6 0.33,-2.6 1.15,-3.5 0.95,-1 2.7,-1.5 4.12,-1.1 0.83,0.3 1.82,1.1 2.15,2 l 0.24,0.6 -0.6,0.1 c -0.32,0.1 -0.6,0.1 -0.63,0.1 -0.16,-0.5 -0.74,-1.2 -1.17,-1.5 -1.15,-0.7 -2.91,-0.2 -3.6,1.1 -0.35,0.6 -0.4,0.9 -0.4,2.2 0,1.3 0,1.6 0.4,2.2 0.52,1 1.5,1.5 2.57,1.4 0.95,-0.1 1.5,-0.5 2.01,-1.4 0.38,-0.7 0.41,-0.8 0.95,-0.7 0.3,0.1 0.56,0.1 0.6,0.2 0.17,0.1 -0.75,1.7 -1.25,2.2 -1.01,0.8 -2.65,1.1 -3.98,0.6 z m 20.78,0 c -1.01,-0.3 -1.86,-1.1 -2.37,-2.1 -0.39,-0.8 -0.44,-1.1 -0.44,-2.4 0,-1.3 0.1,-1.6 0.44,-2.4 0.95,-1.9 2.93,-2.7 5.11,-2.1 1.67,0.5 2.7,2 2.85,4.1 0.22,2.9 -1.35,4.9 -3.93,5.1 -0.58,0 -1.26,0 -1.66,-0.2 z m 3.07,-1.4 c 0.77,-0.6 1.17,-1.4 1.26,-2.6 0.17,-1.8 -0.51,-3.2 -1.75,-3.8 -1.63,-0.7 -3.46,0.1 -3.97,1.8 -0.85,2.8 0.57,5.3 2.96,5.1 0.72,0 1.04,-0.1 1.5,-0.5 z m -35.33,-3.1 0,-4.6 0.63,0 0.63,0 0,1.9 0,1.9 2.37,0 2.37,0 0,-1.9 0,-1.9 0.63,0 0.63,0 0,4.6 0,4.6 -0.63,0 -0.63,0 0,-2.1 0,-2.2 -2.37,0 -2.37,0 0,2.2 0,2.1 -0.63,0 -0.63,0 0,-4.6 z m 39.48,0 0,-4.6 0.63,0 0.63,0 0,1.9 0,1.9 2.37,0 2.37,0 0,-1.9 0,-1.9 0.63,0 0.64,0 0,4.6 0,4.6 -0.64,0 -0.63,0 0,-2.1 0,-2.2 -2.37,0 -2.37,0 0,2.2 0,2.1 -0.63,0 -0.63,0 0,-4.6 z M 516,495.93 c -2.3,-0.8 -4.25,-1.4 -4.34,-1.5 -0.11,-0.1 1.77,-0.2 5.83,-0.1 3.3,0.1 14.12,0.1 24.05,0.1 l 18.05,0 0,0.5 0,0.4 -19.9,0 c -10.94,0 -19.9,0.1 -19.9,0.1 0,0 0.18,0.5 0.4,1 0.25,0.5 0.33,0.8 0.19,0.8 -0.1,0 -2.07,-0.6 -4.38,-1.3 z m -61.75,-1.1 0,-0.4 4.97,0 4.98,0 0,0.4 0,0.4 -4.98,0 -4.97,0 0,-0.4 z m 140.72,-1.6 0,-0.4 5.06,0 5.05,0 0,0.4 0,0.4 -5.05,0 -5.06,0 0,-0.4 z m -82.13,-1 0,-0.5 20.06,0 c 11.04,0 20.06,0 20.06,-0.1 0,-0.1 -0.22,-0.5 -0.47,-1 -0.27,-0.4 -0.46,-0.9 -0.43,-0.9 0,0 8.83,2.8 8.94,2.9 0,0 -10.79,0.1 -24.04,0.1 l -24.12,0 0,-0.5 z m -58.59,-0.6 0,-0.4 4.97,0 4.98,0 0,0.4 0,0.4 -4.98,0 -4.97,0 0,-0.4 z m -5.69,-8.3 0,-4.5 0.48,0 0.47,0 0,4.5 0,4.5 -0.47,0 -0.48,0 0,-4.5 z m 140.73,0 0,-4.5 0.47,0 0.47,0 0,4.5 0,4.5 -0.47,0 -0.47,0 0,-4.5 z m -60.81,0 0,-3.7 -1.34,0 -1.34,0 0,-0.8 0,-0.8 3.55,0 3.55,0 0,0.8 0,0.8 -1.34,0 -1.34,0 0,3.7 0,3.8 -0.87,0 -0.87,0 0,-3.8 z m 5.69,-0.8 0,-4.6 2.57,0.1 c 2.99,0.1 3.43,0.2 4.03,1.4 0.63,1.2 0.39,2.7 -0.59,3.5 -0.66,0.6 -1.4,0.8 -2.97,0.8 l -1.31,0 0,1.7 0,1.7 -0.87,0 -0.86,0 0,-4.6 z m 4.35,-0.6 c 0.53,-0.2 0.84,-0.6 0.86,-1 0,-1 -0.62,-1.3 -2.29,-1.3 l -1.19,0 0,1.2 0,1.3 1.09,0 c 0.6,0 1.3,-0.1 1.53,-0.2 z m 4.02,0.7 0,-4.6 0.86,0 0.87,0 0,4.6 0,4.5 -0.87,0 -0.86,0 0,-4.5 z m -79.6,-2.9 c 0,-0.4 0.45,-1 1.99,-2.4 1.42,-1.4 1.64,-1.7 1.64,-2.1 0,-1.1 -1.52,-1.6 -2.29,-0.8 -0.22,0.2 -0.4,0.5 -0.4,0.6 0,0.3 -0.26,0.4 -0.61,0.2 -0.25,-0.2 -0.11,-0.8 0.28,-1.2 1.33,-1.5 4.01,-0.6 3.76,1.3 -0.11,0.8 -0.63,1.5 -2,2.6 -0.62,0.5 -1.11,1 -1.11,1.1 0,0 0.71,0.1 1.58,0.1 1.58,0 1.58,0 1.58,0.4 l 0,0.4 -2.21,0 c -1.46,0 -2.21,-0.1 -2.21,-0.2 z m 34.46,-0.1 c -0.29,-0.2 -0.63,-0.6 -0.78,-0.9 -0.23,-0.5 -0.23,-0.6 0,-0.7 0.39,-0.3 0.58,-0.2 0.79,0.3 0.23,0.6 0.58,0.8 1.26,0.8 0.93,0 1.55,-1.1 1.11,-1.9 -0.19,-0.4 -1.11,-0.7 -1.49,-0.5 -0.22,0 -0.27,0 -0.22,-0.3 0,-0.2 0.24,-0.4 0.66,-0.6 0.94,-0.3 1.16,-0.9 0.57,-1.5 -0.58,-0.5 -1.8,-0.2 -2.07,0.7 0,0.1 -0.19,0.1 -0.42,0.1 -0.46,-0.2 -0.35,-0.6 0.28,-1.3 0.63,-0.6 1.75,-0.7 2.51,-0.2 0.87,0.6 1.04,1.7 0.35,2.3 -0.3,0.2 -0.28,0.2 0.24,0.7 1.65,1.6 -0.75,4.2 -2.75,3 z m 106.26,0.1 c 0,-0.4 0.46,-1 1.99,-2.4 1.42,-1.4 1.64,-1.7 1.64,-2.1 0,-1.1 -1.52,-1.6 -2.29,-0.8 -0.22,0.2 -0.39,0.5 -0.39,0.6 0,0.3 -0.27,0.4 -0.62,0.2 -0.25,-0.2 -0.11,-0.8 0.28,-1.2 1.33,-1.5 4.02,-0.6 3.76,1.3 -0.11,0.8 -0.63,1.5 -2,2.6 -0.62,0.5 -1.11,1 -1.11,1.1 0,0 0.71,0.1 1.58,0.1 1.58,0 1.58,0 1.58,0.4 l 0,0.4 -2.21,0 c -1.45,0 -2.21,-0.1 -2.21,-0.2 z m 34.46,-0.1 c -0.28,-0.2 -0.63,-0.6 -0.77,-0.9 -0.24,-0.5 -0.24,-0.6 -0.1,-0.7 0.39,-0.3 0.58,-0.2 0.79,0.3 0.23,0.6 0.58,0.8 1.26,0.8 0.93,0 1.55,-1.1 1.11,-1.9 -0.19,-0.4 -1.11,-0.7 -1.49,-0.5 -0.22,0 -0.27,0 -0.22,-0.3 0,-0.2 0.24,-0.4 0.66,-0.6 0.94,-0.3 1.16,-0.9 0.57,-1.5 -0.58,-0.5 -1.8,-0.2 -2.07,0.7 0,0.1 -0.19,0.1 -0.42,0.1 -0.46,-0.2 -0.35,-0.6 0.28,-1.3 0.63,-0.6 1.76,-0.7 2.51,-0.2 0.87,0.6 1.05,1.7 0.35,2.3 -0.3,0.2 -0.28,0.2 0.24,0.7 1.66,1.6 -0.74,4.2 -2.75,3 z m -190.39,-2.5 c -1,-0.3 -1.52,-0.9 -2.13,-2.1 -0.37,-0.8 -0.43,-1.1 -0.43,-2.4 0,-1.7 0.33,-2.6 1.15,-3.5 0.95,-1 2.7,-1.5 4.12,-1.1 0.82,0.2 1.82,1.1 2.15,2 l 0.24,0.5 -0.6,0.2 c -0.32,0.1 -0.6,0.1 -0.63,0 -0.16,-0.4 -0.75,-1.1 -1.17,-1.4 -1.16,-0.7 -2.91,-0.2 -3.6,1.1 -0.35,0.6 -0.4,0.9 -0.4,2.2 0,1.3 0,1.6 0.4,2.2 0.52,1 1.5,1.5 2.57,1.4 0.95,-0.1 1.5,-0.5 2.01,-1.4 0.38,-0.8 0.41,-0.8 0.94,-0.7 0.3,0.1 0.57,0.1 0.6,0.2 0.18,0.1 -0.74,1.7 -1.24,2.2 -1.01,0.8 -2.66,1.1 -3.98,0.6 z m 23.62,0 c -1.01,-0.3 -1.86,-1.1 -2.36,-2.1 -0.4,-0.8 -0.45,-1.1 -0.45,-2.4 0,-1.3 0.1,-1.6 0.45,-2.4 0.94,-1.9 2.92,-2.7 5.1,-2.1 1.67,0.5 2.7,2 2.86,4.1 0.22,2.9 -1.36,4.9 -3.94,5.1 -0.58,0 -1.26,0 -1.66,-0.2 z m 3.07,-1.4 c 0.77,-0.6 1.17,-1.4 1.26,-2.6 0.18,-1.8 -0.5,-3.2 -1.75,-3.8 -1.63,-0.8 -3.46,0.1 -3.97,1.8 -0.85,2.8 0.57,5.3 2.96,5.1 0.72,0 1.04,-0.2 1.5,-0.5 z m 15.26,1.4 c -1.02,-0.3 -1.87,-1.1 -2.37,-2.1 -0.4,-0.8 -0.45,-1.1 -0.45,-2.4 0,-1.3 0,-1.6 0.45,-2.4 0.94,-1.9 2.92,-2.7 5.1,-2.1 1.67,0.5 2.7,2 2.86,4.1 0.22,2.9 -1.36,4.9 -3.94,5.1 -0.58,0 -1.26,0 -1.65,-0.2 z m 3.06,-1.4 c 0.77,-0.6 1.17,-1.4 1.26,-2.6 0.18,-1.8 -0.5,-3.2 -1.75,-3.8 -1.63,-0.8 -3.46,0.1 -3.96,1.8 -0.86,2.8 0.56,5.3 2.95,5.1 0.73,0 1.04,-0.2 1.5,-0.5 z m 95.71,1.4 c -1,-0.3 -1.52,-0.9 -2.13,-2.1 -0.37,-0.8 -0.43,-1.1 -0.43,-2.4 0,-1.6 0.33,-2.6 1.15,-3.5 0.95,-1 2.7,-1.5 4.12,-1.1 0.83,0.2 1.82,1.1 2.15,2 l 0.24,0.5 -0.6,0.2 c -0.32,0.1 -0.6,0.1 -0.63,0.1 -0.16,-0.5 -0.74,-1.2 -1.17,-1.5 -1.15,-0.7 -2.91,-0.2 -3.6,1.1 -0.35,0.6 -0.4,0.9 -0.4,2.2 0,1.3 0,1.6 0.4,2.2 0.52,1 1.5,1.5 2.57,1.4 0.95,-0.1 1.5,-0.5 2.01,-1.4 0.38,-0.8 0.41,-0.8 0.95,-0.7 0.3,0.1 0.56,0.1 0.6,0.2 0.17,0.1 -0.75,1.7 -1.25,2.2 -1.01,0.8 -2.65,1.1 -3.98,0.6 z m 23.63,0 c -1.02,-0.3 -1.87,-1.1 -2.37,-2.1 -0.4,-0.8 -0.45,-1.1 -0.45,-2.4 0,-1.3 0.1,-1.6 0.45,-2.4 0.94,-1.9 2.92,-2.7 5.1,-2.1 1.67,0.5 2.7,2 2.86,4.1 0.22,2.9 -1.36,4.9 -3.94,5.1 -0.58,0 -1.26,0 -1.65,-0.2 z m 3.06,-1.4 c 0.77,-0.6 1.17,-1.4 1.26,-2.6 0.18,-1.8 -0.5,-3.2 -1.75,-3.8 -1.63,-0.8 -3.46,0.1 -3.96,1.8 -0.86,2.8 0.56,5.3 2.95,5.1 0.73,0 1.04,-0.1 1.5,-0.5 z m 15.26,1.4 c -1.01,-0.3 -1.87,-1.1 -2.37,-2.1 -0.4,-0.8 -0.44,-1.1 -0.44,-2.4 0,-1.3 0,-1.6 0.44,-2.4 0.94,-1.9 2.92,-2.7 5.1,-2.1 1.67,0.5 2.7,2 2.86,4.1 0.22,2.9 -1.36,4.9 -3.94,5.1 -0.58,0 -1.26,0 -1.65,-0.2 z m 3.06,-1.4 c 0.77,-0.6 1.17,-1.4 1.26,-2.6 0.18,-1.8 -0.5,-3.2 -1.75,-3.8 -1.63,-0.8 -3.46,0.1 -3.96,1.8 -0.86,2.8 0.57,5.3 2.95,5.1 0.73,0 1.04,-0.1 1.5,-0.5 z m -179.05,-3.1 0,-4.6 0.63,0 0.63,0 0,1.9 0,1.9 2.37,0 2.37,0 0,-1.9 0,-1.9 0.63,0 0.63,0 0,4.6 0,4.6 -0.63,0 -0.63,0 0,-2.1 0,-2.2 -2.37,0 -2.37,0 0,2.2 0,2.1 -0.63,0 -0.63,0 0,-4.6 z m 24.16,0 0,-4.6 2.15,0 c 1.17,0 2.45,0.1 2.84,0.2 1.65,0.4 2.34,2.6 1.33,4.2 -0.51,0.9 -1.11,1.1 -3.19,1.1 l -1.86,0.1 0,1.8 0,1.8 -0.64,0 -0.63,0 0,-4.6 z m 4.65,-0.4 c 0.97,-0.4 1.18,-2 0.33,-2.7 -0.38,-0.3 -0.59,-0.4 -2.07,-0.4 l -1.64,0 0,1.7 0,1.7 1.42,0 c 0.85,0 1.64,-0.1 1.96,-0.3 z m 111.91,0.4 0,-4.6 0.63,0 0.63,0 0,1.9 0,1.9 2.37,0 2.37,0 0,-1.9 0,-1.9 0.63,0 0.63,0 0,4.6 0,4.6 -0.63,0 -0.63,0 0,-2.1 0,-2.2 -2.37,0 -2.37,0 0,2.2 0,2.1 -0.63,0 -0.63,0 0,-4.6 z m 24.32,0 0,-4.6 2.15,0 c 1.17,0 2.45,0.1 2.84,0.2 1.64,0.4 2.34,2.6 1.33,4.2 -0.51,0.9 -1.11,1.1 -3.19,1.1 l -1.87,0.1 0,1.8 0,1.8 -0.63,0 -0.63,0 0,-4.6 z m 4.64,-0.4 c 0.98,-0.4 1.19,-2 0.34,-2.7 -0.38,-0.3 -0.59,-0.4 -2.07,-0.4 l -1.65,0 0,1.7 0,1.7 1.43,0 c 0.85,0 1.64,-0.1 1.95,-0.3 z m -122.62,-0.1 c 0,-0.4 0.46,-0.9 1.99,-2.4 1.42,-1.4 1.65,-1.7 1.65,-2.1 0,-1 -1.52,-1.5 -2.29,-0.8 -0.23,0.3 -0.4,0.5 -0.4,0.7 0,0.2 -0.27,0.3 -0.62,0.1 -0.25,-0.2 -0.11,-0.8 0.29,-1.2 1.33,-1.5 4.01,-0.5 3.76,1.3 -0.11,0.8 -0.63,1.5 -2.01,2.7 -0.61,0.5 -1.1,0.9 -1.1,1 0,0.1 0.71,0.1 1.58,0.1 1.58,0 1.58,0 1.58,0.4 l 0,0.4 -2.22,0 c -1.45,0 -2.21,-0.1 -2.21,-0.2 z m 140.72,0 c 0,-0.4 0.46,-0.9 1.99,-2.4 1.43,-1.4 1.65,-1.7 1.65,-2.1 0,-1 -1.52,-1.5 -2.29,-0.8 -0.22,0.3 -0.4,0.5 -0.4,0.7 0,0.2 -0.27,0.3 -0.61,0.1 -0.26,-0.2 -0.11,-0.8 0.28,-1.2 1.33,-1.5 4.01,-0.5 3.76,1.3 -0.11,0.8 -0.63,1.5 -2.01,2.7 -0.61,0.5 -1.1,0.9 -1.1,1 0,0.1 0.71,0.1 1.58,0.1 1.58,0 1.58,0 1.58,0.4 l 0,0.4 -2.21,0 c -1.46,0 -2.22,-0.1 -2.22,-0.2 z m -135.51,-2.2 c 0,-0.2 0.37,-0.3 2.37,-0.3 2.01,0 2.37,0.1 2.37,0.3 0,0.2 -0.36,0.2 -2.37,0.2 -2,0 -2.37,0 -2.37,-0.2 z m 140.73,0 c 0,-0.2 0.36,-0.3 2.37,-0.3 2,0 2.36,0.1 2.36,0.3 0,0.2 -0.36,0.2 -2.36,0.2 -2.01,0 -2.37,0 -2.37,-0.2 z"
         id="path2830"
         style="fill:#000000" />
      <g
         id="text2832"
         style="font-size:12px;font-style:normal;font-weight:normal;fill:#ff0000;fill-opacity:1;stroke:none;font-family:Bitstream Vera Sans">
        <path
           d="m 176.05,588.08 3.3,-8.59 1.23,0 3.51,8.59 -1.29,0 -1,-2.6 -3.6,0 -0.94,2.6 z m 2.48,-3.53 2.91,0 -0.89,-2.38 c -0.28,-0.72 -0.48,-1.31 -0.61,-1.78 -0.11,0.55 -0.27,1.1 -0.46,1.64 z"
           id="path2914" />
        <path
           d="m 187.2,588.08 0,-7.58 -2.83,0 0,-1.01 6.81,0 0,1.01 -2.85,0 0,7.58 z"
           id="path2916" />
        <path
           d="m 192.35,588.08 0,-8.59 3.24,0 c 0.57,0 1,0 1.31,0.1 0.42,0.1 0.77,0.2 1.06,0.4 0.28,0.2 0.51,0.48 0.68,0.83 0.18,0.36 0.27,0.75 0.27,1.17 0,0.73 -0.24,1.35 -0.7,1.86 -0.47,0.5 -1.31,0.76 -2.52,0.76 l -2.2,0 0,3.49 z m 1.14,-4.51 2.22,0 c 0.73,0 1.25,-0.13 1.56,-0.41 0.31,-0.27 0.46,-0.66 0.46,-1.15 0,-0.36 -0.1,-0.67 -0.27,-0.92 -0.18,-0.26 -0.42,-0.43 -0.72,-0.51 -0.19,-0.1 -0.54,-0.1 -1.06,-0.1 l -2.19,0 z"
           id="path2918" />
      </g>
      <g
         id="text2832-1"
         style="font-size:12px;font-style:normal;font-weight:normal;fill:#ff0000;fill-opacity:1;stroke:none;font-family:Bitstream Vera Sans">
        <path
           d="m 220,588.08 3.3,-8.59 1.23,0 3.51,8.59 -1.29,0 -1.01,-2.6 -3.59,0 -0.94,2.6 z m 2.48,-3.53 2.91,0 -0.89,-2.38 c -0.28,-0.72 -0.48,-1.31 -0.61,-1.78 -0.11,0.55 -0.27,1.1 -0.47,1.64 z"
           id="path2907" />
        <path
           d="m 228.96,588.08 0,-8.59 2.96,0 c 0.67,0 1.18,0 1.53,0.12 0.49,0.12 0.91,0.32 1.26,0.62 0.45,0.38 0.79,0.87 1.02,1.46 0.22,0.6 0.33,1.28 0.33,2.05 0,0.65 -0.1,1.23 -0.23,1.73 -0.15,0.51 -0.34,0.92 -0.58,1.25 -0.24,0.33 -0.5,0.59 -0.78,0.78 -0.29,0.19 -0.63,0.33 -1.03,0.43 -0.4,0.1 -0.86,0.15 -1.38,0.15 z m 1.14,-1.02 1.83,0 c 0.57,0 1.01,0 1.34,-0.15 0.32,-0.11 0.57,-0.26 0.77,-0.45 0.27,-0.27 0.48,-0.63 0.63,-1.09 0.15,-0.45 0.22,-1 0.22,-1.65 0,-0.9 -0.15,-1.59 -0.44,-2.07 -0.3,-0.48 -0.65,-0.81 -1.08,-0.97 -0.3,-0.12 -0.79,-0.18 -1.47,-0.18 l -1.8,0 z"
           id="path2909" />
        <path
           d="m 237.63,588.08 0,-8.59 3.24,0 c 0.57,0 1.01,0 1.31,0.1 0.42,0.1 0.78,0.2 1.06,0.4 0.29,0.2 0.52,0.48 0.69,0.83 0.17,0.36 0.26,0.75 0.26,1.17 0,0.73 -0.23,1.35 -0.7,1.86 -0.46,0.5 -1.3,0.76 -2.52,0.76 l -2.2,0 0,3.49 z m 1.14,-4.51 2.22,0 c 0.74,0 1.26,-0.13 1.57,-0.41 0.3,-0.27 0.46,-0.66 0.46,-1.15 0,-0.36 -0.1,-0.67 -0.27,-0.92 -0.19,-0.26 -0.42,-0.43 -0.72,-0.51 -0.19,-0.1 -0.55,-0.1 -1.06,-0.1 l -2.2,0 z"
           id="path2911" />
      </g>
      <g
         id="text2832-4"
         style="font-size:12px;font-style:normal;font-weight:normal;fill:#ff0000;fill-opacity:1;stroke:none;font-family:Bitstream Vera Sans">
        <path
           d="m 497,655.59 3.3,-8.59 1.23,0 3.51,8.59 -1.29,0 -1,-2.61 -3.6,0 -0.94,2.61 z m 2.48,-3.53 2.91,0 -0.89,-2.38 c -0.28,-0.72 -0.48,-1.32 -0.61,-1.78 -0.11,0.55 -0.27,1.1 -0.47,1.64 z"
           id="path2900" />
        <path
           d="m 508.15,655.59 0,-7.58 -2.83,0 0,-1.01 6.81,0 0,1.01 -2.85,0 0,7.58 z"
           id="path2902" />
        <path
           d="m 513.3,655.59 0,-8.59 3.24,0 c 0.57,0 1,0 1.3,0.1 0.43,0.1 0.78,0.2 1.07,0.4 0.28,0.2 0.51,0.47 0.68,0.83 0.18,0.35 0.26,0.74 0.26,1.17 0,0.73 -0.23,1.35 -0.69,1.85 -0.47,0.51 -1.31,0.76 -2.52,0.76 l -2.21,0 0,3.5 z m 1.13,-4.51 2.23,0 c 0.73,0 1.25,-0.14 1.56,-0.41 0.31,-0.27 0.46,-0.66 0.46,-1.15 0,-0.36 -0.1,-0.67 -0.27,-0.93 -0.18,-0.25 -0.42,-0.42 -0.72,-0.5 -0.19,-0.1 -0.54,-0.1 -1.06,-0.1 l -2.2,0 z"
           id="path2904" />
      </g>
      <g
         id="text2832-1-9"
         style="font-size:12px;font-style:normal;font-weight:normal;fill:#ff0000;fill-opacity:1;stroke:none;font-family:Bitstream Vera Sans">
        <path
           d="m 542.95,655.59 3.3,-8.59 1.23,0 3.51,8.59 -1.29,0 -1.01,-2.61 -3.59,0 -0.94,2.61 z m 2.48,-3.53 2.91,0 -0.89,-2.38 c -0.28,-0.72 -0.48,-1.32 -0.61,-1.78 -0.11,0.55 -0.27,1.1 -0.47,1.64 z"
           id="path2893" />
        <path
           d="m 551.91,655.59 0,-8.59 2.96,0 c 0.67,0 1.18,0 1.53,0.12 0.49,0.11 0.91,0.32 1.26,0.61 0.45,0.39 0.79,0.88 1.02,1.47 0.22,0.6 0.33,1.28 0.33,2.04 0,0.66 -0.1,1.23 -0.23,1.74 -0.15,0.5 -0.34,0.92 -0.58,1.25 -0.24,0.33 -0.5,0.59 -0.78,0.78 -0.29,0.19 -0.63,0.33 -1.03,0.43 -0.4,0.1 -0.86,0.15 -1.38,0.15 z m 1.14,-1.02 1.83,0 c 0.57,0 1.01,-0.1 1.34,-0.16 0.32,-0.1 0.57,-0.25 0.77,-0.44 0.27,-0.27 0.48,-0.63 0.63,-1.09 0.15,-0.45 0.22,-1.01 0.22,-1.65 0,-0.9 -0.15,-1.59 -0.44,-2.07 -0.3,-0.49 -0.65,-0.81 -1.08,-0.97 -0.3,-0.12 -0.79,-0.18 -1.47,-0.18 l -1.8,0 z"
           id="path2895" />
        <path
           d="m 560.58,655.59 0,-8.59 3.24,0 c 0.57,0 1.01,0 1.31,0.1 0.42,0.1 0.78,0.2 1.06,0.4 0.29,0.2 0.52,0.47 0.69,0.83 0.17,0.35 0.26,0.74 0.26,1.17 0,0.73 -0.23,1.35 -0.7,1.85 -0.46,0.51 -1.3,0.76 -2.52,0.76 l -2.2,0 0,3.5 z m 1.14,-4.51 2.22,0 c 0.73,0 1.26,-0.14 1.57,-0.41 0.3,-0.27 0.46,-0.66 0.46,-1.15 0,-0.36 -0.1,-0.67 -0.27,-0.93 -0.19,-0.25 -0.43,-0.42 -0.72,-0.5 -0.19,-0.1 -0.55,-0.1 -1.06,-0.1 l -2.2,0 z"
           id="path2897" />
      </g>
    </g>
  </g>
</svg>
