<?xml version="1.0" encoding="UTF-8" standalone="no"?>
<!-- Created with Inkscape (http://www.inkscape.org/) -->

<svg
   xmlns:svg="http://www.w3.org/2000/svg"
   xmlns="http://www.w3.org/2000/svg"
   version="1.1"
   width="620"
   height="285.98001"
   id="svg2">
  <defs
     id="defs4" />
  <g
     transform="translate(1509.6428,-1494.9166)"
     id="layer1">
    <path
       d="m -996.78273,1770.735 c -0.9814,-0.3208 -1.8232,-1.0735 -2.3106,-2.0661 -0.3813,-0.7764 -0.4321,-1.052 -0.4321,-2.3442 0,-1.2935 0.051,-1.5674 0.4337,-2.3475 0.9276,-1.8889 2.8521,-2.6824 4.9719,-2.05 1.6334,0.4873 2.6396,1.9153 2.7947,3.9663 0.215,2.8434 -1.3208,4.8418 -3.8386,4.9946 -0.5695,0.035 -1.2384,-0.029 -1.619,-0.1531 z m 2.9968,-1.4241 c 0.7456,-0.5943 1.1291,-1.3783 1.2326,-2.5196 0.1587,-1.7498 -0.4925,-3.1626 -1.7133,-3.717 -1.5935,-0.7236 -3.3765,0.09 -3.8751,1.7693 -0.8213,2.7654 0.5525,5.1343 2.8914,4.986 0.7001,-0.044 1.0047,-0.1522 1.4644,-0.5187 z m 17.35012,1.4241 c -0.98147,-0.3208 -1.82322,-1.0735 -2.31063,-2.0661 -0.38126,-0.7764 -0.43207,-1.052 -0.43207,-2.3442 0,-1.2935 0.0506,-1.5674 0.4337,-2.3475 0.92756,-1.8889 2.85205,-2.6824 4.97187,-2.05 1.63341,0.4873 2.63956,1.9153 2.79468,3.9663 0.21506,2.8434 -1.32082,4.8418 -3.83863,4.9946 -0.56948,0.035 -1.2384,-0.029 -1.61892,-0.1531 z m 2.99676,-1.4241 c 0.74561,-0.5943 1.12915,-1.3783 1.23264,-2.5196 0.15866,-1.7498 -0.49257,-3.1626 -1.71333,-3.717 -1.59354,-0.7236 -3.37654,0.09 -3.8751,1.7693 -0.82126,2.7654 0.55246,5.1343 2.89143,4.986 0.70012,-0.044 1.00468,-0.1522 1.46436,-0.5187 z m 3.43206,-5.6837 c 0,-0.1952 0.35966,-0.2312 2.31215,-0.2312 1.95248,0 2.31214,0.036 2.31214,0.2312 0,0.1953 -0.35966,0.2312 -2.31214,0.2312 -1.95249,0 -2.31215,-0.036 -2.31215,-0.2312 z m -21.23954,-1.5136 c -0.2321,-0.1036 -0.3215,-0.2411 -0.2607,-0.401 0.086,-0.2261 2.92592,-5.2109 3.40953,-5.9846 0.18599,-0.2975 0.25922,-0.3194 0.52152,-0.1556 0.16783,0.1048 0.30516,0.2543 0.30516,0.3321 0,0.078 -0.70567,1.3617 -1.56816,2.8531 -2.25125,3.8928 -1.99745,3.539 -2.40735,3.356 z m 10.32918,-5.6175 c -2.55847,-4.4176 -2.89252,-5.0702 -2.68184,-5.2389 0.13238,-0.106 0.31541,-0.1927 0.40675,-0.1927 0.15775,0 6.01969,10.0006 5.91401,10.0894 -0.0277,0.023 -0.20022,0.1202 -0.38337,0.2154 -0.31679,0.1646 -0.47548,-0.073 -3.25555,-4.8732 z m -13.05508,4.0395 c -0.2354,-0.178 -0.2683,-0.2904 -0.145,-0.496 0.088,-0.1463 1.0489,-1.8093 2.1361,-3.6957 1.0871,-1.8863 2.05412,-3.4286 2.14885,-3.4273 0.39684,0.01 0.61664,0.2794 0.47076,0.5867 -0.31822,0.6704 -4.15731,7.2635 -4.22921,7.263 -0.042,0 -0.214,-0.1041 -0.3815,-0.2307 z m -451.33767,-6.2947 c -0.6103,-0.2659 -1.3763,-1.151 -1.6371,-1.8915 -0.1304,-0.3701 -0.2083,-1.2828 -0.2085,-2.4409 0,-1.601 0.047,-1.9526 0.3519,-2.6148 0.4514,-0.9805 0.7367,-1.2936 1.4965,-1.6426 1.0894,-0.5002 2.2287,-0.3357 3.0408,0.439 0.3731,0.3559 0.8547,1.3691 0.7126,1.4991 -0.03,0.027 -0.4048,0.097 -0.8337,0.1543 -0.7318,0.098 -0.7907,0.081 -0.9581,-0.2867 -0.2275,-0.4993 -0.8832,-0.6756 -1.4114,-0.3795 -0.4475,0.2508 -0.6984,0.7133 -0.8484,1.564 l -0.1028,0.5825 0.5836,-0.3128 c 1.7479,-0.9368 3.7413,0.4571 3.7413,2.616 0,0.7629 -0.4008,1.7798 -0.8634,2.1906 -0.7724,0.6859 -2.1501,0.9212 -3.0633,0.5233 z m 1.8596,-1.705 c 0.8267,-0.8267 0.2668,-2.3962 -0.8548,-2.3962 -1.1613,0 -1.6514,1.4552 -0.7826,2.324 0.556,0.556 1.1283,0.5813 1.6374,0.072 z m 183.8457,1.4404 c -0.3612,-0.1788 -0.7851,-0.5082 -0.942,-0.7321 -0.2873,-0.4097 -0.7136,-1.5433 -0.6133,-1.6307 0.03,-0.026 0.3811,-0.094 0.7809,-0.1525 0.69,-0.1001 0.7322,-0.085 0.8266,0.2909 0.055,0.2181 0.2745,0.5341 0.4883,0.7024 0.5739,0.4514 1.2093,0.3924 1.7657,-0.164 0.4237,-0.4237 0.4618,-0.5403 0.3887,-1.1885 -0.1359,-1.206 -1.1292,-1.6356 -2.2301,-0.9644 -0.3885,0.2369 -0.655,0.2837 -1.1946,0.2097 -0.382,-0.052 -0.6943,-0.1031 -0.694,-0.1128 0,-0.01 0.2082,-1.0927 0.4619,-2.4068 0.2537,-1.314 0.4615,-2.4065 0.4618,-2.4277 0,-0.021 1.0064,-0.039 2.2357,-0.039 l 2.2351,0 0,0.8478 0,0.8478 -1.5292,0 -1.5292,0 -0.1008,0.501 c -0.055,0.2755 -0.1321,0.6132 -0.1704,0.7503 -0.061,0.2172 0.01,0.2291 0.5187,0.092 1.6824,-0.449 3.2665,0.9177 3.2665,2.8182 0,2.2898 -2.3782,3.7714 -4.4263,2.7576 z m 270.94649,-5.378 0,-4.4702 2.08975,0 c 1.14935,0 2.39798,0.078 2.7747,0.1725 1.6157,0.4068 2.28315,2.4983 1.30764,4.0975 -0.50236,0.8236 -1.08758,1.0288 -3.12776,1.097 l -1.81118,0.061 0,1.7564 0,1.7564 -0.61657,0 -0.61658,0 0,-4.4701 z m 4.52561,-0.3664 c 0.96512,-0.4033 1.15472,-1.9583 0.32651,-2.678 -0.35914,-0.312 -0.56056,-0.3468 -2.00907,-0.3468 l -1.6099,0 0,1.6185 0,1.6185 1.39223,0 c 0.83358,0 1.59609,-0.085 1.90023,-0.2122 z m -52.4641,2.9868 0,-0.9249 -1.8497,0 -1.8497,0 0,-0.77 c 0,-0.7421 0.071,-0.8682 1.959,-3.4683 l 1.9591,-2.6981 0.7384,0 0.7385,0 0,2.6975 0,2.6975 0.5395,0 0.5395,0 0,0.7707 0,0.7707 -0.5395,0 -0.5395,0 0,0.9249 0,0.9248 -0.8478,0 -0.8478,0 0,-0.9248 z m 0,-3.9615 c 0,-0.8351 -0.058,-1.4305 -0.1313,-1.3487 -0.167,0.1862 -1.7733,2.3946 -1.9284,2.6512 -0.089,0.147 0.1418,0.1927 0.9716,0.1927 l 1.0881,0 0,-1.4952 z m 55.28929,-2.7888 c -0.2353,-0.26 -0.0648,-0.4612 2.89787,-3.4213 3.13797,-3.1352 3.1489,-3.1442 3.47009,-2.8535 l 0.32219,0.2916 -3.12695,3.1297 c -1.71982,1.7214 -3.16886,3.1298 -3.22008,3.1298 -0.0512,0 -0.20563,-0.1243 -0.34312,-0.2763 z m -11.43562,-3.1149 c -2.7687,-2.7719 -2.7687,-2.7719 -2.4604,-3.0802 0.3083,-0.3082 0.3083,-0.3082 3.077,2.4637 2.76869,2.7718 2.76869,2.7718 2.4604,3.0801 -0.30828,0.3083 -0.30828,0.3083 -3.077,-2.4636 z m -8.20137,-2.6802 c -0.9815,-0.3209 -1.8233,-1.0736 -2.3107,-2.0662 -0.3812,-0.7763 -0.432,-1.052 -0.432,-2.3442 0,-1.2934 0.051,-1.5674 0.4337,-2.3475 0.9275,-1.8889 2.852,-2.6824 4.97177,-2.05 1.6334,0.4873 2.6396,1.9153 2.7947,3.9663 0.2151,2.8434 -1.3208,4.8418 -3.8386,4.9947 -0.5695,0.034 -1.23837,-0.029 -1.61887,-0.1531 z m 2.99667,-1.4241 c 0.7456,-0.5944 1.1292,-1.3784 1.2327,-2.5197 0.1586,-1.7498 -0.4926,-3.1626 -1.7134,-3.717 -1.59347,-0.7236 -3.37647,0.091 -3.87507,1.7693 -0.8212,2.7655 0.5525,5.1343 2.89147,4.9861 0.7001,-0.044 1.0046,-0.1523 1.4643,-0.5187 z m 25.72425,1.4479 c -0.89325,-0.2364 -1.72095,-1.1432 -1.92901,-2.1133 -0.0937,-0.437 -0.17041,-2.1438 -0.17041,-3.7928 l 0,-2.9982 0.61658,0 0.61657,0 0.009,3.1214 c 0.01,3.415 0.11054,3.9742 0.81186,4.4942 0.34227,0.2538 0.66078,0.3228 1.49159,0.3228 0.83082,0 1.14932,-0.069 1.4916,-0.3228 0.70132,-0.52 0.80233,-1.0792 0.81186,-4.4942 l 0.009,-3.1214 0.61657,0 0.61658,0 0,2.9982 c 0,3.6378 -0.13139,4.3779 -0.91666,5.1632 -0.86249,0.8625 -2.49667,1.1604 -4.07451,0.7429 z m 6.84088,-4.4412 0,-4.4772 1.02199,0.046 1.02198,0.046 1.09576,3.7203 1.09574,3.7203 0.8152,-2.7184 c 0.44836,-1.4951 0.95496,-3.1866 1.1258,-3.7588 l 0.3106,-1.0405 0.99539,0 0.99541,0 0,4.4701 0,4.4702 -0.61387,0 -0.61389,0 -0.0412,-3.8068 -0.0412,-3.8069 -1.09869,3.7683 -1.09868,3.7683 -0.74317,0 -0.74317,0 -1.08687,-3.7659 -1.08686,-3.766 -0.0412,3.8045 -0.0412,3.8045 -0.61389,0 -0.61388,0 0,-4.4772 z m 10.17345,0.01 0,-4.4702 2.08975,0 c 1.14935,0 2.39797,0.078 2.7747,0.1725 1.61569,0.4069 2.28315,2.4983 1.30764,4.0975 -0.50237,0.8236 -1.08759,1.0288 -3.12776,1.097 l -1.81119,0.061 0,1.7564 0,1.7564 -0.61657,0 -0.61657,0 0,-4.4701 z m 4.52561,-0.3664 c 0.96512,-0.4033 1.15472,-1.9583 0.32651,-2.6779 -0.35914,-0.3121 -0.56056,-0.3469 -2.00907,-0.3469 l -1.60991,0 0,1.6185 0,1.6185 1.39224,0 c 0.83357,0 1.59609,-0.085 1.90023,-0.2122 z m -446.25456,-3.8554 c -0.9815,-0.3208 -1.8232,-1.0735 -2.3106,-2.0661 -0.3813,-0.7764 -0.4321,-1.052 -0.4321,-2.3442 0,-1.2934 0.051,-1.5674 0.4337,-2.3475 0.9276,-1.8889 2.8521,-2.6824 4.9719,-2.05 1.6334,0.4873 2.6395,1.9153 2.7947,3.9663 0.215,2.8434 -1.3209,4.8418 -3.8387,4.9946 -0.5694,0.035 -1.2384,-0.029 -1.6189,-0.1531 z m 2.9968,-1.424 c 0.7456,-0.5944 1.1291,-1.3784 1.2326,-2.5197 0.1587,-1.7498 -0.4926,-3.1626 -1.7133,-3.717 -1.5936,-0.7236 -3.3766,0.09 -3.8751,1.7693 -0.8213,2.7654 0.5524,5.1343 2.8914,4.9861 0.7001,-0.044 1.0047,-0.1523 1.4644,-0.5187 z m 4.2027,-2.9863 0,-4.4701 0.6166,0 0.6166,0 0,1.8497 0,1.8497 2.3121,0 2.3122,0 0,-1.8497 0,-1.8497 0.6166,0 0.6165,0 0,4.4701 0,4.4702 -0.6165,0 -0.6166,0 0,-2.081 0,-2.0809 -2.3122,0 -2.3121,0 0,2.0809 0,2.081 -0.6166,0 -0.6166,0 0,-4.4702 z m 196.4149,2.6209 c -0.2766,-0.1686 -0.6209,-0.554 -0.7651,-0.8563 -0.2278,-0.4778 -0.2326,-0.5683 -0.037,-0.6923 0.383,-0.2422 0.566,-0.1657 0.7675,0.3209 0.2288,0.5523 0.57,0.7648 1.2276,0.7648 0.9082,0 1.5167,-1.0377 1.0833,-1.8475 -0.1842,-0.3442 -1.0821,-0.6675 -1.4556,-0.5242 -0.2129,0.082 -0.2575,0.032 -0.2162,-0.2423 0.037,-0.2434 0.2296,-0.4061 0.6533,-0.551 0.9139,-0.3127 1.1309,-0.8833 0.5549,-1.4593 -0.5736,-0.5736 -1.7504,-0.221 -2.0265,0.6073 -0.045,0.136 -0.184,0.1676 -0.4145,0.094 -0.4377,-0.1389 -0.3334,-0.5881 0.2843,-1.2239 0.6126,-0.6305 1.7112,-0.7307 2.4531,-0.2237 0.851,0.5816 1.0091,1.6562 0.3292,2.2383 -0.2812,0.2408 -0.2735,0.2652 0.2355,0.7453 1.6243,1.5319 -0.7267,4.037 -2.6743,2.8495 z m 193.41307,-7.0036 c 0,-6.8287 -0.018,-7.3169 -0.26977,-7.3947 -0.6022,-0.186 -25.6844,-5.9423 -25.7233,-5.9034 -0.023,0.023 1.2791,2.3234 2.8937,5.1118 l 2.9356,5.0699 -0.3527,0.2661 c -0.3509,0.2647 -0.3558,0.261 -0.9051,-0.6821 -0.3037,-0.5214 -1.8571,-3.2132 -3.4519,-5.9816 l -2.8997,-5.0335 -0.4873,0.1414 c -0.2679,0.078 -6.3673,1.8094 -13.5541,3.8481 l -13.0669,3.7067 -7.5883,-1.7125 c -9.6184,-2.1706 -8.7177,-1.921 -8.6279,-2.3909 0.04,-0.2119 0.1386,-0.3852 0.218,-0.3852 0.079,0 2.5951,0.5549 5.5906,1.2332 2.9955,0.6782 5.528,1.2331 5.6278,1.2331 0.1,0 -2.5975,-5.5058 -5.994,-12.2351 l -6.1754,-12.2351 0,-7.1099 0,-7.1098 0.4608,0 0.4609,0 0.04,6.9593 0.04,6.9593 12.4805,3.5918 c 6.8642,1.9755 12.5014,3.5708 12.527,3.5452 0.026,-0.026 -3.2322,-2.2522 -7.2396,-4.9479 -4.0074,-2.6957 -7.304,-4.9146 -7.3258,-4.9308 -0.081,-0.06 7.156,-12.47 7.3005,-12.5182 0.083,-0.028 0.27,0.037 0.4161,0.1446 0.2411,0.1768 -0.042,0.727 -3.069,5.972 -1.834,3.1774 -3.3657,5.8583 -3.4038,5.9575 -0.056,0.1457 15.1803,10.5828 16.1333,11.0516 0.1737,0.085 3.9754,-0.9393 11.5668,-3.1181 6.2195,-1.7849 11.3241,-3.2293 11.3436,-3.2098 0.019,0.019 0.079,0.2088 0.131,0.4205 l 0.095,0.3851 -11.5014,3.3003 -11.5013,3.3002 -2.0306,-0.574 c -1.1168,-0.3157 -7.2676,-2.086 -13.6684,-3.9339 -6.4008,-1.848 -11.6562,-3.3454 -11.6787,-3.3276 -0.053,0.042 14.4335,22.5941 14.6951,22.8761 0.1695,0.1827 2.3552,-0.3964 14.4349,-3.8243 l 14.2352,-4.0396 13.08,4.4837 c 7.1941,2.466 13.0981,4.4644 13.1202,4.4409 0.022,-0.024 -2.4155,-4.3087 -5.4167,-9.5226 -4.9355,-8.5743 -5.4315,-9.4984 -5.193,-9.6745 0.145,-0.1072 0.3358,-0.171 0.4241,-0.142 0.088,0.029 2.7442,4.5442 5.9022,10.0338 l 5.74177,9.981 0,7.6177 0,7.6176 -0.3854,0 -0.3853,0 0,-7.3114 z m -19.22267,6.4809 c -0.9815,-0.3209 -1.8232,-1.0735 -2.3107,-2.0661 -0.3812,-0.7764 -0.432,-1.0521 -0.432,-2.3442 0,-1.2935 0.051,-1.5674 0.4337,-2.3476 0.9275,-1.8889 2.852,-2.6824 4.9718,-2.0499 1.6335,0.4873 2.6396,1.9153 2.7947,3.9663 0.2151,2.8434 -1.3208,4.8418 -3.8386,4.9946 -0.5695,0.034 -1.2384,-0.029 -1.6189,-0.1531 z m 2.9967,-1.4241 c 0.7456,-0.5943 1.1292,-1.3784 1.2327,-2.5197 0.1586,-1.7498 -0.4926,-3.1625 -1.7134,-3.7169 -1.5935,-0.7237 -3.3765,0.09 -3.8751,1.7692 -0.8212,2.7655 0.5525,5.1344 2.8915,4.9861 0.7001,-0.044 1.0047,-0.1523 1.4643,-0.5187 z m 4.0487,-2.9862 0,-4.4702 0.6165,0 0.6166,0 0,1.8497 0,1.8498 2.3122,0 2.3121,0 0,-1.8498 0,-1.8497 0.6166,0 0.6166,0 0,4.4702 0,4.4701 -0.6166,0 -0.6166,0 0,-2.0809 0,-2.0809 -2.3121,0 -2.3122,0 0,2.0809 0,2.0809 -0.6166,0 -0.6165,0 0,-4.4701 z m -206.6607,2.5606 c -0.9815,-0.3209 -1.8233,-1.0736 -2.3107,-2.0661 -0.3812,-0.7764 -0.432,-1.0521 -0.432,-2.3442 0,-1.2935 0.051,-1.5675 0.4337,-2.3476 0.9275,-1.8889 2.852,-2.6824 4.9718,-2.0499 1.6334,0.4873 2.6396,1.9152 2.7947,3.9662 0.2151,2.8435 -1.3208,4.8419 -3.8386,4.9947 -0.5695,0.034 -1.2384,-0.029 -1.6189,-0.1531 z m 2.9967,-1.4241 c 0.7456,-0.5944 1.1292,-1.3784 1.2326,-2.5197 0.1587,-1.7498 -0.4925,-3.1626 -1.7133,-3.7169 -1.5935,-0.7237 -3.3765,0.09 -3.8751,1.7692 -0.8212,2.7655 0.5525,5.1343 2.8915,4.9861 0.7001,-0.044 1.0046,-0.1523 1.4643,-0.5187 z m 14.7297,1.4241 c -0.9815,-0.3209 -1.8232,-1.0736 -2.3106,-2.0661 -0.3813,-0.7764 -0.4321,-1.0521 -0.4321,-2.3442 0,-1.2935 0.051,-1.5675 0.4337,-2.3476 0.9276,-1.8889 2.8521,-2.6824 4.9719,-2.0499 1.6334,0.4873 2.6395,1.9152 2.7947,3.9662 0.215,2.8435 -1.3209,4.8419 -3.8387,4.9947 -0.5695,0.034 -1.2384,-0.029 -1.6189,-0.1531 z m 2.9968,-1.4241 c 0.7456,-0.5944 1.1291,-1.3784 1.2326,-2.5197 0.1587,-1.7498 -0.4926,-3.1626 -1.7133,-3.7169 -1.5936,-0.7237 -3.3766,0.09 -3.8751,1.7692 -0.8213,2.7655 0.5524,5.1343 2.8914,4.9861 0.7001,-0.044 1.0047,-0.1523 1.4644,-0.5187 z m -13.6779,-2.9862 0,-4.4702 2.0898,0 c 1.1493,0 2.398,0.078 2.7747,0.1725 1.6157,0.4068 2.2831,2.4983 1.3076,4.0975 -0.5023,0.8236 -1.0876,1.0288 -3.1277,1.097 l -1.8112,0.061 0,1.7564 0,1.7564 -0.6166,0 -0.6166,0 0,-4.4701 z m 4.5257,-0.3664 c 0.9651,-0.4033 1.1547,-1.9583 0.3265,-2.678 -0.3592,-0.312 -0.5606,-0.3468 -2.0091,-0.3468 l -1.6099,0 0,1.6185 0,1.6185 1.3922,0 c 0.8336,0 1.5961,-0.085 1.9003,-0.2122 z m 17.8251,-0.1062 c 0,-0.3958 0.4403,-0.9347 1.944,-2.3791 1.3799,-1.3253 1.6046,-1.6101 1.6031,-2.0312 0,-1.0253 -1.4765,-1.5178 -2.2439,-0.7504 -0.2081,0.2081 -0.3783,0.4856 -0.3783,0.6166 0,0.2618 -0.2688,0.3074 -0.5946,0.101 -0.246,-0.1559 -0.1168,-0.7155 0.2656,-1.1502 1.2943,-1.4715 3.9225,-0.5353 3.6751,1.3092 -0.1039,0.7745 -0.6148,1.4375 -1.9612,2.5451 -0.5922,0.4872 -1.0767,0.9413 -1.0767,1.0092 0,0.068 0.6937,0.1234 1.5415,0.1234 1.5414,0 1.5414,0 1.5414,0.3853 l 0,0.3854 -2.158,0 c -1.4247,0 -2.158,-0.056 -2.158,-0.1643 z m -206.5888,-8.4207 -0.04,-7.3518 -12.8654,-2.9685 c -7.076,-1.6326 -12.8902,-2.9436 -12.9205,-2.9133 -0.03,0.03 1.265,2.3334 2.8786,5.1179 2.6215,4.5242 2.9066,5.0834 2.6791,5.2555 -0.1401,0.106 -0.3281,0.1902 -0.4178,0.1871 -0.09,0 -1.6887,-2.6624 -3.5532,-5.9096 l -3.39,-5.9041 -1.2343,0.3412 c -0.6789,0.1877 -6.7835,1.9151 -13.5658,3.8386 l -12.3315,3.4973 -8.0925,-1.8329 c -5.8228,-1.3188 -8.1032,-1.8944 -8.1308,-2.0522 -0.1221,-0.6985 0.052,-0.6798 5.7998,0.6242 3.0624,0.6947 5.6237,1.24 5.6918,1.2117 0.068,-0.028 -2.5648,-5.3578 -5.8508,-11.8433 -3.2861,-6.4856 -6.0001,-11.8596 -6.0313,-11.9423 -0.032,-0.083 -3.2037,0.6923 -7.1171,1.74 -3.8832,1.0396 -7.0846,1.8659 -7.1142,1.8363 -0.03,-0.03 -0.073,-0.2204 -0.096,-0.4239 -0.041,-0.362 0.1093,-0.4107 6.9717,-2.2634 3.8574,-1.0415 7.1869,-1.9021 7.3989,-1.9125 0.2119,-0.01 6.0672,1.6195 13.0118,3.6221 6.9446,2.0027 12.6463,3.6214 12.6705,3.5972 0.024,-0.024 -3.2473,-2.2582 -7.27,-4.9644 -4.0227,-2.7062 -7.314,-4.9532 -7.314,-4.9934 0,-0.04 1.6104,-2.8615 3.5788,-6.2698 3.4407,-5.9578 3.5924,-6.1908 3.9306,-6.0367 0.1935,0.088 0.3519,0.2025 0.3519,0.254 0,0.051 -1.5182,2.7244 -3.3737,5.9398 -3.3561,5.8158 -3.372,5.8476 -3.0443,6.0981 0.1811,0.1385 3.8785,2.6322 8.2165,5.5416 l 7.8872,5.2899 11.3644,-3.263 c 6.2504,-1.7947 11.3793,-3.2442 11.3976,-3.2211 0.018,0.023 0.074,0.2154 0.1236,0.4273 l 0.091,0.3854 -11.5364,3.3038 -11.5364,3.3038 -13.5421,-3.9025 c -7.4482,-2.1463 -13.629,-3.9353 -13.7352,-3.9755 -0.1062,-0.04 3.154,5.1358 7.2447,11.5023 4.0908,6.3665 7.5043,11.5763 7.5857,11.5774 0.081,0 6.5322,-1.8059 14.3353,-4.0155 l 14.1874,-4.0175 13.0177,4.4745 c 7.1597,2.4609 13.0448,4.4473 13.078,4.414 0.033,-0.033 -2.3825,-4.3085 -5.3684,-9.5008 -5.0409,-8.7658 -5.4088,-9.455 -5.1488,-9.6452 0.1541,-0.1126 0.3281,-0.2048 0.3867,-0.2048 0.059,0 2.7159,4.5371 5.905,10.0823 l 5.7985,10.0823 0,7.5671 0,7.5671 -0.461,0 -0.4609,0 -0.04,-7.3518 z m -19.1857,6.5213 c -0.9814,-0.3209 -1.8232,-1.0735 -2.3106,-2.0661 -0.3813,-0.7764 -0.4321,-1.0521 -0.4321,-2.3442 0,-1.2935 0.051,-1.5675 0.4337,-2.3476 0.9276,-1.8889 2.8521,-2.6824 4.9719,-2.05 1.6334,0.4874 2.6396,1.9153 2.7947,3.9663 0.215,2.8435 -1.3209,4.8419 -3.8387,4.9947 -0.5694,0.034 -1.2384,-0.029 -1.6189,-0.1531 z m 2.9968,-1.4241 c 0.7456,-0.5944 1.1291,-1.3784 1.2326,-2.5197 0.1587,-1.7498 -0.4925,-3.1626 -1.7133,-3.7169 -1.5935,-0.7237 -3.3765,0.09 -3.8751,1.7692 -0.8213,2.7655 0.5525,5.1343 2.8914,4.9861 0.7001,-0.044 1.0047,-0.1523 1.4644,-0.5187 z m 4.0486,-2.9862 0,-4.4702 0.6166,0 0.6166,0 0,1.8497 0,1.8498 2.3121,0 2.3122,0 0,-1.8498 0,-1.8497 0.6165,0 0.6166,0 0,4.4702 0,4.4701 -0.6166,0 -0.6165,0 0,-2.0809 0,-2.0809 -2.3122,0 -2.3121,0 0,2.0809 0,2.0809 -0.6166,0 -0.6166,0 0,-4.4701 z m 223.6617,4.0848 c 0,-0.1953 0.3596,-0.2313 2.3121,-0.2313 1.9525,0 2.3122,0.036 2.3122,0.2313 0,0.1952 -0.3597,0.2312 -2.3122,0.2312 -1.9525,0 -2.3121,-0.036 -2.3121,-0.2312 z m -33.2949,-10.1602 0,-7.4627 -2.0424,-0.4772 c -6.5767,-1.5368 -23.9349,-5.5264 -23.9571,-5.5063 -0.014,0.013 1.2593,2.2431 2.8306,4.9557 1.5713,2.7125 2.8883,5.0401 2.9268,5.1722 0.042,0.1451 -0.072,0.3047 -0.2872,0.4026 -0.3452,0.1569 -0.4705,-0.035 -3.7483,-5.7453 -1.8651,-3.2492 -3.4612,-5.9102 -3.5469,-5.9132 -0.086,0 -6.1501,1.6938 -13.4765,3.7709 -7.3263,2.0771 -13.4643,3.7738 -13.64,3.7706 -0.1756,0 -3.8926,-0.8183 -8.26,-1.8112 -7.3864,-1.6793 -7.9368,-1.8268 -7.8849,-2.1136 0.031,-0.1695 0.1011,-0.3564 0.1565,-0.4152 0.055,-0.059 2.6653,0.4747 5.8,1.1856 3.1347,0.7109 5.7052,1.2793 5.7121,1.263 0.021,-0.05 -12.0261,-23.8169 -12.1208,-23.9117 -0.049,-0.049 -3.1998,0.7463 -7.0019,1.7672 -3.8021,1.0208 -7.004,1.8211 -7.1153,1.7784 -0.1114,-0.043 -0.2025,-0.2167 -0.2025,-0.3865 0,-0.3624 -0.6776,-0.1525 8.0116,-2.4819 4.1273,-1.1064 6.5425,-1.6839 6.8147,-1.6295 0.2319,0.046 5.9814,1.6858 12.7766,3.6431 6.7952,1.9572 12.3803,3.5333 12.4113,3.5024 0.031,-0.031 -3.2363,-2.2677 -7.2605,-4.9704 -6.9595,-4.6742 -7.3069,-4.9296 -7.1138,-5.2315 0.1116,-0.1745 1.7513,-3.0052 3.6436,-6.2903 1.8924,-3.2852 3.4824,-5.9709 3.5334,-5.9682 0.051,0 0.2228,0.1034 0.3818,0.2238 0.2734,0.2071 0.1054,0.5369 -3.118,6.118 -2.3276,4.03 -3.3571,5.9493 -3.2493,6.0575 0.087,0.087 3.7736,2.5915 8.1928,5.5652 l 8.0348,5.4067 11.4142,-3.2789 c 6.2778,-1.8033 11.4278,-3.2651 11.4446,-3.2483 0.017,0.017 0.074,0.206 0.1284,0.4206 l 0.098,0.3902 -11.5833,3.3232 -11.5834,3.3234 -13.5696,-3.9129 c -7.4633,-2.1521 -13.6033,-3.8791 -13.6446,-3.8379 -0.05,0.05 14.0574,22.1888 14.6616,23.0073 0.01,0.014 6.4442,-1.7983 14.2977,-4.0269 l 14.2792,-4.052 12.9965,4.4533 c 7.148,2.4494 13.0451,4.4349 13.1046,4.4123 0.06,-0.023 -2.3714,-4.3527 -5.402,-9.6226 l -5.5103,-9.5815 0.3861,-0.1759 c 0.3009,-0.1371 0.4148,-0.1317 0.5161,0.025 0.071,0.1103 2.7309,4.7237 5.9099,10.252 l 5.78,10.0514 0,7.6365 0,7.6366 -0.4624,0 -0.4624,0 0,-7.4627 z m -19.2227,6.478 c -0.9815,-0.3209 -1.8233,-1.0736 -2.3107,-2.0662 -0.3812,-0.7763 -0.432,-1.052 -0.432,-2.3442 0,-1.2934 0.051,-1.5674 0.4337,-2.3475 0.9275,-1.8889 2.852,-2.6824 4.9718,-2.05 1.6334,0.4873 2.6396,1.9153 2.7947,3.9663 0.2151,2.8434 -1.3208,4.8419 -3.8386,4.9947 -0.5695,0.034 -1.2384,-0.029 -1.6189,-0.1531 z m 2.9967,-1.4241 c 0.7456,-0.5944 1.1292,-1.3784 1.2327,-2.5197 0.1586,-1.7498 -0.4926,-3.1626 -1.7134,-3.717 -1.5935,-0.7236 -3.3765,0.091 -3.8751,1.7693 -0.8212,2.7655 0.5525,5.1343 2.8915,4.9861 0.7001,-0.044 1.0046,-0.1523 1.4643,-0.5187 z m 4.0487,-2.9863 0,-4.4701 0.6165,0 0.6166,0 0,1.8497 0,1.8497 2.3121,0 2.3122,0 0,-1.8497 0,-1.8497 0.6166,0 0.6165,0 0,4.4701 0,4.4702 -0.6165,0 -0.6166,0 0,-2.0809 0,-2.081 -2.3122,0 -2.3121,0 0,2.081 0,2.0809 -0.6166,0 -0.6165,0 0,-4.4702 z m 152.0303,3.0231 c -0.9815,-0.3209 -1.8233,-1.0736 -2.3107,-2.0662 -0.3812,-0.7763 -0.432,-1.052 -0.432,-2.3442 0,-1.2934 0.051,-1.5674 0.4337,-2.3475 0.9275,-1.8889 2.852,-2.6824 4.9718,-2.05 1.6334,0.4873 2.6396,1.9153 2.7947,3.9663 0.2151,2.8434 -1.3208,4.8419 -3.8386,4.9947 -0.5695,0.034 -1.2384,-0.029 -1.6189,-0.1531 z m 2.9967,-1.4241 c 0.7456,-0.5944 1.1292,-1.3784 1.2326,-2.5197 0.1587,-1.7498 -0.4925,-3.1626 -1.7133,-3.717 -1.5935,-0.7236 -3.3765,0.091 -3.8751,1.7693 -0.8212,2.7655 0.5525,5.1343 2.8915,4.9861 0.7001,-0.044 1.0046,-0.1523 1.4643,-0.5187 z m -14.4485,-2.9863 0,-4.4701 0.6165,0 0.6166,0 0,1.8497 0,1.8497 2.3122,0 2.3121,0 0,-1.8497 0,-1.8497 0.6166,0 0.6166,0 0,4.4701 0,4.4702 -0.6166,0 -0.6166,0 0,-2.0809 0,-2.081 -2.3121,0 -2.3122,0 0,2.081 0,2.0809 -0.6166,0 -0.6165,0 0,-4.4702 z m -384.3878,-4.2217 c -0.9814,-0.3208 -1.8232,-1.0735 -2.3106,-2.0661 -0.3813,-0.7764 -0.4321,-1.052 -0.4321,-2.3442 0,-1.2934 0.051,-1.5674 0.4337,-2.3475 0.9276,-1.8889 2.8521,-2.6824 4.9719,-2.05 1.6334,0.4873 2.6396,1.9153 2.7947,3.9663 0.215,2.8434 -1.3208,4.8418 -3.8386,4.9946 -0.5695,0.035 -1.2384,-0.029 -1.619,-0.1531 z m 2.9968,-1.424 c 0.7456,-0.5944 1.1291,-1.3784 1.2326,-2.5197 0.1587,-1.7498 -0.4925,-3.1626 -1.7133,-3.717 -1.5935,-0.7236 -3.3765,0.09 -3.8751,1.7693 -0.8213,2.7654 0.5525,5.1343 2.8914,4.9861 0.7002,-0.044 1.0047,-0.1523 1.4644,-0.5187 z m -14.4485,-2.9863 0,-4.4701 0.6165,0 0.6166,0 0,1.8497 0,1.8497 2.3121,0 2.3122,0 0,-1.8497 0,-1.8497 0.6166,0 0.6165,0 0,4.4701 0,4.4702 -0.6165,0 -0.6166,0 0,-2.081 0,-2.0809 -2.3122,0 -2.3121,0 0,2.0809 0,2.081 -0.6166,0 -0.6165,0 0,-4.4702 z m 189.487,0.4026 c -0.9814,-0.3208 -1.8232,-1.0735 -2.3106,-2.0661 -0.3813,-0.7764 -0.4321,-1.052 -0.4321,-2.3442 0,-1.2935 0.051,-1.5674 0.4337,-2.3475 0.9276,-1.8889 2.8521,-2.6824 4.9719,-2.05 1.6334,0.4873 2.6396,1.9153 2.7947,3.9663 0.215,2.8434 -1.3208,4.8418 -3.8386,4.9946 -0.5695,0.035 -1.2384,-0.029 -1.619,-0.1531 z m 2.9968,-1.4241 c 0.7456,-0.5943 1.1291,-1.3783 1.2326,-2.5196 0.1587,-1.7498 -0.4925,-3.1626 -1.7133,-3.717 -1.5935,-0.7236 -3.3765,0.09 -3.8751,1.7693 -0.8213,2.7654 0.5525,5.1343 2.8914,4.986 0.7002,-0.044 1.0047,-0.1522 1.4644,-0.5187 z m -14.2944,-2.9862 0,-4.4701 0.6166,0 0.6165,0 0,1.8497 0,1.8497 2.3122,0 2.3121,0 0,-1.8497 0,-1.8497 0.6166,0 0.6166,0 0,4.4701 0,4.4702 -0.6166,0 -0.6166,0 0,-2.081 0,-2.0809 -2.3121,0 -2.3122,0 0,2.0809 0,2.081 -0.6165,0 -0.6166,0 0,-4.4702 z m -69.7498,-4.1478 c -2.289,-0.7383 -4.2659,-1.3848 -4.393,-1.4367 -0.1272,-0.052 11.3353,-0.1 25.4721,-0.1066 l 25.7034,-0.012 0,0.4624 0,0.4625 -21.6675,0 -21.6675,0 0.1072,0.3468 c 0.059,0.1907 0.2419,0.6136 0.4065,0.9398 0.1646,0.3261 0.2771,0.6139 0.25,0.6396 -0.027,0.026 -1.9221,-0.5574 -4.2112,-1.2956 z m 360.9713,0.08 c -0.9814,-0.3208 -1.8232,-1.0735 -2.3106,-2.0661 -0.3813,-0.7763 -0.4321,-1.052 -0.4321,-2.3442 0,-1.2934 0.051,-1.5674 0.4337,-2.3475 0.9276,-1.8889 2.8521,-2.6824 4.9719,-2.05 1.6334,0.4873 2.6396,1.9153 2.7947,3.9663 0.215,2.8434 -1.3208,4.8418 -3.8387,4.9946 -0.5694,0.035 -1.2384,-0.029 -1.6189,-0.1531 z m 2.9968,-1.424 c 0.7456,-0.5944 1.1291,-1.3784 1.2326,-2.5197 0.1587,-1.7498 -0.4925,-3.1626 -1.7133,-3.717 -1.5935,-0.7236 -3.3765,0.091 -3.8751,1.7693 -0.8213,2.7655 0.5525,5.1343 2.8914,4.9861 0.7001,-0.044 1.0047,-0.1523 1.4644,-0.5187 z m 76.73766,-1.7664 c 1.60496,-1.0247 3.0742,-1.9627 3.26495,-2.0845 0.19075,-0.1218 0.34682,-0.3169 0.34682,-0.4336 0,-0.1167 0.64162,-0.6874 1.42582,-1.2682 13.04879,-9.6639 22.59422,-23.2612 27.30675,-38.8981 1.36655,-4.5344 2.24329,-8.9857 2.89938,-14.7206 0.26405,-2.3081 0.26148,-11.579 -0.004,-14.1041 -1.48262,-14.1068 -6.31763,-26.7054 -14.49327,-37.7651 -5.57627,-7.5434 -12.83715,-14.2206 -21.02688,-19.3366 -1.64505,-1.0276 -2.00451,-1.4605 -1.40409,-1.6909 0.42682,-0.1638 4.89196,2.7266 8.53321,5.5237 5.07263,3.8967 10.42446,9.3286 14.43989,14.656 0.5112,0.6783 1.66048,2.343 2.55394,3.6995 7.00465,10.6344 10.99908,21.9496 12.32494,34.9134 0.26326,2.574 0.26336,11.6636 1.4e-4,14.1041 -1.01294,9.3918 -3.08775,17.081 -6.78294,25.1372 -5.17126,11.2744 -13.37193,21.396 -23.48585,28.9873 l -1.6435,1.2336 0.98667,0.369 c 0.54267,0.203 0.93543,0.413 0.8728,0.4667 -0.1382,0.1185 -8.68638,3.0751 -8.88945,3.0746 -0.079,0 1.16961,-0.8388 2.77458,-1.8634 z m -552.18306,-0.2007 c -0.9815,-0.3209 -1.8232,-1.0735 -2.3107,-2.0661 -0.3812,-0.7764 -0.432,-1.052 -0.432,-2.3442 0,-1.2935 0.051,-1.5674 0.4337,-2.3475 0.9275,-1.889 2.852,-2.6824 4.9719,-2.05 1.6334,0.4873 2.6395,1.9153 2.7946,3.9663 0.2151,2.8434 -1.3208,4.8418 -3.8386,4.9946 -0.5695,0.035 -1.2384,-0.029 -1.6189,-0.1531 z m 2.9967,-1.4241 c 0.7456,-0.5943 1.1292,-1.3783 1.2327,-2.5197 0.1586,-1.7498 -0.4926,-3.1625 -1.7134,-3.7169 -1.5935,-0.7237 -3.3765,0.09 -3.875,1.7692 -0.8213,2.7655 0.5524,5.1344 2.8914,4.9861 0.7001,-0.044 1.0047,-0.1523 1.4643,-0.5187 z m -14.4485,-2.9862 0,-4.4702 0.6166,0 0.6165,0 0,1.8498 0,1.8497 2.3122,0 2.3121,0 0,-1.8497 0,-1.8498 0.6166,0 0.6166,0 0,4.4702 0,4.4701 -0.6166,0 -0.6166,0 0,-2.0809 0,-2.0809 -2.3121,0 -2.3122,0 0,2.0809 0,2.0809 -0.6165,0 -0.6166,0 0,-4.4701 z m 119.6151,4.0077 0,-0.4624 21.7341,0 c 17.3579,0 21.7342,-0.039 21.7342,-0.1939 0,-0.1067 -0.1751,-0.5229 -0.3891,-0.9249 -0.2191,-0.4115 -0.3136,-0.7309 -0.2162,-0.7309 0.1348,0 7.8791,2.4399 8.5437,2.6918 0.085,0.032 -11.4471,0.064 -25.6263,0.071 l -25.7804,0.012 0,-0.4625 z m 439.98295,0.084 c -0.13238,-0.345 0.005,-0.4719 1.44864,-1.3383 16.08717,-9.6541 27.54392,-24.6035 32.76533,-42.754 1.70678,-5.9331 2.54202,-11.7075 2.67553,-18.4972 0.11187,-5.6897 -0.20634,-9.6242 -1.20301,-14.8748 -2.09874,-11.0564 -6.83583,-21.6515 -13.7325,-30.7142 -2.61751,-3.4396 -6.72478,-7.7834 -10.14504,-10.7293 -2.05277,-1.7681 -3.63382,-3.0268 -3.80193,-3.0268 -0.0473,0 -0.1993,0.3068 -0.33782,0.6817 -0.13851,0.375 -0.30548,0.6872 -0.37103,0.6937 -0.14074,0.014 -5.65088,-6.4348 -5.57178,-6.521 0.0297,-0.032 1.25965,0.7397 2.73323,1.7157 1.47359,0.976 2.91532,1.8892 3.20385,2.0295 0.28854,0.1402 1.36857,0.9301 2.4001,1.7553 13.76501,11.0115 23.12125,26.4153 26.46798,43.5759 0.40587,2.0811 0.72017,4.1921 1.05572,7.0906 0.30106,2.6005 0.24936,11.7299 -0.0829,14.6407 -1.5121,13.2464 -6.08053,25.1855 -13.65546,35.687 -5.66754,7.8571 -13.55099,15.082 -21.75618,19.9386 -1.51949,0.8994 -1.94531,1.031 -2.09272,0.6469 z m -234.51025,-3.3965 c 0,-0.051 1.0578,-1.486 2.3507,-3.1883 l 2.3507,-3.0951 0.1274,0.79 c 0.07,0.4345 0.1749,0.79 0.2331,0.79 0.1572,0 4.4512,-4.3794 5.5165,-5.6263 10.4369,-12.2153 16.828,-28.2603 18.2436,-45.8008 0.2543,-3.1505 0.2133,-12.4092 -0.068,-15.3169 -1.367,-14.1407 -5.6859,-26.8642 -12.793,-37.688 -4.2693,-6.502 -8.9832,-11.6028 -15.0833,-16.3212 -0.891,-0.6892 -1.3405,-1.1373 -1.3086,-1.3046 0.1055,-0.5539 0.6827,-0.3391 2.183,0.8124 10.9156,8.3783 19.3031,20.7022 24.0317,35.3106 1.7147,5.2974 3.1262,11.7637 3.6001,16.4933 0.1292,1.2886 0.1338,1.2769 0.4343,-1.0928 0.8737,-6.8899 3.098,-15.2428 5.7925,-21.7519 4.8859,-11.8035 12.6709,-22.1729 21.7961,-29.0318 1.4609,-1.0981 2.0152,-1.2872 2.0152,-0.6875 0,0.2001 -0.4701,0.662 -1.3859,1.3613 -15.0381,11.4851 -24.9998,30.2478 -27.5125,51.8193 -0.5483,4.7073 -0.664,13.6228 -0.236,18.1889 0.9963,10.6286 3.6413,20.3097 8.0032,29.292 3.6495,7.5154 7.7221,13.3428 13.3278,19.0704 1.2238,1.2504 2.2785,2.2736 2.3436,2.2736 0.065,0 0.1757,-0.3585 0.2457,-0.7965 l 0.1274,-0.7965 2.3661,3.1188 c 1.3014,1.7154 2.3406,3.1445 2.3094,3.1757 -0.031,0.031 -1.6667,-0.6811 -3.6343,-1.5831 l -3.5774,-1.6399 0.7075,-0.2685 c 0.389,-0.1477 0.7445,-0.3057 0.7898,-0.351 0.045,-0.045 -0.8204,-0.9806 -1.9239,-2.0784 -3.4915,-3.4735 -6.0263,-6.5585 -8.7502,-10.6497 -6.9365,-10.418 -11.3693,-22.734 -13.0101,-36.1465 -0.075,-0.6152 -0.1408,-0.8471 -0.1524,-0.5395 -0.028,0.7448 -0.5826,4.5166 -0.9518,6.474 -2.8423,15.0688 -9.1704,28.1939 -18.6068,38.5927 -0.9901,1.091 -2.3397,2.4709 -2.9991,3.0663 -0.6595,0.5954 -1.199,1.1372 -1.199,1.204 0,0.067 0.3469,0.2508 0.7709,0.4089 l 0.7708,0.2876 -3.5069,1.5987 c -1.9288,0.8793 -3.5589,1.6259 -3.6225,1.6591 -0.063,0.033 -0.1156,0.018 -0.1156,-0.033 z m -135.6007,-0.2931 c -0.9815,-0.3209 -1.8232,-1.0736 -2.3106,-2.0661 -0.3813,-0.7764 -0.4321,-1.0521 -0.4321,-2.3442 0,-1.2935 0.051,-1.5675 0.4337,-2.3476 0.9275,-1.8889 2.852,-2.6824 4.9719,-2.0499 1.6334,0.4873 2.6395,1.9152 2.7946,3.9662 0.2151,2.8435 -1.3208,4.8419 -3.8386,4.9947 -0.5695,0.034 -1.2384,-0.029 -1.6189,-0.1531 z m 2.9967,-1.4241 c 0.7457,-0.5944 1.1292,-1.3784 1.2327,-2.5197 0.1586,-1.7498 -0.4926,-3.1626 -1.7134,-3.7169 -1.5935,-0.7237 -3.3765,0.09 -3.875,1.7692 -0.8213,2.7655 0.5524,5.1343 2.8914,4.9861 0.7001,-0.044 1.0047,-0.1523 1.4643,-0.5187 z m -14.4485,-2.9862 0,-4.4702 0.6166,0 0.6165,0 0,1.8497 0,1.8498 2.3122,0 2.3121,0 0,-1.8498 0,-1.8497 0.6166,0 0.6166,0 0,4.4702 0,4.4701 -0.6166,0 -0.6166,0 0,-2.0809 0,-2.0809 -2.3121,0 -2.3122,0 0,2.0809 0,2.0809 -0.6165,0 -0.6166,0 0,-4.4701 z m -89.9744,3.1771 c -0.9815,-0.3208 -1.8232,-1.0735 -2.3106,-2.0661 -0.3813,-0.7764 -0.4321,-1.052 -0.4321,-2.3442 0,-1.2935 0.051,-1.5674 0.4337,-2.3475 0.9276,-1.8889 2.8521,-2.6824 4.9719,-2.05 1.6334,0.4873 2.6395,1.9153 2.7947,3.9663 0.215,2.8434 -1.3209,4.8418 -3.8387,4.9946 -0.5694,0.035 -1.2384,-0.029 -1.6189,-0.1531 z m 2.9968,-1.424 c 0.7456,-0.5944 1.1291,-1.3784 1.2326,-2.5197 0.1587,-1.7498 -0.4926,-3.1626 -1.7133,-3.717 -1.5936,-0.7236 -3.3766,0.09 -3.8751,1.7693 -0.8213,2.7654 0.5524,5.1343 2.8914,4.986 0.7001,-0.044 1.0047,-0.1522 1.4644,-0.5186 z m 51.7054,-0.8035 c -1.0109,-0.3617 -1.8964,-1.201 -2.3665,-2.2433 -0.2887,-0.6403 -0.3537,-1.0463 -0.3477,-2.1746 0.01,-1.5979 0.2119,-2.1907 1.0822,-3.154 0.9472,-1.0485 1.5918,-1.3044 3.301,-1.3107 1.5776,-0.01 2.3071,0.2397 3.037,1.0222 0.2834,0.3039 0.8166,1.3322 0.8166,1.5751 0,0.106 -1.5756,0.4203 -1.664,0.3319 -0.043,-0.043 -0.1539,-0.2281 -0.2472,-0.4122 -0.5056,-0.9969 -2.1173,-1.3464 -3.3262,-0.7213 -0.3809,0.197 -0.8172,0.5785 -0.9738,0.8515 -0.3789,0.6604 -0.4996,1.9868 -0.2684,2.9504 0.4309,1.796 2.3372,2.5202 4.2424,1.6117 0.4796,-0.2287 0.5416,-0.3256 0.5416,-0.8463 l 0,-0.588 -1.079,0 -1.079,0 0,-0.7708 0,-0.7707 1.9268,0 1.9268,0 0,1.8413 0,1.8413 -1.1353,0.5611 c -1.4553,0.7192 -3.0883,0.8702 -4.3872,0.4054 z m -10.5083,-4.354 0,-4.4835 2.5048,0.052 c 2.9214,0.061 3.3467,0.2076 3.9307,1.3597 0.62,1.2232 0.3893,2.633 -0.5619,3.4333 -0.6496,0.5466 -1.3758,0.729 -2.9063,0.7301 l -1.2717,0 0,1.6956 0,1.6955 -0.8478,0 -0.8478,0 0,-4.4834 z m 4.2549,-0.6094 c 0.513,-0.1951 0.8204,-0.5749 0.8269,-1.0218 0.014,-0.9332 -0.5939,-1.2843 -2.2225,-1.2843 l -1.1637,0 0,1.2331 0,1.2332 1.0689,0 c 0.588,0 1.2586,-0.072 1.4904,-0.1602 z m 13.3174,0.6226 0,-4.4701 1.4296,0 1.4296,0 0.7686,3.0982 0.7686,3.0982 0.7636,-3.0982 0.7637,-3.0982 1.4312,0 1.4313,0 0,4.4701 0,4.4702 -0.8478,0 -0.8478,0 -0.011,-3.5839 -0.011,-3.5838 -0.8673,3.5838 -0.8673,3.5839 -0.9408,0 -0.9408,0 -0.8672,-3.5839 -0.8673,-3.5838 -0.011,3.5838 -0.011,3.5839 -0.8478,0 -0.8478,0 0,-4.4702 z m 116.2691,2.5606 c -0.9815,-0.3209 -1.8232,-1.0735 -2.3106,-2.0661 -0.3813,-0.7764 -0.4321,-1.052 -0.4321,-2.3442 0,-1.2935 0.051,-1.5674 0.4337,-2.3475 0.9276,-1.8889 2.8521,-2.6824 4.9719,-2.05 1.6334,0.4873 2.6395,1.9153 2.7947,3.9663 0.215,2.8434 -1.3209,4.8418 -3.8387,4.9946 -0.5694,0.035 -1.2384,-0.029 -1.6189,-0.1531 z m 2.9968,-1.4241 c 0.7456,-0.5943 1.1291,-1.3783 1.2326,-2.5197 0.1587,-1.7497 -0.4926,-3.1625 -1.7133,-3.7169 -1.5936,-0.7237 -3.3766,0.09 -3.8751,1.7693 -0.8213,2.7654 0.5524,5.1343 2.8914,4.986 0.7001,-0.044 1.0047,-0.1522 1.4644,-0.5187 z m 157.7745,-6.283 c -0.9815,-0.3209 -1.8232,-1.0736 -2.3107,-2.0662 -0.3812,-0.7763 -0.432,-1.052 -0.432,-2.3442 0,-1.2934 0.051,-1.5674 0.4337,-2.3475 0.9275,-1.8889 2.852,-2.6824 4.9718,-2.05 1.6335,0.4874 2.6396,1.9153 2.7947,3.9663 0.2151,2.8434 -1.3208,4.8419 -3.8386,4.9947 -0.5695,0.034 -1.2384,-0.029 -1.6189,-0.1531 z m 2.9967,-1.4241 c 0.7456,-0.5944 1.1292,-1.3784 1.2327,-2.5197 0.1586,-1.7498 -0.4926,-3.1626 -1.7134,-3.717 -1.5935,-0.7236 -3.3765,0.091 -3.8751,1.7693 -0.8212,2.7655 0.5525,5.1343 2.8915,4.9861 0.7001,-0.044 1.0046,-0.1523 1.4643,-0.5187 z m 4.2028,-2.9863 0,-4.4701 0.6166,0 0.6166,0 0,1.8497 0,1.8497 2.3121,0 2.3121,0 0,-1.8497 0,-1.8497 0.6166,0 0.6166,0 0,4.4701 0,4.4702 -0.6166,0 -0.6166,0 0,-2.0809 0,-2.081 -2.3121,0 -2.3121,0 0,2.081 0,2.0809 -0.6166,0 -0.6166,0 0,-4.4702 z m 14.5347,3.9479 c -0.9815,-0.3208 -1.8233,-1.0735 -2.3107,-2.0661 -0.3812,-0.7764 -0.432,-1.052 -0.432,-2.3442 0,-1.2935 0.051,-1.5674 0.4337,-2.3475 0.9275,-1.8889 2.852,-2.6824 4.9718,-2.05 1.6334,0.4873 2.6396,1.9153 2.7947,3.9663 0.2151,2.8434 -1.3208,4.8418 -3.8386,4.9946 -0.5695,0.035 -1.2384,-0.029 -1.6189,-0.1531 z m 2.9967,-1.4241 c 0.7456,-0.5943 1.1292,-1.3783 1.2327,-2.5196 0.1586,-1.7498 -0.4926,-3.1626 -1.7134,-3.717 -1.5935,-0.7236 -3.3765,0.09 -3.8751,1.7693 -0.8212,2.7654 0.5525,5.1343 2.8915,4.986 0.7001,-0.044 1.0046,-0.1522 1.4643,-0.5187 z m 4.0486,-2.9862 0,-4.4701 0.6166,0 0.6166,0 0,1.8497 0,1.8497 2.3121,0 2.3122,0 0,-1.8497 0,-1.8497 0.6166,0 0.6165,0 0,4.4701 0,4.4702 -0.6165,0 -0.6166,0 0,-2.081 0,-2.0809 -2.3122,0 -2.3121,0 0,2.0809 0,2.081 -0.6166,0 -0.6166,0 0,-4.4702 z m -377.614,-1.8492 c -0.2767,-0.1687 -0.621,-0.554 -0.7651,-0.8563 -0.2278,-0.4778 -0.2326,-0.5684 -0.037,-0.6924 0.383,-0.2422 0.566,-0.1657 0.7676,0.3209 0.2287,0.5523 0.5699,0.7649 1.2275,0.7649 0.9083,0 1.5167,-1.0377 1.0834,-1.8475 -0.1842,-0.3442 -1.0821,-0.6676 -1.4556,-0.5242 -0.2129,0.082 -0.2576,0.032 -0.2162,-0.2424 0.037,-0.2433 0.2296,-0.406 0.6532,-0.551 0.914,-0.3127 1.1309,-0.8832 0.5549,-1.4592 -0.5736,-0.5737 -1.7503,-0.221 -2.0264,0.6072 -0.045,0.136 -0.1841,0.1676 -0.4146,0.094 -0.4377,-0.1389 -0.3333,-0.5881 0.2844,-1.2238 0.6125,-0.6306 1.7111,-0.7307 2.453,-0.2237 0.851,0.5815 1.0091,1.6562 0.3293,2.2382 -0.2813,0.2409 -0.2736,0.2652 0.2354,0.7453 1.6244,1.532 -0.7266,4.0371 -2.6742,2.8496 z m -25.2709,-2.3725 c -0.9814,-0.3209 -1.8232,-1.0735 -2.3106,-2.0661 -0.3813,-0.7764 -0.4321,-1.052 -0.4321,-2.3442 0,-1.2935 0.051,-1.5674 0.4337,-2.3475 0.9276,-1.8889 2.8521,-2.6824 4.9719,-2.05 1.6334,0.4873 2.6396,1.9153 2.7947,3.9663 0.215,2.8434 -1.3208,4.8418 -3.8386,4.9946 -0.5695,0.035 -1.2384,-0.029 -1.619,-0.1531 z m 2.9968,-1.4241 c 0.7456,-0.5943 1.1291,-1.3783 1.2326,-2.5197 0.1587,-1.7497 -0.4925,-3.1625 -1.7133,-3.7169 -1.5935,-0.7236 -3.3765,0.09 -3.8751,1.7693 -0.8213,2.7654 0.5525,5.1343 2.8914,4.986 0.7002,-0.044 1.0047,-0.1522 1.4644,-0.5187 z m 14.7297,1.4241 c -0.9815,-0.3209 -1.8232,-1.0735 -2.3106,-2.0661 -0.3813,-0.7764 -0.4321,-1.052 -0.4321,-2.3442 0,-1.2935 0.051,-1.5674 0.4337,-2.3475 0.9276,-1.8889 2.852,-2.6824 4.9719,-2.05 1.6334,0.4873 2.6395,1.9153 2.7946,3.9663 0.2151,2.8434 -1.3208,4.8418 -3.8386,4.9946 -0.5694,0.035 -1.2384,-0.029 -1.6189,-0.1531 z m 2.9968,-1.4241 c 0.7456,-0.5943 1.1291,-1.3783 1.2326,-2.5197 0.1587,-1.7497 -0.4926,-3.1625 -1.7133,-3.7169 -1.5936,-0.7236 -3.3766,0.09 -3.8751,1.7693 -0.8213,2.7654 0.5524,5.1343 2.8914,4.986 0.7001,-0.044 1.0047,-0.1522 1.4644,-0.5187 z m -13.6779,-2.9862 0,-4.4701 2.0898,0 c 1.1493,0 2.398,0.078 2.7747,0.1724 1.6157,0.4069 2.2831,2.4983 1.3076,4.0975 -0.5023,0.8236 -1.0876,1.0289 -3.1277,1.097 l -1.8112,0.061 0,1.7564 0,1.7565 -0.6166,0 -0.6166,0 0,-4.4702 z m 4.5257,-0.3664 c 0.9651,-0.4032 1.1547,-1.9583 0.3264,-2.6779 -0.3591,-0.3121 -0.5605,-0.3468 -2.009,-0.3468 l -1.6099,0 0,1.6185 0,1.6185 1.3922,0 c 0.8336,0 1.5961,-0.085 1.9003,-0.2123 z m 166.4642,0.6148 c -0.9814,-0.3208 -1.8232,-1.0735 -2.3106,-2.0661 -0.3813,-0.7763 -0.4321,-1.052 -0.4321,-2.3442 0,-1.2934 0.051,-1.5674 0.4337,-2.3475 0.9276,-1.8889 2.8521,-2.6824 4.9719,-2.05 1.6334,0.4874 2.6396,1.9153 2.7947,3.9663 0.215,2.8434 -1.3208,4.8418 -3.8386,4.9946 -0.5695,0.035 -1.2384,-0.029 -1.619,-0.1531 z m 2.9968,-1.424 c 0.7456,-0.5944 1.1291,-1.3784 1.2326,-2.5197 0.1587,-1.7498 -0.4925,-3.1626 -1.7133,-3.7169 -1.5935,-0.7237 -3.3765,0.09 -3.8751,1.7692 -0.8213,2.7655 0.5525,5.1343 2.8914,4.9861 0.7002,-0.044 1.0047,-0.1523 1.4644,-0.5187 z m 4.2028,-2.9863 0,-4.4701 0.6165,0 0.6166,0 0,1.8497 0,1.8497 2.3122,0 2.3121,0 0,-1.8497 0,-1.8497 0.6166,0 0.6166,0 0,4.4701 0,4.4702 -0.6166,0 -0.6166,0 0,-2.0809 0,-2.081 -2.3121,0 -2.3122,0 0,2.081 0,2.0809 -0.6166,0 -0.6165,0 0,-4.4702 z m -155.8387,3.5352 c 0,-0.3959 0.4403,-0.9347 1.944,-2.3791 1.3798,-1.3253 1.6046,-1.6101 1.603,-2.0312 0,-1.0253 -1.4764,-1.5178 -2.2438,-0.7504 -0.2081,0.2081 -0.3784,0.4856 -0.3784,0.6166 0,0.2618 -0.2687,0.3074 -0.5945,0.101 -0.246,-0.1559 -0.1168,-0.7155 0.2656,-1.1502 1.2943,-1.4715 3.9225,-0.5353 3.6751,1.3092 -0.1039,0.7745 -0.6148,1.4375 -1.9612,2.5452 -0.5922,0.4871 -1.0767,0.9412 -1.0767,1.0091 0,0.068 0.6937,0.1234 1.5415,0.1234 1.5414,0 1.5414,0 1.5414,0.3853 l 0,0.3854 -2.158,0 c -1.4247,0 -2.158,-0.056 -2.158,-0.1643 z m 4.9326,-2.0708 c 0,-0.1952 0.3596,-0.2312 2.3121,-0.2312 1.9525,0 2.3122,0.036 2.3122,0.2312 0,0.1953 -0.3597,0.2312 -2.3122,0.2312 -1.9525,0 -2.3121,-0.036 -2.3121,-0.2312 z m 420.23927,-25.4164 c -0.9815,-0.3208 -1.8232,-1.0735 -2.3107,-2.0661 -0.3812,-0.7764 -0.432,-1.052 -0.432,-2.3442 0,-1.2935 0.051,-1.5674 0.4337,-2.3475 0.9275,-1.8889 2.852,-2.6824 4.97185,-2.05 1.63341,0.4873 2.63956,1.9153 2.79468,3.9663 0.21506,2.8434 -1.32082,4.8418 -3.83863,4.9946 -0.5695,0.035 -1.2384,-0.029 -1.6189,-0.1531 z m 2.99674,-1.4241 c 0.74561,-0.5943 1.12915,-1.3783 1.23264,-2.5196 0.15866,-1.7498 -0.49257,-3.1626 -1.71333,-3.717 -1.59355,-0.7236 -3.37655,0.09 -3.87515,1.7693 -0.8212,2.7654 0.5525,5.1343 2.8915,4.986 0.7001,-0.044 1.00466,-0.1522 1.46434,-0.5187 z m 17.50428,1.4241 c -0.98148,-0.3208 -1.82322,-1.0735 -2.31064,-2.0661 -0.38126,-0.7764 -0.43206,-1.052 -0.43206,-2.3442 0,-1.2935 0.0506,-1.5674 0.43369,-2.3475 0.92756,-1.8889 2.85205,-2.6824 4.97188,-2.05 1.6334,0.4873 2.63956,1.9153 2.79467,3.9663 0.21506,2.8434 -1.32082,4.8418 -3.83862,4.9946 -0.56949,0.035 -1.23841,-0.029 -1.61892,-0.1531 z m 2.99676,-1.4241 c 0.7456,-0.5943 1.12914,-1.3783 1.23263,-2.5196 0.15866,-1.7498 -0.49256,-3.1626 -1.71333,-3.717 -1.59353,-0.7236 -3.37654,0.09 -3.8751,1.7693 -0.82126,2.7654 0.55247,5.1343 2.89144,4.986 0.70011,-0.044 1.00467,-0.1522 1.46436,-0.5187 z m 37.90696,0.1892 c -0.6893,-0.2563 -1.25838,-0.7497 -1.61822,-1.4027 -0.21101,-0.383 -0.26363,-1.0651 -0.30625,-3.9692 l -0.0515,-3.5068 0.8519,0 0.85192,0 0.047,3.3109 0.047,3.3109 0.41017,0.4099 c 0.81687,0.8162 2.70412,0.6044 3.06467,-0.3439 0.0811,-0.2134 0.14752,-1.8054 0.14752,-3.5379 l 0,-3.1499 0.8604,0 0.86041,0 -0.0512,3.5068 c -0.0593,4.0681 -0.15929,4.4419 -1.36796,5.116 -0.84087,0.469 -2.8112,0.6036 -3.74599,0.2559 z m 9.32836,-0.068 c -1.01098,-0.3617 -1.89641,-1.2011 -2.36651,-2.2433 -0.28878,-0.6403 -0.3537,-1.0464 -0.34772,-2.1746 0.008,-1.598 0.21184,-2.1907 1.08215,-3.1541 0.9472,-1.0484 1.59188,-1.3044 3.30103,-1.3107 1.57763,-0.01 2.30711,0.2398 3.03698,1.0222 0.28346,0.3039 0.8166,1.3323 0.8166,1.5752 0,0.1059 -1.57562,0.4202 -1.66396,0.3319 -0.0427,-0.043 -0.15391,-0.2282 -0.24726,-0.4122 -0.50553,-0.997 -2.11728,-1.3465 -3.32612,-0.7213 -0.38093,0.197 -0.81725,0.5784 -0.97387,0.8515 -0.37889,0.6604 -0.49953,1.9868 -0.26837,2.9504 0.43087,1.796 2.33715,2.5202 4.24238,1.6116 0.47961,-0.2287 0.54163,-0.3256 0.54163,-0.8463 l 0,-0.588 -1.07901,0 -1.079,0 0,-0.7707 0,-0.7707 1.92679,0 1.92679,0 0,1.8413 0,1.8413 -1.13525,0.561 c -1.45529,0.7193 -3.08832,0.8702 -4.38728,0.4055 z m 7.2181,-4.3408 0,-4.4702 3.23701,0 3.237,0 0,0.7707 0,0.7707 -2.38921,0 -2.38922,0 0,1.002 0,1.0019 2.23507,0 2.23508,0 0,0.7707 0,0.7707 -2.23508,0 -2.23507,0 0,1.1561 0,1.1561 2.46629,0 2.46629,0 0,0.7707 0,0.7707 -3.31408,0 -3.31408,0 0,-4.4701 z m -265.87017,-0.5918 c -1.011,-0.3617 -1.8964,-1.201 -2.3666,-2.2433 -0.2887,-0.6403 -0.3537,-1.0464 -0.3477,-2.1746 0.01,-1.598 0.2119,-2.1907 1.0822,-3.1541 0.9472,-1.0484 1.5919,-1.3044 3.301,-1.3107 1.5776,-0.01 2.3071,0.2398 3.037,1.0222 0.2835,0.3039 0.8166,1.3323 0.8166,1.5752 0,0.1059 -1.5756,0.4203 -1.664,0.3319 -0.043,-0.043 -0.1539,-0.2281 -0.2472,-0.4122 -0.5056,-0.997 -2.1173,-1.3465 -3.3261,-0.7213 -0.381,0.197 -0.8173,0.5785 -0.9739,0.8515 -0.3789,0.6604 -0.4996,1.9868 -0.2684,2.9504 0.4309,1.796 2.3372,2.5202 4.2424,1.6117 0.4796,-0.2287 0.5416,-0.3256 0.5416,-0.8463 l 0,-0.5881 -1.079,0 -1.079,0 0,-0.7707 0,-0.7707 1.9268,0 1.9268,0 0,1.8413 0,1.8413 -1.1353,0.5611 c -1.4553,0.7192 -3.0883,0.8701 -4.3872,0.4054 z m 6.6854,-0.9111 c 0.2122,-0.5723 0.965,-2.5665 1.673,-4.4316 l 1.2873,-3.3912 0.8809,0 0.8809,0 1.3748,3.6224 c 0.7562,1.9923 1.512,3.9865 1.6796,4.4316 l 0.3048,0.8092 -0.9101,0 -0.9101,0 -0.3334,-1.0019 -0.3335,-1.0019 -1.7475,0 -1.7475,0 -0.3334,1.0019 -0.3334,1.0019 -0.909,0 -0.9091,0 0.3857,-1.0404 z m 5.001,-2.5434 c 0,-0.021 -0.2635,-0.7487 -0.5833,-1.6168 l -0.5815,-1.5782 -0.5672,1.6168 -0.5671,1.6167 1.1505,0 c 0.6327,0 1.1496,-0.017 1.1486,-0.038 z m 4.472,-0.8863 0,-4.4702 0.8478,0 0.8477,0 0,3.6995 0,3.6994 2.3122,0 2.3121,0 0,0.7707 0,0.7707 -3.1599,0 -3.1599,0 0,-4.4701 z m 9.4027,0.7707 0,-3.6994 -1.3102,0 -1.3102,0 0,-0.7707 0,-0.7708 3.4682,0 3.4682,0 0,0.7708 0,0.7707 -1.3102,0 -1.3102,0 0,3.6994 0,3.6994 -0.8478,0 -0.8478,0 0,-3.6994 z m 189.13356,2.6975 c 0,-0.1952 0.35966,-0.2312 2.31215,-0.2312 1.95248,0 2.31214,0.036 2.31214,0.2312 0,0.1953 -0.35966,0.2312 -2.31214,0.2312 -1.95249,0 -2.31215,-0.036 -2.31215,-0.2312 z m -21.31604,-1.657 c -0.23146,-0.1733 -0.0815,-0.4964 1.49106,-3.2133 0.96162,-1.6614 1.81474,-3.1392 1.89584,-3.2841 0.13817,-0.247 0.1692,-0.2459 0.49449,0.018 l 0.34705,0.281 -1.82232,3.1897 c -1.00229,1.7543 -1.89578,3.1924 -1.98555,3.1957 -0.0898,0 -0.27902,-0.081 -0.42057,-0.1866 z m 10.43118,-5.5727 c -2.5765,-4.4611 -2.91636,-5.1259 -2.70657,-5.2944 0.13195,-0.106 0.31336,-0.1917 0.40311,-0.1906 0.15271,0 5.8141,9.6524 5.91107,10.0759 0.0245,0.1071 -0.11424,0.2658 -0.30829,0.3527 -0.33854,0.1518 -0.47214,-0.048 -3.29932,-4.9436 z m -12.97207,4.0964 -0.3455,-0.2606 2.12951,-3.6882 c 1.17122,-2.0286 2.19758,-3.711 2.28082,-3.7387 0.0832,-0.028 0.27274,0.038 0.42115,0.1469 0.2472,0.1807 0.0869,0.514 -1.90999,3.9712 -1.19889,2.0757 -2.19122,3.7866 -2.20515,3.802 -0.0139,0.015 -0.18081,-0.089 -0.37084,-0.2326 z m -47.79363,-4.0568 c -0.7222,-0.3575 -1.3231,-1.1418 -1.4885,-1.9429 -0.094,-0.4572 -0.07,-0.5009 0.2749,-0.5009 0.2081,0 0.5952,-0.043 0.8601,-0.096 0.3736,-0.075 0.4817,-0.043 0.4817,0.1423 0,0.1313 0.1796,0.4521 0.399,0.713 0.5928,0.7044 1.4344,0.6344 1.8418,-0.1534 0.561,-1.0849 -0.043,-2.2393 -1.107,-2.1151 -0.5294,0.062 -0.5416,0.051 -0.4536,-0.3888 0.05,-0.2488 0.091,-0.5477 0.091,-0.6643 0,-0.1165 0.1387,-0.2119 0.3083,-0.2119 0.776,0 1.2252,-1.2218 0.643,-1.7488 -0.5285,-0.4782 -1.2546,-0.2285 -1.4898,0.5124 -0.084,0.2636 -0.1905,0.291 -0.8193,0.2103 -0.3977,-0.051 -0.7846,-0.1489 -0.8598,-0.2173 -0.077,-0.07 0.023,-0.4457 0.2312,-0.8663 0.2775,-0.5596 0.5384,-0.8297 1.0615,-1.0989 2.4068,-1.2383 5.0418,1.4236 3.2446,3.2778 l -0.4897,0.5053 0.5569,0.3286 c 0.6975,0.4115 1.0647,1.2282 0.962,2.1394 -0.2205,1.9569 -2.4171,3.0821 -4.2478,2.1759 z m 53.15339,-7.8388 0,-4.4702 2.08975,0 c 1.14935,0 2.39797,0.078 2.77469,0.1725 1.6157,0.4068 2.28316,2.4983 1.30765,4.0975 -0.50237,0.8236 -1.08759,1.0288 -3.12777,1.097 l -1.81118,0.061 0,1.7564 0,1.7564 -0.61657,0 -0.61657,0 0,-4.4701 z m 4.52561,-0.3664 c 0.96512,-0.4033 1.15471,-1.9583 0.3265,-2.678 -0.35913,-0.312 -0.56055,-0.3468 -2.00907,-0.3468 l -1.6099,0 0,1.6185 0,1.6185 1.39224,0 c 0.83357,0 1.59609,-0.085 1.90023,-0.2122 z m 2.51691,-3.6093 c -0.2353,-0.26 -0.0603,-0.4657 2.97493,-3.4984 3.21501,-3.2123 3.22591,-3.2213 3.54716,-2.9306 l 0.32223,0.2916 -3.20408,3.2068 c -1.76224,1.7638 -3.24596,3.2068 -3.29717,3.2068 -0.0512,0 -0.20558,-0.1243 -0.34307,-0.2762 z m -11.17566,-3.3174 -2.81708,-2.8201 0.3226,-0.292 c 0.3216,-0.2911 0.3308,-0.2837 3.12587,2.5114 l 2.80329,2.8033 -0.30881,0.3088 -0.30879,0.3088 -2.81708,-2.8202 z m -458.45035,-3.6029 0,-3.1887 -0.4239,0.3861 c -0.4588,0.4179 -1.0359,0.7923 -1.4643,0.9499 -0.2361,0.087 -0.2698,-0.01 -0.2698,-0.7406 0,-0.817 0.016,-0.8479 0.585,-1.1382 0.596,-0.3041 1.8813,-1.5765 1.8813,-1.8624 0,-0.087 0.3122,-0.1576 0.6937,-0.1576 l 0.6936,0 0,4.4701 0,4.4702 -0.8478,0 -0.8478,0 0,-3.1888 z m 187.2839,3.0621 c 0,-0.07 0.1162,-0.4685 0.2583,-0.8863 0.2021,-0.5945 0.6163,-1.1282 1.906,-2.4552 1.7968,-1.8489 1.9976,-2.1346 1.9976,-2.8415 0,-1.3416 -1.9475,-1.4736 -2.2379,-0.1517 -0.104,0.4737 -0.1057,0.4744 -0.8985,0.3677 -0.4368,-0.059 -0.8162,-0.1267 -0.8429,-0.151 -0.1217,-0.1102 0.3146,-1.3109 0.6151,-1.6929 0.767,-0.9752 2.4542,-1.2768 3.6693,-0.6559 0.9829,0.5023 1.3137,1.0299 1.3118,2.0923 0,1.2262 -0.3589,1.8419 -1.9902,3.4354 l -1.3994,1.367 1.7341,0 1.7342,0 0,0.8478 0,0.8478 -2.9288,0 c -1.6108,0 -2.9287,-0.057 -2.9287,-0.1267 z m 262.85917,-2.0911 c -0.9815,-0.3209 -1.8232,-1.0736 -2.3106,-2.0662 -0.3813,-0.7763 -0.4321,-1.052 -0.4321,-2.3442 0,-1.2934 0.051,-1.5674 0.4337,-2.3475 0.9276,-1.8889 2.8521,-2.6824 4.9719,-2.05 1.6334,0.4874 2.6395,1.9153 2.7947,3.9663 0.215,2.8434 -1.3209,4.8419 -3.8387,4.9947 -0.5694,0.034 -1.2384,-0.029 -1.6189,-0.1531 z m 2.9968,-1.4241 c 0.7456,-0.5944 1.1291,-1.3784 1.2326,-2.5197 0.1587,-1.7498 -0.4926,-3.1626 -1.7133,-3.717 -1.5935,-0.7236 -3.3766,0.09 -3.8751,1.7693 -0.8213,2.7655 0.5524,5.1343 2.8914,4.9861 0.7001,-0.044 1.0047,-0.1523 1.4644,-0.5187 z m 25.87834,1.4479 c -0.89324,-0.2364 -1.72095,-1.1432 -1.92901,-2.1133 -0.0937,-0.437 -0.1704,-2.1438 -0.1704,-3.7928 l 0,-2.9982 0.61657,0 0.61657,0 0.009,3.1214 c 0.01,3.415 0.11054,3.9742 0.81186,4.4942 0.34227,0.2538 0.66078,0.3228 1.4916,0.3228 0.83081,0 1.14932,-0.069 1.49159,-0.3228 0.70132,-0.52 0.80233,-1.0792 0.81186,-4.4942 l 0.009,-3.1214 0.61657,0 0.61657,0 0,2.9982 c 0,3.6378 -0.13139,4.3779 -0.91666,5.1632 -0.86249,0.8625 -2.49667,1.1604 -4.07451,0.7429 z m 6.68674,-4.4412 0,-4.4772 1.02199,0.046 1.02198,0.046 1.09576,3.7203 1.09574,3.7203 0.8152,-2.7184 c 0.44836,-1.4951 0.95496,-3.1866 1.1258,-3.7588 l 0.3106,-1.0405 0.99539,0 0.99541,0 0,4.4701 0,4.4702 -0.61387,0 -0.61389,0 -0.0412,-3.8068 -0.0412,-3.8069 -1.09869,3.7683 -1.09868,3.7683 -0.74317,0 -0.74317,0 -1.08687,-3.7659 -1.08686,-3.766 -0.0412,3.8045 -0.0412,3.8045 -0.61389,0 -0.61388,0 0,-4.4772 z m 10.32759,0.01 0,-4.4701 2.08975,0 c 1.14935,0 2.39797,0.078 2.7747,0.1725 1.6157,0.4068 2.28315,2.4983 1.30764,4.0975 -0.50237,0.8236 -1.08758,1.0288 -3.12776,1.097 l -1.81118,0.061 0,1.7564 0,1.7564 -0.61658,0 -0.61657,0 0,-4.4702 z m 4.52561,-0.3664 c 0.96512,-0.4032 1.15472,-1.9583 0.32651,-2.6779 -0.35914,-0.312 -0.56056,-0.3468 -2.00907,-0.3468 l -1.6099,0 0,1.6185 0,1.6185 1.39223,0 c 0.83358,0 1.59609,-0.085 1.90023,-0.2123 z m -49.38138,-12.6972 -10e-5,-7.3603 -12.88317,-2.9806 c -7.0858,-1.6393 -12.9179,-2.9459 -12.9602,-2.9036 -0.042,0.042 1.2118,2.3084 2.787,5.0358 1.5751,2.7273 2.8639,5.02 2.8639,5.0947 0,0.1393 -0.6094,0.521 -0.6849,0.429 -0.023,-0.028 -1.517,-2.6175 -3.3199,-5.7543 -1.8029,-3.1368 -3.357,-5.7884 -3.4535,-5.8924 -0.1372,-0.1477 -3.128,0.6484 -13.6846,3.6426 l -13.5091,3.8316 -8.0527,-1.8278 c -4.429,-1.0054 -8.0858,-1.8609 -8.1262,-1.9013 -0.04,-0.04 -0.032,-0.2387 0.019,-0.4408 l 0.092,-0.3673 5.6556,1.2847 c 3.1106,0.7066 5.6856,1.2547 5.7223,1.2181 0.064,-0.064 -11.7775,-23.6522 -11.9696,-23.8419 -0.052,-0.052 -2.2454,0.4865 -4.8736,1.196 -2.6281,0.7096 -5.8017,1.561 -7.0524,1.8921 l -2.274,0.6019 -0.095,-0.3793 c -0.052,-0.2087 -0.069,-0.4052 -0.038,-0.4367 0.032,-0.032 3.3173,-0.9325 7.3017,-2.0023 l 7.2445,-1.9449 12.7939,3.6914 c 7.0366,2.0302 12.81,3.6756 12.8298,3.6563 0.02,-0.019 -3.2577,-2.2502 -7.2831,-4.9575 -4.0254,-2.7073 -7.319,-4.9805 -7.3191,-5.0514 -2e-4,-0.071 1.6121,-2.923 3.5827,-6.3379 3.4293,-5.9427 3.5979,-6.2022 3.9307,-6.0506 0.1912,0.087 0.3477,0.2127 0.3477,0.2789 0,0.066 -1.53,2.768 -3.3999,6.0039 -1.8699,3.2358 -3.3786,5.9005 -3.3526,5.9216 0.026,0.021 3.6889,2.4917 8.1398,5.4903 4.5587,3.0712 8.2271,5.443 8.4008,5.4315 0.1695,-0.011 5.2875,-1.4516 11.3733,-3.2009 6.0858,-1.7493 11.1237,-3.1443 11.1953,-3.1 0.072,0.044 0.1666,0.2193 0.211,0.3891 0.07,0.2669 -0.058,0.3492 -0.9448,0.6088 -0.5641,0.1651 -5.7601,1.6584 -11.5467,3.3184 l -10.5212,3.0182 -13.6335,-3.9329 c -7.4983,-2.1631 -13.6669,-3.9329 -13.7078,-3.9329 -0.057,0 14.5867,22.8784 14.7785,23.0897 0.023,0.025 6.4103,-1.7613 14.1949,-3.9692 7.7845,-2.208 14.2613,-4.0128 14.3928,-4.0107 0.1314,0 6.0656,2.0058 13.1871,4.4527 7.1214,2.447 12.96967,4.4293 12.99617,4.4053 0.026,-0.024 -2.3839,-4.2758 -5.35647,-9.4484 -2.9725,-5.1725 -5.4047,-9.4636 -5.4047,-9.5357 0,-0.072 0.1374,-0.2169 0.3052,-0.3217 0.2623,-0.1638 0.3357,-0.1419 0.5226,0.1556 0.1197,0.1904 2.7569,4.7669 5.8606,10.1701 l 5.64307,9.8239 0,7.5557 0,7.5557 -0.4624,0 -0.4625,0 -1e-4,-7.3603 z m -19.22257,6.5298 c -0.9814,-0.3209 -1.8232,-1.0735 -2.3106,-2.0661 -0.3813,-0.7764 -0.4321,-1.0521 -0.4321,-2.3442 0,-1.2935 0.051,-1.5674 0.4337,-2.3476 0.9276,-1.8889 2.8521,-2.6824 4.9719,-2.0499 1.6334,0.4873 2.6396,1.9152 2.7947,3.9663 0.215,2.8434 -1.3208,4.8418 -3.8386,4.9946 -0.5695,0.035 -1.2385,-0.029 -1.619,-0.1531 z m 2.9968,-1.4241 c 0.7456,-0.5943 1.1291,-1.3784 1.2326,-2.5197 0.1587,-1.7498 -0.4925,-3.1625 -1.7133,-3.7169 -1.5935,-0.7237 -3.3765,0.09 -3.8751,1.7692 -0.8213,2.7655 0.5525,5.1344 2.8914,4.9861 0.7001,-0.044 1.0047,-0.1523 1.4644,-0.5187 z m 4.0486,-2.9862 0,-4.4702 0.6166,0 0.6166,0 0,1.8498 0,1.8497 2.3121,0 2.3122,0 0,-1.8497 0,-1.8498 0.6165,0 0.6166,0 0,4.4702 0,4.4701 -0.6166,0 -0.6165,0 0,-2.0809 0,-2.0809 -2.3122,0 -2.3121,0 0,2.0809 0,2.0809 -0.6166,0 -0.6166,0 0,-4.4701 z m -188.018,2.9292 c -0.2767,-0.1687 -0.6209,-0.554 -0.7651,-0.8563 -0.2278,-0.4778 -0.2326,-0.5684 -0.036,-0.6924 0.3829,-0.2422 0.5659,-0.1657 0.7675,0.3209 0.2287,0.5523 0.5699,0.7649 1.2275,0.7649 0.9083,0 1.5167,-1.0377 1.0834,-1.8475 -0.1842,-0.3442 -1.0821,-0.6676 -1.4556,-0.5242 -0.2129,0.082 -0.2576,0.032 -0.2162,-0.2424 0.037,-0.2433 0.2296,-0.406 0.6532,-0.551 0.914,-0.3127 1.1309,-0.8832 0.5549,-1.4592 -0.5736,-0.5736 -1.7503,-0.221 -2.0264,0.6072 -0.045,0.136 -0.1841,0.1676 -0.4146,0.094 -0.4377,-0.1389 -0.3333,-0.588 0.2844,-1.2238 0.6125,-0.6305 1.7111,-0.7307 2.453,-0.2237 0.851,0.5815 1.0091,1.6562 0.3293,2.2382 -0.2813,0.2409 -0.2736,0.2652 0.2354,0.7453 1.6244,1.532 -0.7266,4.0371 -2.6742,2.8496 z m -25.425,-2.3725 c -0.9815,-0.3208 -1.8232,-1.0735 -2.3106,-2.0661 -0.3813,-0.7764 -0.4321,-1.052 -0.4321,-2.3442 0,-1.2935 0.051,-1.5674 0.4337,-2.3475 0.9276,-1.8889 2.8521,-2.6824 4.9719,-2.05 1.6334,0.4873 2.6395,1.9153 2.7947,3.9663 0.215,2.8434 -1.3209,4.8418 -3.8387,4.9946 -0.5695,0.035 -1.2384,-0.029 -1.6189,-0.1531 z m 2.9968,-1.4241 c 0.7456,-0.5943 1.1291,-1.3783 1.2326,-2.5197 0.1587,-1.7497 -0.4926,-3.1625 -1.7133,-3.7169 -1.5936,-0.7236 -3.3766,0.09 -3.8751,1.7693 -0.8213,2.7654 0.5524,5.1343 2.8914,4.986 0.7001,-0.044 1.0047,-0.1522 1.4644,-0.5187 z m 14.8838,1.4241 c -0.9815,-0.3208 -1.8232,-1.0735 -2.3106,-2.0661 -0.3813,-0.7764 -0.4321,-1.052 -0.4321,-2.3442 0,-1.2935 0.051,-1.5674 0.4337,-2.3475 0.9276,-1.8889 2.8521,-2.6824 4.9719,-2.05 1.6334,0.4873 2.6395,1.9153 2.7947,3.9663 0.215,2.8434 -1.3209,4.8418 -3.8387,4.9946 -0.5695,0.035 -1.2384,-0.029 -1.6189,-0.1531 z m 2.9968,-1.4241 c 0.7456,-0.5943 1.1291,-1.3783 1.2326,-2.5197 0.1587,-1.7497 -0.4926,-3.1625 -1.7133,-3.7169 -1.5936,-0.7236 -3.3766,0.09 -3.8751,1.7693 -0.8213,2.7654 0.5524,5.1343 2.8914,4.986 0.7001,-0.044 1.0047,-0.1522 1.4644,-0.5187 z m -13.832,-2.9862 0,-4.4701 2.0897,0 c 1.1494,0 2.398,0.078 2.7747,0.1724 1.6157,0.4069 2.2832,2.4983 1.3077,4.0975 -0.5024,0.8236 -1.0876,1.0289 -3.1278,1.097 l -1.8112,0.061 0,1.7564 0,1.7565 -0.6165,0 -0.6166,0 0,-4.4702 z m 4.5256,-0.3664 c 0.9651,-0.4032 1.1547,-1.9583 0.3265,-2.6779 -0.3591,-0.3121 -0.5605,-0.3468 -2.0091,-0.3468 l -1.6099,0 0,1.6185 0,1.6185 1.3923,0 c 0.8336,0 1.5961,-0.085 1.9002,-0.2123 z m -201.9377,1.848 c -0.9815,-0.3209 -1.8233,-1.0735 -2.3107,-2.0661 -0.3812,-0.7764 -0.432,-1.052 -0.432,-2.3442 0,-1.2935 0.051,-1.5674 0.4337,-2.3475 0.9275,-1.889 2.852,-2.6825 4.9718,-2.05 1.6334,0.4873 2.6396,1.9153 2.7947,3.9663 0.2151,2.8434 -1.3208,4.8418 -3.8386,4.9946 -0.5695,0.035 -1.2384,-0.029 -1.6189,-0.1531 z m 2.9967,-1.4241 c 0.7456,-0.5943 1.1292,-1.3784 1.2327,-2.5197 0.1586,-1.7497 -0.4926,-3.1625 -1.7134,-3.7169 -1.5935,-0.7237 -3.3765,0.09 -3.8751,1.7692 -0.8212,2.7655 0.5525,5.1344 2.8915,4.9861 0.7001,-0.044 1.0046,-0.1523 1.4643,-0.5187 z m 4.0486,-2.9862 0,-4.4702 0.6166,0 0.6166,0 0,1.8498 0,1.8497 2.3121,0 2.3122,0 0,-1.8497 0,-1.8498 0.6166,0 0.6165,0 0,4.4702 0,4.4701 -0.6165,0 -0.6166,0 0,-2.0809 0,-2.0809 -2.3122,0 -2.3121,0 0,2.0809 0,2.0809 -0.6166,0 -0.6166,0 0,-4.4701 z m 212.7175,2.302 c 0,-0.3958 0.4404,-0.9347 1.9441,-2.3791 1.3798,-1.3253 1.6045,-1.6101 1.603,-2.0312 0,-1.0253 -1.4764,-1.5178 -2.2439,-0.7504 -0.208,0.2081 -0.3783,0.4856 -0.3783,0.6166 0,0.2618 -0.2687,0.3074 -0.5945,0.101 -0.246,-0.1559 -0.1168,-0.7155 0.2655,-1.1502 1.2944,-1.4715 3.9225,-0.5353 3.6751,1.3092 -0.1038,0.7745 -0.6147,1.4375 -1.9612,2.5451 -0.5921,0.4872 -1.0766,0.9413 -1.0766,1.0092 0,0.068 0.6936,0.1234 1.5414,0.1234 1.5415,0 1.5415,0 1.5415,0.3853 l 0,0.3854 -2.158,0 c -1.4247,0 -2.1581,-0.056 -2.1581,-0.1643 z m 5.0868,-2.0708 c 0,-0.1952 0.3596,-0.2312 2.3121,-0.2312 1.9525,0 2.3122,0.036 2.3122,0.2312 0,0.1953 -0.3597,0.2312 -2.3122,0.2312 -1.9525,0 -2.3121,-0.036 -2.3121,-0.2312 z m -33.4491,-10.2185 0,-7.521 -12.8845,-2.9729 c -7.0865,-1.635 -12.9151,-2.9422 -12.9525,-2.9048 -0.037,0.037 1.2486,2.3485 2.8578,5.1359 2.8581,4.9506 2.9179,5.0722 2.5864,5.2523 -0.2619,0.1423 -0.3786,0.1426 -0.5109,0 -0.094,-0.1006 -1.6474,-2.7494 -3.4513,-5.8862 -1.804,-3.1368 -3.2968,-5.7242 -3.3174,-5.7496 -0.021,-0.025 -6.1376,1.6832 -13.5932,3.797 l -13.5557,3.8434 -8.0671,-1.8309 c -4.4369,-1.007 -8.0989,-1.8627 -8.1379,-1.9016 -0.1485,-0.1485 0.1321,-0.8419 0.3147,-0.7775 0.4167,0.147 11.2449,2.5603 11.2814,2.5143 0.022,-0.027 -2.7226,-5.4944 -6.098,-12.1495 l -6.1371,-12.1002 -0.01,-7.2833 -0.01,-7.2832 0.3853,0 0.3854,0 0,6.9848 0,6.9848 11.5993,3.3436 c 14.2703,4.1137 13.6802,3.9456 13.6802,3.8951 0,-0.023 -3.2926,-2.2551 -7.3168,-4.9603 -4.0242,-2.7051 -7.319,-4.9662 -7.3218,-5.0246 -0.01,-0.1124 6.8944,-12.1326 7.0926,-12.3562 0.1444,-0.163 0.7637,0.02 0.7637,0.2256 0,0.083 -1.5263,2.7949 -3.3918,6.0263 -1.8654,3.2314 -3.3741,5.8873 -3.3526,5.9019 0.022,0.015 2.8137,1.8876 6.2049,4.1621 3.3911,2.2745 7.0674,4.7498 8.1695,5.5006 l 2.0039,1.3651 11.2794,-3.2402 c 6.2036,-1.7821 11.3562,-3.2401 11.4501,-3.2401 0.1364,0 0.4923,0.6203 0.4125,0.7191 -0.011,0.014 -5.2349,1.523 -11.608,3.3534 l -11.5874,3.3278 -13.6106,-3.9229 c -7.4859,-2.1576 -13.636,-3.8975 -13.667,-3.8665 -0.04,0.04 14.3589,22.5897 14.6994,23.0202 0.021,0.027 6.413,-1.759 14.2037,-3.9691 7.7906,-2.2102 14.2655,-4.0181 14.3888,-4.0177 0.1233,3e-4 6.0507,2.0028 13.1721,4.4499 7.1215,2.447 12.9737,4.4269 13.0051,4.3996 0.031,-0.027 -2.4218,-4.3571 -5.4513,-9.6217 -3.0295,-5.2647 -5.4829,-9.5939 -5.4519,-9.6203 0.031,-0.026 0.2032,-0.1246 0.3829,-0.2179 0.3099,-0.161 0.6312,0.3594 6.2043,10.0494 l 5.8775,10.2192 0,7.7332 0,7.7332 -0.4625,0 -0.4624,0 0,-7.521 z m 146.6353,7.1529 c -0.9815,-0.3209 -1.8232,-1.0736 -2.3106,-2.0661 -0.3813,-0.7764 -0.4321,-1.0521 -0.4321,-2.3442 0,-1.2935 0.051,-1.5675 0.4337,-2.3476 0.9276,-1.8889 2.8521,-2.6824 4.9719,-2.0499 1.6334,0.4873 2.6395,1.9152 2.7946,3.9662 0.2151,2.8435 -1.3208,4.8419 -3.8386,4.9947 -0.5695,0.034 -1.2384,-0.029 -1.6189,-0.1531 z m 2.9968,-1.4241 c 0.7456,-0.5944 1.1291,-1.3784 1.2326,-2.5197 0.1587,-1.7498 -0.4926,-3.1626 -1.7133,-3.7169 -1.5936,-0.7237 -3.3766,0.09 -3.8751,1.7692 -0.8213,2.7655 0.5524,5.1343 2.8914,4.9861 0.7001,-0.044 1.0047,-0.1523 1.4644,-0.5187 z m -14.2944,-2.9862 0,-4.4702 0.6165,0 0.6166,0 0,1.8497 0,1.8497 2.3122,0 2.3121,0 0,-1.8497 0,-1.8497 0.6166,0 0.6165,0 0,4.4702 0,4.4701 -0.6165,0 -0.6166,0 0,-2.0809 0,-2.081 -2.3121,0 -2.3122,0 0,2.081 0,2.0809 -0.6166,0 -0.6165,0 0,-4.4701 z m -154.5604,3.6396 c -0.9815,-0.3209 -1.8232,-1.0736 -2.3106,-2.0662 -0.3813,-0.7763 -0.4321,-1.052 -0.4321,-2.3442 0,-1.2934 0.051,-1.5674 0.4337,-2.3475 0.9276,-1.8889 2.8521,-2.6824 4.9719,-2.05 1.6334,0.4874 2.6395,1.9153 2.7947,3.9663 0.215,2.8434 -1.3209,4.8419 -3.8387,4.9947 -0.5694,0.034 -1.2384,-0.029 -1.6189,-0.1531 z m 2.9968,-1.4241 c 0.7456,-0.5944 1.1291,-1.3784 1.2326,-2.5197 0.1587,-1.7498 -0.4926,-3.1626 -1.7133,-3.717 -1.5935,-0.7236 -3.3766,0.091 -3.8751,1.7693 -0.8213,2.7655 0.5524,5.1343 2.8914,4.9861 0.7001,-0.044 1.0047,-0.1523 1.4644,-0.5187 z m 4.0486,-2.9863 0,-4.4701 0.6166,0 0.6166,0 0,1.8497 0,1.8497 2.3121,0 2.3121,0 0,-1.8497 0,-1.8497 0.6166,0 0.6166,0 0,4.4701 0,4.4702 -0.6166,0 -0.6166,0 0,-2.0809 0,-2.081 -2.3121,0 -2.3121,0 0,2.081 0,2.0809 -0.6166,0 -0.6166,0 0,-4.4702 z m -153.0033,2.8237 c 0.056,-0.1542 0.7008,-1.8237 1.4328,-3.71 l 1.331,-3.4297 0.6436,0 0.6436,0 1.331,3.4297 c 0.7321,1.8863 1.3768,3.5558 1.4329,3.71 0.089,0.2442 0.027,0.2739 -0.4818,0.2312 -0.5743,-0.048 -0.5898,-0.067 -0.9822,-1.1666 l -0.3988,-1.1175 -1.5447,0 -1.5447,0 -0.3987,1.1175 c -0.3925,1.0999 -0.4079,1.1183 -0.9823,1.1666 -0.5085,0.043 -0.5705,0.013 -0.4817,-0.2312 z m 4.5233,-3.1705 c -0.04,-0.106 -0.3042,-0.8321 -0.5866,-1.6135 -0.2824,-0.7815 -0.5253,-1.4058 -0.5398,-1.3873 -0.014,0.018 -0.2533,0.6578 -0.5308,1.4209 -0.2775,0.763 -0.5368,1.4739 -0.5761,1.5799 -0.053,0.1437 0.2307,0.1927 1.1174,0.1927 0.8875,0 1.1705,-0.049 1.1159,-0.1927 z m 5.1269,0.1927 0,-3.237 -1.2331,0 -1.2332,0 0,-0.4624 0,-0.4625 3.0058,0 3.0058,0 0,0.4625 0,0.4624 -1.2331,0 -1.2332,0 0,3.237 0,3.237 -0.5395,0 -0.5395,0 0,-3.237 z m 4.316,-0.4624 0,-3.6995 1.9653,0 c 1.5785,0 2.089,0.06 2.5936,0.2888 1.4247,0.647 1.5237,2.7886 0.1746,3.778 -0.3524,0.2585 -0.722,0.3264 -2.0424,0.3753 l -1.6121,0.06 0,1.4468 0,1.4469 -0.5395,0 -0.5395,0 0,-3.6994 z m 3.9967,-0.3797 c 0.7487,-0.3871 0.873,-1.3928 0.2493,-2.0166 -0.346,-0.3459 -0.4979,-0.3783 -1.7727,-0.3783 l -1.3943,0 0,1.3102 0,1.3102 1.2408,0 c 0.7875,0 1.4001,-0.082 1.6769,-0.2255 z m 26.8927,3.8199 c 0.056,-0.1542 0.7008,-1.8237 1.4329,-3.71 l 1.3309,-3.4297 0.6437,0 0.6436,0 1.331,3.4297 c 0.732,1.8863 1.3768,3.5558 1.4328,3.71 0.089,0.2442 0.027,0.2739 -0.4817,0.2312 -0.5744,-0.048 -0.5899,-0.067 -0.9823,-1.1666 l -0.3987,-1.1175 -1.5447,0 -1.5448,0 -0.3987,1.1175 c -0.3924,1.0999 -0.4079,1.1183 -0.9823,1.1666 -0.5084,0.043 -0.5704,0.013 -0.4817,-0.2312 z m 4.5233,-3.1705 c -0.04,-0.106 -0.3042,-0.8321 -0.5866,-1.6135 -0.2824,-0.7815 -0.5253,-1.4058 -0.5397,-1.3873 -0.014,0.018 -0.2534,0.6578 -0.5309,1.4209 -0.2774,0.763 -0.5367,1.4739 -0.5761,1.5799 -0.053,0.1437 0.2308,0.1927 1.1175,0.1927 0.8875,0 1.1705,-0.049 1.1158,-0.1927 z m 3.1231,-0.2697 0,-3.6995 1.8112,0.01 c 1.8825,0.01 2.7244,0.1882 3.3021,0.7108 1.3328,1.2052 1.3748,4.499 0.074,5.7997 -0.6892,0.6892 -1.4467,0.8816 -3.4711,0.8816 l -1.7162,0 0,-3.6994 z m 3.9141,2.5408 c 0.6755,-0.3205 1.0429,-1.0133 1.1319,-2.1346 0.097,-1.2182 -0.1429,-2.0788 -0.7375,-2.6486 -0.4414,-0.4232 -0.5715,-0.4589 -1.8521,-0.509 l -1.3774,-0.054 0,2.7899 0,2.7899 1.1713,0 c 0.7274,0 1.358,-0.088 1.6638,-0.2337 z m 3.4848,-2.5408 0,-3.6995 1.9653,0 c 1.5785,0 2.089,0.06 2.5936,0.2888 1.4246,0.647 1.5236,2.7886 0.1746,3.778 -0.3525,0.2585 -0.7221,0.3264 -2.0424,0.3753 l -1.6121,0.06 0,1.4468 0,1.4469 -0.5395,0 -0.5395,0 0,-3.6994 z m 3.9967,-0.3797 c 0.7486,-0.3871 0.8729,-1.3928 0.2492,-2.0166 -0.3459,-0.3459 -0.4978,-0.3783 -1.7726,-0.3783 l -1.3943,0 0,1.3102 0,1.3102 1.2408,0 c 0.7875,0 1.4001,-0.082 1.6769,-0.2255 z m -89.1208,-4.0374 -0.04,-7.3457 -12.8702,-2.9697 c -7.0787,-1.6334 -12.8955,-2.9445 -12.9263,-2.9137 -0.031,0.031 1.26,2.331 2.8686,5.1114 2.5862,4.4703 2.8959,5.0773 2.6758,5.2449 -0.1369,0.1042 -0.3183,0.1912 -0.4031,0.1933 -0.085,0 -1.6874,-2.6488 -3.5613,-5.891 -1.874,-3.2422 -3.4694,-5.8849 -3.5453,-5.8726 -0.076,0.012 -6.1757,1.7331 -13.5549,3.8241 l -13.4168,3.8019 -8.0856,-1.8283 c -5.9048,-1.3351 -8.0961,-1.8885 -8.1245,-2.0515 -0.1222,-0.7008 0.044,-0.6824 5.946,0.6566 l 5.7164,1.2969 -6.1592,-12.2034 -6.1591,-12.2034 0,-7.1895 0,-7.1895 0.3854,0 0.3853,0 0,6.9245 0,6.9245 0.501,0.1605 c 1.3594,0.4355 24.6739,7.1097 24.7083,7.0733 0.022,-0.023 -3.2507,-2.258 -7.2723,-4.9662 -4.0217,-2.7081 -7.2924,-4.9996 -7.2681,-5.0922 0.08,-0.3059 7.1137,-12.4116 7.2113,-12.4116 0.053,0 0.2245,0.094 0.3819,0.2093 0.2687,0.1965 0.082,0.5633 -3.0407,5.973 -1.8299,3.1701 -3.3501,5.8452 -3.3783,5.9449 -0.028,0.1 3.6252,2.6591 8.1185,5.6879 l 8.1695,5.5068 11.3903,-3.2688 c 7.1916,-2.0638 11.4442,-3.2148 11.5367,-3.1224 0.081,0.08 0.1221,0.2724 0.092,0.4265 -0.044,0.2301 -2.0865,0.8647 -11.4596,3.5609 -6.2731,1.8044 -11.5097,3.2797 -11.6368,3.2783 -0.1272,0 -6.3353,-1.7632 -13.7958,-3.915 -7.4606,-2.1518 -13.5738,-3.9018 -13.585,-3.8888 -0.023,0.026 14.7168,22.941 14.8283,23.0525 0.039,0.039 6.5035,-1.7492 14.3656,-3.9736 l 14.2948,-4.0444 13.0138,4.4777 c 7.1575,2.4627 13.0382,4.4532 13.0681,4.4233 0.03,-0.03 -2.4112,-4.346 -5.4246,-9.5914 l -5.479,-9.5371 0.3469,-0.2617 c 0.1908,-0.1439 0.3574,-0.2491 0.3701,-0.2337 0.013,0.015 2.667,4.6281 5.8983,10.2503 l 5.8751,10.2224 0,7.5426 0,7.5427 -0.4609,0 -0.4609,0 -0.04,-7.3458 z m -19.1856,6.5152 c -0.9815,-0.3208 -1.8233,-1.0735 -2.3107,-2.0661 -0.3812,-0.7764 -0.432,-1.052 -0.432,-2.3442 0,-1.2934 0.051,-1.5674 0.4337,-2.3475 0.9275,-1.8889 2.852,-2.6824 4.9718,-2.05 1.6334,0.4873 2.6396,1.9153 2.7947,3.9663 0.2151,2.8434 -1.3208,4.8418 -3.8386,4.9946 -0.5695,0.035 -1.2384,-0.029 -1.6189,-0.1531 z m 2.9967,-1.4241 c 0.7456,-0.5943 1.1292,-1.3783 1.2327,-2.5196 0.1586,-1.7498 -0.4926,-3.1626 -1.7134,-3.717 -1.5935,-0.7236 -3.3765,0.09 -3.8751,1.7693 -0.8212,2.7654 0.5525,5.1343 2.8915,4.986 0.7001,-0.044 1.0046,-0.1522 1.4643,-0.5187 z m 4.0487,-2.9862 0,-4.4701 0.6165,0 0.6166,0 0,1.8497 0,1.8497 2.3122,0 2.3121,0 0,-1.8497 0,-1.8497 0.6166,0 0.6165,0 0,4.4701 0,4.4702 -0.6165,0 -0.6166,0 0,-2.081 0,-2.0809 -2.3121,0 -2.3122,0 0,2.0809 0,2.081 -0.6166,0 -0.6165,0 0,-4.4702 z m 124.7469,-6.688 c -0.9814,-0.3208 -1.8232,-1.0735 -2.3106,-2.0661 -0.3813,-0.7764 -0.4321,-1.052 -0.4321,-2.3442 0,-1.2935 0.051,-1.5674 0.4337,-2.3475 0.9276,-1.8889 2.8521,-2.6824 4.9719,-2.05 1.6334,0.4873 2.6396,1.9153 2.7947,3.9663 0.215,2.8434 -1.3208,4.8418 -3.8386,4.9946 -0.5695,0.035 -1.2384,-0.029 -1.619,-0.1531 z m 2.9968,-1.4241 c 0.7456,-0.5943 1.1291,-1.3783 1.2326,-2.5196 0.1587,-1.7498 -0.4925,-3.1626 -1.7133,-3.717 -1.5935,-0.7236 -3.3765,0.09 -3.8751,1.7693 -0.8213,2.7654 0.5525,5.1343 2.8914,4.986 0.7002,-0.044 1.0047,-0.1522 1.4644,-0.5187 z m -14.4485,-2.9862 0,-4.4701 0.6165,0 0.6166,0 0,1.8497 0,1.8497 2.3121,0 2.3122,0 0,-1.8497 0,-1.8497 0.6166,0 0.6165,0 0,4.4701 0,4.4702 -0.6165,0 -0.6166,0 0,-2.081 0,-2.0809 -2.3122,0 -2.3121,0 0,2.0809 0,2.081 -0.6166,0 -0.6165,0 0,-4.4702 z m -66.8673,3.5145 c -0.2704,-0.2704 -0.2522,-0.3234 0.5309,-1.5476 3.5062,-5.481 8.8659,-9.6074 15.0838,-11.6131 l 1.079,-0.348 -12.1388,-0.013 -12.1388,-0.013 0,-0.4624 0,-0.4624 27.6687,0 c 22.6457,0 27.6687,-0.036 27.6687,-0.2011 0,-0.1105 -0.2066,-0.5267 -0.459,-0.9248 -0.2525,-0.3981 -0.4086,-0.7234 -0.3469,-0.7229 0.16,0 8.7204,2.313 8.7778,2.3704 0.05,0.05 -8.5613,2.2529 -8.805,2.2529 -0.077,0 -0.033,-0.1213 0.098,-0.2697 0.1304,-0.1484 0.3854,-0.5646 0.5665,-0.9249 l 0.3294,-0.6551 -8.2883,0.01 -8.2883,0.01 1.6955,0.581 c 3.5677,1.2225 7.2162,3.407 9.8434,5.8933 0.7999,0.757 1.4908,1.3763 1.5353,1.3763 0.045,0 0.1642,-0.2601 0.2658,-0.578 0.1016,-0.3179 0.2284,-0.6258 0.2817,-0.6842 0.053,-0.058 0.7074,1.389 1.4535,3.2164 0.7461,1.8274 1.3322,3.3469 1.3025,3.3766 -0.03,0.03 -1.2901,-0.965 -2.8008,-2.2105 l -2.7468,-2.2644 0.7202,-0.1582 0.7202,-0.1582 -0.7402,-0.7102 c -6.7367,-6.4629 -15.7496,-8.9914 -24.8637,-6.9752 -6.6278,1.4661 -12.7973,5.7529 -16.4958,11.4619 -1.0747,1.6589 -1.1437,1.7209 -1.5081,1.3565 z m 288.262,-0.1832 c -0.9815,-0.3208 -1.8233,-1.0735 -2.3107,-2.0661 -0.3812,-0.7764 -0.432,-1.052 -0.432,-2.3442 0,-1.2935 0.051,-1.5674 0.4337,-2.3475 0.9275,-1.8889 2.852,-2.6824 4.9718,-2.05 1.6334,0.4873 2.6396,1.9153 2.7947,3.9663 0.2151,2.8434 -1.3208,4.8418 -3.8386,4.9946 -0.5695,0.035 -1.2384,-0.029 -1.6189,-0.1531 z m 2.9967,-1.4241 c 0.7456,-0.5943 1.1292,-1.3783 1.2326,-2.5196 0.1587,-1.7498 -0.4925,-3.1626 -1.7133,-3.717 -1.5935,-0.7236 -3.3765,0.09 -3.8751,1.7693 -0.8212,2.7654 0.5525,5.1343 2.8915,4.986 0.7001,-0.044 1.0046,-0.1522 1.4643,-0.5187 z m -14.2944,-2.9862 0,-4.4701 0.6166,0 0.6166,0 0,1.8497 0,1.8497 2.3121,0 2.3121,0 0,-1.8497 0,-1.8497 0.6166,0 0.6166,0 0,4.4701 0,4.4702 -0.6166,0 -0.6166,0 0,-2.081 0,-2.0809 -2.3121,0 -2.3121,0 0,2.0809 0,2.081 -0.6166,0 -0.6166,0 0,-4.4702 z m -389.012,2.5606 c -0.9815,-0.3208 -1.8232,-1.0735 -2.3107,-2.0661 -0.3812,-0.7764 -0.432,-1.052 -0.432,-2.3442 0,-1.2935 0.051,-1.5674 0.4337,-2.3475 0.9275,-1.8889 2.852,-2.6824 4.9719,-2.05 1.6334,0.4873 2.6395,1.9153 2.7946,3.9663 0.2151,2.8434 -1.3208,4.8418 -3.8386,4.9946 -0.5695,0.035 -1.2384,-0.029 -1.6189,-0.1531 z m 2.9967,-1.4241 c 0.7456,-0.5943 1.1292,-1.3783 1.2327,-2.5197 0.1586,-1.7497 -0.4926,-3.1625 -1.7134,-3.7169 -1.5935,-0.7236 -3.3765,0.09 -3.875,1.7693 -0.8213,2.7654 0.5524,5.1343 2.8914,4.986 0.7001,-0.044 1.0047,-0.1522 1.4643,-0.5187 z m -14.4485,-2.9862 0,-4.4701 0.6166,0 0.6165,0 0,1.8497 0,1.8497 2.3122,0 2.3121,0 0,-1.8497 0,-1.8497 0.6166,0 0.6166,0 0,4.4701 0,4.4702 -0.6166,0 -0.6166,0 0,-2.081 0,-2.0809 -2.3121,0 -2.3122,0 0,2.0809 0,2.081 -0.6165,0 -0.6166,0 0,-4.4702 z m 488.3706,1.0192 c -0.9815,-0.3209 -1.8232,-1.0736 -2.3107,-2.0662 -0.3812,-0.7763 -0.432,-1.052 -0.432,-2.3441 0,-1.2935 0.051,-1.5675 0.4337,-2.3476 0.9275,-1.8889 2.852,-2.6824 4.9718,-2.05 1.6335,0.4874 2.6396,1.9153 2.7947,3.9663 0.2151,2.8435 -1.3208,4.8419 -3.8386,4.9947 -0.5695,0.034 -1.2384,-0.029 -1.6189,-0.1531 z m 2.9967,-1.4241 c 0.7456,-0.5944 1.1292,-1.3784 1.2327,-2.5197 0.1586,-1.7498 -0.4926,-3.1626 -1.7134,-3.7169 -1.5935,-0.7237 -3.3765,0.09 -3.8751,1.7692 -0.8212,2.7655 0.5525,5.1343 2.8915,4.9861 0.7001,-0.044 1.0047,-0.1523 1.4643,-0.5187 z m -350.4539,-11.7476 c -1.0109,-0.3617 -1.8964,-1.201 -2.3665,-2.2433 -0.2888,-0.6403 -0.3537,-1.0464 -0.3477,-2.1746 0.01,-1.598 0.2118,-2.1907 1.0821,-3.1541 0.9473,-1.0484 1.5919,-1.3044 3.3011,-1.3107 1.5776,-0.01 2.3071,0.2398 3.037,1.0222 0.2834,0.3039 0.8166,1.3323 0.8166,1.5752 0,0.1059 -1.5756,0.4203 -1.664,0.3319 -0.043,-0.043 -0.1539,-0.2281 -0.2473,-0.4122 -0.5055,-0.997 -2.1172,-1.3465 -3.3261,-0.7213 -0.3809,0.197 -0.8172,0.5785 -0.9738,0.8515 -0.3789,0.6604 -0.4996,1.9868 -0.2684,2.9504 0.4308,1.796 2.3371,2.5202 4.2424,1.6117 0.4796,-0.2287 0.5416,-0.3256 0.5416,-0.8463 l 0,-0.5881 -1.079,0 -1.079,0 0,-0.7707 0,-0.7707 1.9268,0 1.9268,0 0,1.8413 0,1.8413 -1.1353,0.5611 c -1.4553,0.7192 -3.0883,0.8701 -4.3873,0.4054 z m 7.3723,-4.3408 0,-4.4702 0.8433,0 0.8433,0 0.043,2.0201 0.043,2.0201 1.8412,-2.0201 1.8412,-2.0201 1.162,0 1.162,0 -1.6705,1.6757 c -1.5177,1.5224 -1.6544,1.7059 -1.4941,2.0054 0.097,0.1813 0.8673,1.4079 1.7117,2.7256 0.8443,1.3178 1.5352,2.4269 1.5352,2.4648 0,0.038 -0.4335,0.068 -0.9634,0.066 l -0.9634,0 -1.2332,-1.9517 c -0.6782,-1.0735 -1.2825,-2.0259 -1.343,-2.1165 -0.067,-0.1009 -0.4107,0.1317 -0.8863,0.6001 l -0.7764,0.7647 0,1.3546 0,1.3545 -0.8478,0 -0.8478,0 0,-4.4701 z m 115.6525,2.7147 c -0.9815,-0.3208 -1.8232,-1.0735 -2.3106,-2.0661 -0.3813,-0.7764 -0.4321,-1.052 -0.4321,-2.3442 0,-1.2935 0.051,-1.5674 0.4337,-2.3475 0.9276,-1.8889 2.8521,-2.6824 4.9719,-2.05 1.6334,0.4873 2.6395,1.9153 2.7947,3.9663 0.215,2.8434 -1.3209,4.8418 -3.8387,4.9946 -0.5695,0.035 -1.2384,-0.029 -1.6189,-0.1531 z m 2.9968,-1.4241 c 0.7456,-0.5943 1.1291,-1.3783 1.2326,-2.5196 0.1587,-1.7498 -0.4926,-3.1626 -1.7133,-3.717 -1.5936,-0.7236 -3.3766,0.09 -3.8751,1.7693 -0.8213,2.7654 0.5524,5.1343 2.8914,4.986 0.7001,-0.044 1.0047,-0.1522 1.4644,-0.5187 z m -193.3635,-1.5046 c -0.9815,-0.3209 -1.8233,-1.0735 -2.3107,-2.0661 -0.3812,-0.7764 -0.432,-1.052 -0.432,-2.3442 0,-1.2935 0.051,-1.5674 0.4337,-2.3475 0.9275,-1.889 2.852,-2.6824 4.9718,-2.05 1.6334,0.4873 2.6396,1.9153 2.7947,3.9663 0.2151,2.8434 -1.3208,4.8418 -3.8386,4.9946 -0.5695,0.035 -1.2384,-0.029 -1.6189,-0.1531 z m 2.9967,-1.4241 c 0.7456,-0.5943 1.1292,-1.3783 1.2327,-2.5197 0.1586,-1.7497 -0.4926,-3.1625 -1.7134,-3.7169 -1.5935,-0.7237 -3.3765,0.09 -3.8751,1.7693 -0.8212,2.7654 0.5525,5.1343 2.8915,4.986 0.7001,-0.044 1.0046,-0.1522 1.4643,-0.5187 z m 376.5036,-1.6588 c -0.9815,-0.3208 -1.8232,-1.0735 -2.3106,-2.0661 -0.3813,-0.7763 -0.4321,-1.052 -0.4321,-2.3442 0,-1.2934 0.051,-1.5674 0.4337,-2.3475 0.9276,-1.8889 2.8521,-2.6824 4.9719,-2.05 1.6334,0.4873 2.6395,1.9153 2.7947,3.9663 0.215,2.8434 -1.3209,4.8418 -3.8387,4.9946 -0.5695,0.035 -1.2384,-0.029 -1.6189,-0.1531 z m 2.9968,-1.424 c 0.7456,-0.5944 1.1291,-1.3784 1.2326,-2.5197 0.1587,-1.7498 -0.4926,-3.1626 -1.7133,-3.717 -1.5936,-0.7236 -3.3766,0.09 -3.8751,1.7693 -0.8213,2.7654 0.5524,5.1343 2.8914,4.9861 0.7001,-0.044 1.0047,-0.1523 1.4644,-0.5187 z m 4.2027,-2.9863 0,-4.4701 0.6166,0 0.6166,0 0,1.8497 0,1.8497 2.3121,0 2.3122,0 0,-1.8497 0,-1.8497 0.6165,0 0.6166,0 0,4.4701 0,4.4702 -0.6166,0 -0.6165,0 0,-2.0809 0,-2.081 -2.3122,0 -2.3121,0 0,2.081 0,2.0809 -0.6166,0 -0.6166,0 0,-4.4702 z m -253.366,-9.925 c -0.9815,-0.3208 -1.8233,-1.0735 -2.3107,-2.0661 -0.3812,-0.7764 -0.432,-1.052 -0.432,-2.3442 0,-1.2935 0.051,-1.5674 0.4337,-2.3475 0.9275,-1.8889 2.852,-2.6824 4.9718,-2.05 1.6334,0.4873 2.6396,1.9153 2.7947,3.9663 0.2151,2.8434 -1.3208,4.8418 -3.8386,4.9946 -0.5695,0.035 -1.2384,-0.029 -1.6189,-0.1531 z m 2.9967,-1.4241 c 0.7456,-0.5943 1.1292,-1.3783 1.2327,-2.5196 0.1586,-1.7498 -0.4926,-3.1626 -1.7134,-3.717 -1.5935,-0.7236 -3.3765,0.09 -3.8751,1.7693 -0.8212,2.7654 0.5525,5.1343 2.8915,4.986 0.7001,-0.044 1.0046,-0.1522 1.4643,-0.5187 z m 4.0486,-2.9862 0,-4.4701 0.6166,0 0.6166,0 0,1.8497 0,1.8497 2.3121,0 2.3122,0 0,-1.8497 0,-1.8497 0.6166,0 0.6165,0 0,4.4701 0,4.4702 -0.6165,0 -0.6166,0 0,-2.081 0,-2.0809 -2.3122,0 -2.3121,0 0,2.0809 0,2.081 -0.6166,0 -0.6166,0 0,-4.4702 z m 14.6888,3.9479 c -0.9814,-0.3209 -1.8232,-1.0735 -2.3106,-2.0661 -0.3813,-0.7764 -0.4321,-1.052 -0.4321,-2.3442 0,-1.2935 0.051,-1.5674 0.4337,-2.3475 0.9276,-1.889 2.8521,-2.6824 4.9719,-2.05 1.6334,0.4873 2.6396,1.9153 2.7947,3.9663 0.215,2.8434 -1.3208,4.8418 -3.8386,4.9946 -0.5695,0.035 -1.2384,-0.029 -1.619,-0.1531 z m 2.9968,-1.4241 c 0.7456,-0.5943 1.1291,-1.3783 1.2326,-2.5197 0.1587,-1.7497 -0.4925,-3.1625 -1.7133,-3.7169 -1.5935,-0.7237 -3.3765,0.09 -3.8751,1.7692 -0.8213,2.7655 0.5525,5.1344 2.8914,4.9861 0.7002,-0.044 1.0047,-0.1522 1.4644,-0.5187 z m 4.0486,-2.9862 0,-4.4702 0.6166,0 0.6166,0 0,1.8498 0,1.8497 2.3121,0 2.3122,0 0,-1.8497 0,-1.8498 0.6165,0 0.6166,0 0,4.4702 0,4.4701 -0.6166,0 -0.6165,0 0,-2.0809 0,-2.0809 -2.3122,0 -2.3121,0 0,2.0809 0,2.0809 -0.6166,0 -0.6166,0 0,-4.4701 z m -219.1463,1.944 c -0.9815,-0.3208 -1.8232,-1.0735 -2.3106,-2.0661 -0.3813,-0.7764 -0.4321,-1.052 -0.4321,-2.3442 0,-1.2935 0.051,-1.5674 0.4337,-2.3475 0.9276,-1.8889 2.8521,-2.6824 4.9719,-2.05 1.6334,0.4873 2.6395,1.9153 2.7947,3.9663 0.215,2.8434 -1.3209,4.8418 -3.8387,4.9946 -0.5695,0.035 -1.2384,-0.029 -1.6189,-0.1531 z m 2.9968,-1.4241 c 0.7456,-0.5943 1.1291,-1.3783 1.2326,-2.5197 0.1587,-1.7497 -0.4926,-3.1625 -1.7133,-3.7169 -1.5936,-0.7236 -3.3766,0.09 -3.8751,1.7693 -0.8213,2.7654 0.5524,5.1343 2.8914,4.986 0.7001,-0.044 1.0047,-0.1522 1.4644,-0.5187 z m 4.0486,-2.9862 0,-4.4701 0.6166,0 0.6165,0 0,1.8497 0,1.8497 2.3122,0 2.3121,0 0,-1.8497 0,-1.8497 0.6166,0 0.6166,0 0,4.4701 0,4.4702 -0.6166,0 -0.6166,0 0,-2.081 0,-2.0809 -2.3121,0 -2.3122,0 0,2.0809 0,2.081 -0.6165,0 -0.6166,0 0,-4.4702 z m 14.6888,3.9479 c -0.9815,-0.3209 -1.8232,-1.0735 -2.3106,-2.0661 -0.3813,-0.7764 -0.4321,-1.0521 -0.4321,-2.3442 0,-1.2935 0.051,-1.5674 0.4337,-2.3476 0.9275,-1.8889 2.852,-2.6824 4.9719,-2.0499 1.6334,0.4873 2.6395,1.9152 2.7946,3.9662 0.2151,2.8435 -1.3208,4.8419 -3.8386,4.9947 -0.5695,0.034 -1.2384,-0.029 -1.6189,-0.1531 z m 2.9968,-1.4241 c 0.7456,-0.5944 1.1291,-1.3784 1.2326,-2.5197 0.1586,-1.7498 -0.4926,-3.1625 -1.7134,-3.7169 -1.5935,-0.7237 -3.3765,0.09 -3.875,1.7692 -0.8213,2.7655 0.5524,5.1344 2.8914,4.9861 0.7001,-0.044 1.0047,-0.1523 1.4644,-0.5187 z m 4.0486,-2.9862 0,-4.4702 0.6165,0 0.6166,0 0,1.8497 0,1.8498 2.3122,0 2.3121,0 0,-1.8498 0,-1.8497 0.6166,0 0.6166,0 0,4.4702 0,4.4701 -0.6166,0 -0.6166,0 0,-2.0809 0,-2.0809 -2.3121,0 -2.3122,0 0,2.0809 0,2.0809 -0.6166,0 -0.6165,0 0,-4.4701 z"
       id="path2846"
       style="fill:#000000" />
  </g>
</svg>
