<?xml version="1.0" encoding="UTF-8" standalone="no"?>
<!-- Created with Inkscape (http://www.inkscape.org/) -->

<svg
   xmlns:dc="http://purl.org/dc/elements/1.1/"
   xmlns:cc="http://creativecommons.org/ns#"
   xmlns:rdf="http://www.w3.org/1999/02/22-rdf-syntax-ns#"
   xmlns:svg="http://www.w3.org/2000/svg"
   xmlns="http://www.w3.org/2000/svg"
   version="1.1"
   width="620"
   height="547.57"
   id="svg2">
  <defs
     id="defs4" />
  <metadata
     id="metadata7">
    <rdf:RDF>
      <cc:Work
         rdf:about="">
        <dc:format>image/svg+xml</dc:format>
        <dc:type
           rdf:resource="http://purl.org/dc/dcmitype/StillImage" />
        <dc:title></dc:title>
      </cc:Work>
    </rdf:RDF>
  </metadata>
  <g
     transform="translate(53,-344.96)"
     id="layer1">
    <path
       d="m 488.81,881.74 c -4.72,-1.54 -8.78,-5.17 -11.14,-9.96 -1.84,-3.75 -2.08,-5.08 -2.08,-11.31 0,-6.24 0.24,-7.56 2.09,-11.32 4.47,-9.11 13.76,-12.94 23.98,-9.89 7.88,2.35 12.73,9.24 13.48,19.13 1.03,13.72 -6.37,23.35 -18.51,24.1 -2.75,0.16 -5.98,-0.15 -7.82,-0.75 z m 14.46,-6.87 c 3.6,-2.86 5.45,-6.65 5.95,-12.15 0.76,-8.44 -2.38,-15.25 -8.26,-17.93 -7.69,-3.49 -16.29,0.44 -18.7,8.54 -3.96,13.33 2.67,24.76 13.94,24.05 3.39,-0.22 4.85,-0.74 7.07,-2.51 z m 19.53,-14.4 0,-21.56 2.97,0 2.98,0 0,8.92 0,8.92 11.15,0 11.15,0 0,-8.92 0,-8.92 2.98,0 2.97,0 0,21.56 0,21.56 -2.97,0 -2.98,0 0,-10.04 0,-10.03 -11.15,0 -11.15,0 0,10.03 0,10.04 -2.98,0 -2.97,0 0,-21.56 z m -29.92,-62.95 -0.19,-36.19 -73.61,-16.18 -73.6,-16.19 -58.38,17.45 -58.39,17.44 -39.01,-8.82 c -38.74,-8.78 -39.02,-8.85 -38.76,-10.62 0.14,-0.98 0.37,-1.9 0.51,-2.04 0.14,-0.15 12.65,2.55 27.81,6 15.15,3.44 27.55,6.14 27.55,6 0,-0.35 -58.03,-115.02 -58.4,-115.38 -0.16,-0.16 -15.57,3.8 -34.24,8.8 -34.828,9.32 -35.646,9.47 -35.051,6.05 0.126,-0.73 11.063,-3.97 35.301,-10.48 l 35.12,-9.43 61.47,17.74 c 33.81,9.75 61.58,17.63 61.71,17.49 0.13,-0.12 -15.47,-10.75 -34.66,-23.6 l -34.9,-23.38 0,-34.76 0,-34.76 1.85,0 1.86,0 0,33.36 0,33.37 39.38,26.5 c 21.66,14.57 39.85,26.68 40.44,26.91 0.58,0.22 12.72,-2.78 26.97,-6.66 14.26,-3.89 26.85,-7.29 27.97,-7.57 1.88,-0.45 2.05,-0.31 2.05,1.64 l 0,2.13 -28.07,7.63 c -15.44,4.2 -28.57,7.61 -29.18,7.59 -0.61,0 -30.4,-8.52 -66.17,-18.87 -35.79,-10.34 -65.16,-18.73 -65.29,-18.63 -0.42,0.33 70.85,111.04 71.5,111.08 0.36,0 28.21,-8.22 61.9,-18.3 l 61.25,-18.33 0,-40.03 0,-40.03 1.86,0 1.85,0 0.19,38.46 0.19,38.46 68.01,22.14 c 37.4,12.18 68.25,22.06 68.57,21.95 0.31,-0.11 -9.99,-20.6 -22.88,-45.53 -21.55,-41.68 -23.34,-45.41 -22.13,-46.29 0.72,-0.53 1.62,-0.86 2,-0.73 0.38,0.13 11.85,21.8 25.49,48.16 l 24.8,47.91 0,37.36 0,37.36 -2.23,0 -2.22,0 -0.19,-36.18 z M 117.81,761.3 c -4.73,-1.55 -8.79,-5.18 -11.14,-9.97 -1.84,-3.74 -2.09,-5.08 -2.09,-11.31 0,-6.23 0.25,-7.56 2.09,-11.32 4.48,-9.11 13.76,-12.94 23.99,-9.89 7.88,2.35 12.73,9.24 13.48,19.13 1.03,13.72 -6.37,23.36 -18.52,24.1 -2.75,0.16 -5.97,-0.14 -7.81,-0.74 z m 14.45,-6.87 c 3.6,-2.87 5.45,-6.65 5.95,-12.15 0.77,-8.44 -2.37,-15.26 -8.26,-17.94 -7.69,-3.48 -16.29,0.44 -18.69,8.54 -3.96,13.34 2.66,24.76 13.94,24.05 3.38,-0.21 4.85,-0.73 7.06,-2.5 z m -69.684,-14.41 0,-21.56 2.974,0 2.974,0 0,8.92 0,8.93 11.153,0 11.152,0 0,-8.93 0,-8.92 2.974,0 2.974,0 0,21.56 0,21.57 -2.974,0 -2.974,0 0,-10.04 0,-10.04 -11.152,0 -11.153,0 0,10.04 0,10.04 -2.974,0 -2.974,0 0,-21.57 z m -14.654,-55.3 c -4.729,-1.55 -8.788,-5.18 -11.145,-9.97 -1.836,-3.74 -2.082,-5.08 -2.082,-11.31 0,-6.23 0.246,-7.56 2.089,-11.32 4.476,-9.11 13.762,-12.94 23.986,-9.89 7.881,2.35 12.728,9.24 13.479,19.13 1.034,13.72 -6.372,23.36 -18.513,24.1 -2.751,0.16 -5.978,-0.14 -7.814,-0.74 z m 14.453,-6.87 c 3.599,-2.87 5.45,-6.65 5.948,-12.15 0.766,-8.44 -2.371,-15.26 -8.26,-17.94 -7.688,-3.48 -16.29,0.44 -18.691,8.54 -3.963,13.34 2.661,24.77 13.94,24.05 3.383,-0.21 4.848,-0.73 7.063,-2.5 z m -69.687,-14.41 0,-21.56 2.974,0 2.974,0 0,8.92 0,8.93 11.1521,0 11.1529,0 0,-8.93 0,-8.92 2.973,0 2.974,0 0,21.56 0,21.57 -2.974,0 -2.973,0 0,-10.04 0,-10.04 -11.1529,0 -11.1521,0 0,10.04 0,10.04 -2.974,0 -2.974,0 0,-21.57 z m 432.182,-4 c -4.73,-1.55 -8.78,-5.18 -11.14,-9.97 -1.76,-3.57 -2.08,-5.18 -2.08,-10.19 0,-3.27 0.24,-7.03 0.54,-8.36 0.53,-2.41 0.53,-2.42 -2.42,-2.42 l -2.96,0 0,-10.04 0,-10.03 -11.15,0 -11.15,0 0,10.03 0,10.04 -2.97,0 -2.98,0 0,-21.56 0,-21.56 2.98,0 2.97,0 0,8.92 0,8.92 11.15,0 11.15,0 0,-8.92 0,-8.92 2.98,0 2.97,0 0,21.34 0,21.33 2.14,-3.38 c 4.79,-7.55 13.51,-10.5 22.82,-7.72 7.88,2.35 12.73,9.25 13.48,19.13 1.03,13.72 -6.37,23.36 -18.51,24.1 -2.75,0.16 -5.98,-0.14 -7.82,-0.74 z m 14.46,-6.87 c 3.6,-2.87 5.45,-6.65 5.95,-12.15 0.76,-8.44 -2.38,-15.26 -8.27,-17.93 -7.68,-3.49 -16.29,0.43 -18.69,8.53 -3.96,13.34 2.67,24.77 13.94,24.05 3.39,-0.21 4.85,-0.73 7.07,-2.5 z m -79.96,3.32 0.23,-2.33 22.31,-6.09 22.3,-6.08 0.54,1.88 c 0.29,1.04 0.42,2 0.28,2.13 -0.13,0.13 -10.07,2.92 -22.09,6.19 -12.02,3.27 -22.29,6.1 -22.82,6.29 -0.71,0.25 -0.92,-0.31 -0.75,-1.99 z m -14.79,-27.68 c -4.73,-1.55 -8.79,-5.17 -11.15,-9.96 -1.84,-3.75 -2.08,-5.08 -2.08,-11.31 0,-6.24 0.24,-7.56 2.09,-11.32 4.47,-9.11 13.76,-12.94 23.98,-9.89 7.88,2.35 12.73,9.24 13.48,19.13 1.04,13.71 -6.37,23.35 -18.51,24.09 -2.75,0.17 -5.98,-0.14 -7.81,-0.74 z m 14.45,-6.87 c 3.6,-2.86 5.45,-6.65 5.95,-12.15 0.76,-8.44 -2.37,-15.26 -8.26,-17.93 -7.69,-3.49 -16.29,0.44 -18.69,8.53 -3.97,13.34 2.66,24.77 13.94,24.06 3.38,-0.22 4.84,-0.74 7.06,-2.51 z M 87.327,591.78 c -4.728,-1.55 -8.788,-5.18 -11.145,-9.96 -1.836,-3.75 -2.082,-5.08 -2.082,-11.31 0,-6.24 0.246,-7.56 2.09,-11.33 4.475,-9.1 13.762,-12.93 23.99,-9.88 7.88,2.34 12.72,9.24 13.47,19.13 1.04,13.71 -6.37,23.35 -18.509,24.09 -2.751,0.17 -5.977,-0.14 -7.814,-0.74 z m 14.453,-6.87 c 3.6,-2.86 5.45,-6.65 5.95,-12.15 0.76,-8.44 -2.37,-15.26 -8.262,-17.93 -7.687,-3.49 -16.29,0.44 -18.691,8.53 -3.963,13.34 2.662,24.77 13.94,24.05 3.383,-0.21 4.848,-0.73 7.063,-2.5 z m -68.944,-14.4 0,-21.56 2.974,0 2.974,0 0,8.92 0,8.92 11.153,0 11.152,0 0,-8.92 0,-8.92 2.974,0 2.974,0 0,21.56 0,21.56 -2.974,0 -2.974,0 0,-10.04 0,-10.04 -11.152,0 -11.153,0 0,10.04 0,10.04 -2.974,0 -2.974,0 0,-21.56 z M 198.11,545.68 c -4.73,-1.54 -8.79,-5.17 -11.15,-9.96 -1.83,-3.75 -2.08,-5.08 -2.08,-11.31 0,-6.24 0.25,-7.56 2.09,-11.32 4.48,-9.11 13.76,-12.94 23.99,-9.89 7.88,2.35 12.72,9.24 13.47,19.13 1.04,13.72 -6.37,23.35 -18.51,24.1 -2.75,0.16 -5.98,-0.15 -7.81,-0.75 z m 14.45,-6.87 c 3.6,-2.86 5.45,-6.64 5.95,-12.15 0.77,-8.44 -2.37,-15.25 -8.26,-17.93 -7.69,-3.49 -16.29,0.44 -18.69,8.54 -3.97,13.33 2.66,24.76 13.94,24.05 3.38,-0.22 4.85,-0.74 7.06,-2.51 z m -112.675,5.04 c -0.788,-0.51 0.104,-4.73 4.375,-20.76 4.47,-16.78 5.57,-20.05 6.56,-19.74 0.66,0.21 1.57,0.5 2.02,0.62 0.54,0.16 -1.06,7.33 -4.49,20.19 -5.33,19.93 -5.93,21.32 -8.465,19.69 z m -87.649,-4.86 c -4.7334,-1.55 -8.7936,-5.17 -11.1446,-9.96 -1.8384,-3.75 -2.0844,-5.08 -2.0844,-11.31 0,-6.24 0.244,-7.56 2.0926,-11.32 4.4736,-9.11 13.7564,-12.94 23.9824,-9.89 7.881,2.35 12.728,9.24 13.479,19.13 1.034,13.71 -6.371,23.35 -18.516,24.09 -2.747,0.17 -5.973,-0.14 -7.809,-0.74 z m 14.452,-6.87 c 3.598,-2.86 5.45,-6.65 5.948,-12.15 0.765,-8.44 -2.372,-15.25 -8.261,-17.93 -7.689,-3.49 -16.2888,0.44 -18.694,8.53 -3.9606,13.34 2.6655,24.77 13.947,24.06 3.379,-0.22 4.844,-0.74 7.06,-2.51 z M -43,517.72 l 0,-21.56 2.974,0 2.974,0 0,8.92 0,8.92 11.152,0 11.153,0 0,-8.92 0,-8.92 2.974,0 2.974,0 0,21.56 0,21.56 -2.974,0 -2.974,0 0,-10.04 0,-10.03 -11.153,0 -11.152,0 0,10.03 0,10.04 -2.974,0 -2.974,0 0,-21.56 z m 201.14,-20.01 c -12.66,-7.32 -23.11,-13.6 -23.21,-13.94 -0.1,-0.34 0.26,-1.22 0.81,-1.94 0.93,-1.22 2.77,-0.3 24.33,12.16 12.83,7.41 23.43,13.57 23.56,13.69 0.31,0.3 -1.6,3.35 -2.09,3.35 -0.21,0 -10.74,-5.99 -23.4,-13.32 z m -115.512,7.72 c -0.684,-1.5 -0.602,-1.93 0.454,-2.48 2.379,-1.24 49.977,-20.92 50.602,-20.92 0.342,0 0.974,0.77 1.405,1.72 0.825,1.81 0.379,2.01 -49.323,22.54 -2.164,0.89 -2.365,0.83 -3.138,-0.86 z m 60.092,-30.09 0,-21.56 10.09,0 c 5.54,0 11.56,0.37 13.38,0.83 7.79,1.96 11.01,12.05 6.3,19.76 -2.42,3.97 -5.24,4.97 -15.08,5.3 l -8.74,0.29 0,8.47 0,8.47 -2.97,0 -2.98,0 0,-21.56 z m 21.83,-1.77 c 4.66,-1.94 5.57,-9.44 1.58,-12.91 -1.73,-1.51 -2.71,-1.68 -9.7,-1.68 l -7.76,0 0,7.81 0,7.81 6.72,0 c 4.02,0 7.7,-0.41 9.16,-1.03 z m -14.39,-46.19 0,-22.67 2.23,0 2.23,0 0,22.67 0,22.68 -2.23,0 -2.23,0 0,-22.68 z m 14.87,0 0,-22.67 2.23,0 2.23,0 0,22.67 0,22.68 -2.23,0 -2.23,0 0,-22.68 z m -12.42,-28.91 c -4.73,-1.55 -8.79,-5.17 -11.15,-9.96 -1.835,-3.75 -2.081,-5.08 -2.081,-11.31 0,-6.24 0.246,-7.56 2.091,-11.32 4.47,-9.11 13.76,-12.94 23.98,-9.89 7.88,2.35 12.73,9.24 13.48,19.13 1.04,13.71 -6.37,23.35 -18.51,24.09 -2.75,0.17 -5.98,-0.14 -7.81,-0.74 z m 14.45,-6.87 c 3.6,-2.86 5.45,-6.65 5.95,-12.15 0.76,-8.44 -2.37,-15.25 -8.26,-17.93 -7.69,-3.49 -16.29,0.44 -18.69,8.53 -3.97,13.34 2.66,24.77 13.94,24.06 3.38,-0.22 4.84,-0.74 7.06,-2.51 z"
       id="path2996"
       style="fill:#000000" />
  </g>
</svg>
